AGaramondPro-Regular.ufo
<glyph name="quotedbl" format="1">
  <advance width="404"/>
  <unicode hex="0022"/>
  <outline>
    <contour>
      <point x="122" y="700" type="curve" smooth="yes" name="hr00"/>
      <point x="94" y="700"/>
      <point x="79" y="698"/>
      <point x="79" y="676" type="curve" smooth="yes"/>
      <point x="79" y="669"/>
      <point x="81" y="658"/>
      <point x="84" y="637" type="curve" smooth="yes"/>
      <point x="110" y="476" type="line"/>
      <point x="118" y="468"/>
      <point x="126" y="468"/>
      <point x="134" y="476" type="curve"/>
      <point x="160" y="637" type="line" smooth="yes"/>
      <point x="163" y="658"/>
      <point x="165" y="669"/>
      <point x="165" y="676" type="curve" smooth="yes"/>
      <point x="165" y="698"/>
      <point x="150" y="700"/>
    </contour>
    <contour>
      <point x="282" y="700" type="curve" smooth="yes"/>
      <point x="254" y="700"/>
      <point x="239" y="698"/>
      <point x="239" y="676" type="curve" smooth="yes"/>
      <point x="239" y="669"/>
      <point x="241" y="658"/>
      <point x="244" y="637" type="curve" smooth="yes"/>
      <point x="270" y="476" type="line"/>
      <point x="278" y="468"/>
      <point x="286" y="468"/>
      <point x="294" y="476" type="curve"/>
      <point x="320" y="637" type="line" smooth="yes"/>
      <point x="323" y="658"/>
      <point x="325" y="669"/>
      <point x="325" y="676" type="curve" smooth="yes"/>
      <point x="325" y="698"/>
      <point x="310" y="700"/>
    </contour>
  </outline>
</glyph>
<glyph name="numbersign" format="1">
  <advance width="500"/>
  <unicode hex="0023"/>
  <outline>
    <contour>
      <point x="334" y="403" type="line" name="hr00"/>
      <point x="291" y="241" type="line"/>
      <point x="173" y="241" type="line"/>
      <point x="217" y="403" type="line"/>
    </contour>
    <contour>
      <point x="478" y="403" type="line"/>
      <point x="491" y="453" type="line"/>
      <point x="390" y="453" type="line"/>
      <point x="436" y="626" type="line"/>
      <point x="392" y="626" type="line"/>
      <point x="347" y="453" type="line"/>
      <point x="231" y="453" type="line"/>
      <point x="277" y="626" type="line"/>
      <point x="234" y="626" type="line"/>
      <point x="189" y="453" type="line"/>
      <point x="80" y="453" type="line"/>
      <point x="64" y="403" type="line"/>
      <point x="176" y="403" type="line"/>
      <point x="133" y="241" type="line"/>
      <point x="24" y="241" type="line"/>
      <point x="9" y="191" type="line"/>
      <point x="120" y="191" type="line"/>
      <point x="69" y="0" type="line"/>
      <point x="107" y="0" type="line"/>
      <point x="159" y="191" type="line"/>
      <point x="278" y="191" type="line"/>
      <point x="227" y="0" type="line"/>
      <point x="266" y="0" type="line"/>
      <point x="318" y="191" type="line"/>
      <point x="416" y="191" type="line"/>
      <point x="431" y="241" type="line"/>
      <point x="332" y="241" type="line"/>
      <point x="376" y="403" type="line"/>
    </contour>
  </outline>
</glyph>
<glyph name="ampersand" format="1">
  <advance width="818"/>
  <unicode hex="0026"/>
  <outline>
    <contour>
      <point x="575" y="478" type="line" name="hr01"/>
      <point x="567" y="473"/>
      <point x="567" y="460"/>
      <point x="573" y="454" type="curve"/>
      <point x="607" y="450" type="line" smooth="yes"/>
      <point x="623" y="448"/>
      <point x="633" y="442"/>
      <point x="633" y="435" type="curve" smooth="yes"/>
      <point x="633" y="429"/>
      <point x="628" y="414"/>
      <point x="611" y="380" type="curve" smooth="yes"/>
      <point x="583" y="322"/>
      <point x="530" y="236"/>
      <point x="507" y="205" type="curve"/>
      <point x="440" y="303"/>
      <point x="371" y="367"/>
      <point x="316" y="401" type="curve"/>
      <point x="365" y="429"/>
      <point x="417" y="455"/>
      <point x="417" y="521" type="curve" smooth="yes"/>
      <point x="417" y="590"/>
      <point x="364" y="640"/>
      <point x="288" y="640" type="curve" smooth="yes"/>
      <point x="216" y="640"/>
      <point x="148" y="584"/>
      <point x="148" y="505" type="curve" smooth="yes" name="hr02"/>
      <point x="148" y="448"/>
      <point x="189" y="409"/>
      <point x="225" y="384" type="curve"/>
      <point x="136" y="331"/>
      <point x="63" y="270"/>
      <point x="63" y="166" type="curve" smooth="yes" name="hr03"/>
      <point x="63" y="87"/>
      <point x="118" y="-14"/>
      <point x="259" y="-14" type="curve" smooth="yes"/>
      <point x="348" y="-14"/>
      <point x="420" y="43"/>
      <point x="477" y="107" type="curve"/>
      <point x="488" y="88"/>
      <point x="523" y="28"/>
      <point x="538" y="15" type="curve" smooth="yes"/>
      <point x="557" y="-2"/>
      <point x="600" y="-14"/>
      <point x="645" y="-14" type="curve" smooth="yes"/>
      <point x="707" y="-14"/>
      <point x="764" y="3"/>
      <point x="804" y="53" type="curve"/>
      <point x="807" y="62"/>
      <point x="801" y="70"/>
      <point x="793" y="71" type="curve" name="hr04"/>
      <point x="770" y="47"/>
      <point x="734" y="35"/>
      <point x="703" y="35" type="curve" smooth="yes"/>
      <point x="662" y="35"/>
      <point x="611" y="44"/>
      <point x="558" y="125" type="curve" smooth="yes"/>
      <point x="548" y="140"/>
      <point x="542" y="148"/>
      <point x="525" y="175" type="curve"/>
      <point x="567" y="233"/>
      <point x="608" y="289"/>
      <point x="641" y="342" type="curve" smooth="yes"/>
      <point x="672" y="392"/>
      <point x="701" y="442"/>
      <point x="756" y="451" type="curve" smooth="yes"/>
      <point x="800" y="458" type="line"/>
      <point x="805" y="464"/>
      <point x="805" y="477"/>
      <point x="798" y="482" type="curve"/>
      <point x="771" y="480"/>
      <point x="732" y="478"/>
      <point x="657" y="478" type="curve" smooth="yes"/>
    </contour>
    <contour>
      <point x="251" y="363" type="curve"/>
      <point x="331" y="310"/>
      <point x="411" y="221"/>
      <point x="459" y="137" type="curve" name="hr05"/>
      <point x="414" y="84"/>
      <point x="354" y="45"/>
      <point x="287" y="45" type="curve" smooth="yes"/>
      <point x="199" y="45"/>
      <point x="138" y="107"/>
      <point x="138" y="196" type="curve" smooth="yes"/>
      <point x="138" y="277"/>
      <point x="201" y="338"/>
    </contour>
    <contour>
      <point x="284" y="611" type="curve" smooth="yes" name="hr07"/>
      <point x="332" y="611"/>
      <point x="354" y="568"/>
      <point x="354" y="524" type="curve" smooth="yes"/>
      <point x="354" y="476"/>
      <point x="328" y="443"/>
      <point x="294" y="420" type="curve"/>
      <point x="240" y="451"/>
      <point x="212" y="487"/>
      <point x="212" y="529" type="curve" smooth="yes"/>
      <point x="212" y="570"/>
      <point x="240" y="611"/>
    </contour>
  </outline>
</glyph>
<glyph name="parenright" format="1">
  <advance width="320"/>
  <unicode hex="0029"/>
  <outline>
    <contour>
      <point x="174" y="270" type="curve" smooth="yes" name="hr00"/>
      <point x="174" y="90"/>
      <point x="119" y="-44"/>
      <point x="20" y="-148" type="curve"/>
      <point x="20" y="-158"/>
      <point x="24" y="-162"/>
      <point x="34" y="-163" type="curve"/>
      <point x="157" y="-82"/>
      <point x="240" y="83"/>
      <point x="240" y="270" type="curve" smooth="yes"/>
      <point x="240" y="457"/>
      <point x="157" y="622"/>
      <point x="34" y="703" type="curve"/>
      <point x="24" y="702"/>
      <point x="20" y="698"/>
      <point x="20" y="688" type="curve"/>
      <point x="119" y="584"/>
      <point x="174" y="450"/>
    </contour>
  </outline>
</glyph>
<glyph name="asterisk" format="1">
  <advance width="394"/>
  <unicode hex="002A"/>
  <outline>
    <contour>
      <point x="210" y="676" type="line" name="hr00"/>
      <point x="203" y="681"/>
      <point x="192" y="681"/>
      <point x="186" y="676" type="curve"/>
      <point x="175" y="546" type="line"/>
      <point x="50" y="609" type="line"/>
      <point x="41" y="608"/>
      <point x="35" y="597"/>
      <point x="38" y="588" type="curve"/>
      <point x="153" y="508" type="line"/>
      <point x="39" y="429" type="line"/>
      <point x="36" y="420"/>
      <point x="42" y="408"/>
      <point x="51" y="407" type="curve"/>
      <point x="175" y="472" type="line"/>
      <point x="186" y="342" type="line"/>
      <point x="192" y="337"/>
      <point x="204" y="337"/>
      <point x="210" y="342" type="curve"/>
      <point x="220" y="472" type="line"/>
      <point x="344" y="407" type="line"/>
      <point x="354" y="408"/>
      <point x="359" y="420"/>
      <point x="356" y="429" type="curve"/>
      <point x="242" y="508" type="line"/>
      <point x="357" y="588" type="line"/>
      <point x="360" y="597"/>
      <point x="354" y="608"/>
      <point x="345" y="609" type="curve"/>
      <point x="220" y="546" type="line"/>
    </contour>
  </outline>
</glyph>
<glyph name="plus" format="1">
  <advance width="500"/>
  <unicode hex="002B"/>
  <outline>
    <contour>
      <point x="280" y="0" type="line" name="hr00"/>
      <point x="280" y="181" type="line"/>
      <point x="443" y="181" type="line"/>
      <point x="443" y="230" type="line"/>
      <point x="280" y="230" type="line"/>
      <point x="280" y="394" type="line"/>
      <point x="221" y="394" type="line"/>
      <point x="221" y="230" type="line"/>
      <point x="58" y="230" type="line"/>
      <point x="58" y="181" type="line"/>
      <point x="221" y="181" type="line"/>
      <point x="221" y="0" type="line"/>
    </contour>
  </outline>
</glyph>
<glyph name="period" format="1">
  <advance width="250"/>
  <unicode hex="002E"/>
  <outline>
    <contour>
      <point x="125" y="-14" type="curve" smooth="yes" name="hr00"/>
      <point x="159" y="-14"/>
      <point x="181" y="9"/>
      <point x="181" y="41" type="curve" smooth="yes"/>
      <point x="181" y="73"/>
      <point x="159" y="100"/>
      <point x="125" y="100" type="curve" smooth="yes"/>
      <point x="93" y="100"/>
      <point x="69" y="75"/>
      <point x="69" y="41" type="curve" smooth="yes"/>
      <point x="69" y="7"/>
      <point x="96" y="-14"/>
    </contour>
  </outline>
</glyph>
<glyph name="one" format="1">
  <advance width="500"/>
  <unicode hex="0031"/>
  <outline>
    <contour>
      <point x="220" y="122" type="line" smooth="yes" name="hr01"/>
      <point x="220" y="45"/>
      <point x="219" y="28"/>
      <point x="177" y="25" type="curve" smooth="yes"/>
      <point x="136" y="22" type="line"/>
      <point x="130" y="16"/>
      <point x="131" y="0"/>
      <point x="138" y="-3" type="curve"/>
      <point x="177" y="-1"/>
      <point x="222" y="0"/>
      <point x="258" y="0" type="curve" smooth="yes"/>
      <point x="293" y="0"/>
      <point x="338" y="-1"/>
      <point x="377" y="-3" type="curve"/>
      <point x="384" y="0"/>
      <point x="385" y="16"/>
      <point x="379" y="22" type="curve"/>
      <point x="337" y="25" type="line" smooth="yes"/>
      <point x="296" y="28"/>
      <point x="294" y="45"/>
      <point x="294" y="122" type="curve" smooth="yes"/>
      <point x="294" y="510" type="line" smooth="yes"/>
      <point x="294" y="567"/>
      <point x="296" y="617"/>
      <point x="298" y="635" type="curve" name="hr02"/>
      <point x="296" y="638"/>
      <point x="292" y="640"/>
      <point x="288" y="640" type="curve"/>
      <point x="262" y="623"/>
      <point x="207" y="597"/>
      <point x="123" y="582" type="curve"/>
      <point x="115" y="578"/>
      <point x="116" y="564"/>
      <point x="124" y="560" type="curve"/>
      <point x="172" y="556" type="line" smooth="yes"/>
      <point x="217" y="552"/>
      <point x="220" y="530"/>
      <point x="220" y="462" type="curve" smooth="yes"/>
    </contour>
  </outline>
</glyph>
<glyph name="three" format="1">
  <advance width="500"/>
  <unicode hex="0033"/>
  <outline>
    <contour>
      <point x="140" y="-56" type="curve" smooth="yes" name="hr01"/>
      <point x="189" y="-56"/>
      <point x="275" y="-35"/>
      <point x="349" y="30" type="curve" smooth="yes" name="hr02"/>
      <point x="411" y="84"/>
      <point x="446" y="156"/>
      <point x="446" y="228" type="curve" smooth="yes"/>
      <point x="446" y="323"/>
      <point x="377" y="376"/>
      <point x="301" y="382" type="curve" smooth="yes"/>
      <point x="289" y="383"/>
      <point x="284" y="387"/>
      <point x="289" y="397" type="curve"/>
      <point x="380" y="445"/>
      <point x="396" y="484"/>
      <point x="396" y="525" type="curve" smooth="yes" name="hr03"/>
      <point x="396" y="596"/>
      <point x="339" y="640"/>
      <point x="257" y="640" type="curve" smooth="yes"/>
      <point x="180" y="640"/>
      <point x="107" y="589"/>
      <point x="76" y="519" type="curve"/>
      <point x="76" y="509"/>
      <point x="87" y="503"/>
      <point x="97" y="505" type="curve"/>
      <point x="128" y="556"/>
      <point x="173" y="593"/>
      <point x="232" y="593" type="curve" smooth="yes"/>
      <point x="277" y="593"/>
      <point x="314" y="560"/>
      <point x="314" y="507" type="curve" smooth="yes"/>
      <point x="314" y="459"/>
      <point x="283" y="429"/>
      <point x="261" y="411" type="curve" smooth="yes"/>
      <point x="221" y="378"/>
      <point x="139" y="341"/>
      <point x="101" y="324" type="curve"/>
      <point x="95" y="305"/>
      <point x="107" y="291"/>
      <point x="123" y="289" type="curve"/>
      <point x="146" y="314"/>
      <point x="182" y="338"/>
      <point x="231" y="338" type="curve" smooth="yes"/>
      <point x="318" y="338"/>
      <point x="360" y="263"/>
      <point x="360" y="175" type="curve" smooth="yes" name="hr04"/>
      <point x="360" y="64"/>
      <point x="246" y="-21"/>
      <point x="181" y="-21" type="curve" smooth="yes"/>
      <point x="153" y="-21"/>
      <point x="141" y="-10"/>
      <point x="128" y="9" type="curve" smooth="yes"/>
      <point x="117" y="25"/>
      <point x="104" y="45"/>
      <point x="80" y="45" type="curve" smooth="yes"/>
      <point x="56" y="45"/>
      <point x="41" y="26"/>
      <point x="41" y="6" type="curve" smooth="yes"/>
      <point x="41" y="-41"/>
      <point x="95" y="-56"/>
    </contour>
  </outline>
</glyph>
<glyph name="six" format="1">
  <advance width="500"/>
  <unicode hex="0036"/>
  <outline>
    <contour>
      <point x="40" y="236" type="curve" smooth="yes" name="hr00"/>
      <point x="40" y="100"/>
      <point x="109" y="-14"/>
      <point x="255" y="-14" type="curve" smooth="yes"/>
      <point x="380" y="-14"/>
      <point x="466" y="78"/>
      <point x="466" y="195" type="curve" smooth="yes"/>
      <point x="466" y="297"/>
      <point x="403" y="374"/>
      <point x="307" y="374" type="curve" smooth="yes"/>
      <point x="268" y="374"/>
      <point x="238" y="362"/>
      <point x="209" y="344" type="curve"/>
      <point x="205" y="338"/>
      <point x="206" y="331"/>
      <point x="212" y="328" type="curve"/>
      <point x="222" y="331"/>
      <point x="238" y="336"/>
      <point x="258" y="336" type="curve" smooth="yes"/>
      <point x="343" y="336"/>
      <point x="381" y="254"/>
      <point x="381" y="169" type="curve" smooth="yes"/>
      <point x="381" y="84"/>
      <point x="343" y="16"/>
      <point x="268" y="16" type="curve" smooth="yes"/>
      <point x="169" y="16"/>
      <point x="129" y="123"/>
      <point x="129" y="239" type="curve" smooth="yes"/>
      <point x="129" y="342"/>
      <point x="158" y="452"/>
      <point x="243" y="542" type="curve" smooth="yes"/>
      <point x="315" y="619"/>
      <point x="401" y="648"/>
      <point x="465" y="670" type="curve"/>
      <point x="470" y="675"/>
      <point x="468" y="688"/>
      <point x="461" y="691" type="curve"/>
      <point x="400" y="683"/>
      <point x="278" y="651"/>
      <point x="174" y="549" type="curve" smooth="yes"/>
      <point x="68" y="445"/>
      <point x="40" y="321"/>
    </contour>
  </outline>
</glyph>
<glyph name="seven" format="1">
  <advance width="500"/>
  <unicode hex="0037"/>
  <outline>
    <contour>
      <point x="357" y="564" type="line" smooth="yes" name="hr01"/>
      <point x="389" y="564"/>
      <point x="394" y="557"/>
      <point x="379" y="527" type="curve" smooth="yes"/>
      <point x="96" y="-45" type="line"/>
      <point x="99" y="-58"/>
      <point x="114" y="-66"/>
      <point x="130" y="-64" type="curve"/>
      <point x="385" y="449" type="line" smooth="yes"/>
      <point x="422" y="524"/>
      <point x="451" y="577"/>
      <point x="479" y="620" type="curve" name="hr02"/>
      <point x="479" y="624"/>
      <point x="476" y="628"/>
      <point x="472" y="629" type="curve"/>
      <point x="460" y="626"/>
      <point x="393" y="626"/>
      <point x="338" y="626" type="curve" smooth="yes" name="hr03"/>
      <point x="169" y="626" type="line" smooth="yes"/>
      <point x="114" y="626"/>
      <point x="79" y="627"/>
      <point x="63" y="629" type="curve"/>
      <point x="54" y="591"/>
      <point x="39" y="548"/>
      <point x="29" y="521" type="curve"/>
      <point x="33" y="512"/>
      <point x="43" y="510"/>
      <point x="50" y="513" type="curve"/>
      <point x="79" y="561"/>
      <point x="101" y="564"/>
      <point x="157" y="564" type="curve" smooth="yes"/>
    </contour>
  </outline>
</glyph>
<glyph name="eight" format="1">
  <advance width="500"/>
  <unicode hex="0038"/>
  <outline>
    <contour>
      <point x="263" y="640" type="curve" smooth="yes" name="hr01"/>
      <point x="161" y="640"/>
      <point x="78" y="580"/>
      <point x="79" y="478" type="curve" smooth="yes"/>
      <point x="80" y="401"/>
      <point x="135" y="353"/>
      <point x="193" y="321" type="curve"/>
      <point x="127" y="279"/>
      <point x="58" y="228"/>
      <point x="58" y="153" type="curve" smooth="yes" name="hr02"/>
      <point x="58" y="31"/>
      <point x="154" y="-14"/>
      <point x="243" y="-14" type="curve" smooth="yes"/>
      <point x="360" y="-14"/>
      <point x="443" y="50"/>
      <point x="443" y="156" type="curve" smooth="yes"/>
      <point x="443" y="251"/>
      <point x="380" y="303"/>
      <point x="311" y="342" type="curve"/>
      <point x="361" y="375"/>
      <point x="429" y="412"/>
      <point x="429" y="494" type="curve" smooth="yes" name="hr03"/>
      <point x="429" y="590"/>
      <point x="352" y="640"/>
    </contour>
    <contour>
      <point x="253" y="16" type="curve" smooth="yes" name="hr05"/>
      <point x="179" y="16"/>
      <point x="130" y="78"/>
      <point x="130" y="162" type="curve" smooth="yes"/>
      <point x="130" y="205"/>
      <point x="155" y="259"/>
      <point x="221" y="304" type="curve"/>
      <point x="294" y="271"/>
      <point x="369" y="216"/>
      <point x="369" y="137" type="curve" smooth="yes"/>
      <point x="369" y="64"/>
      <point x="324" y="16"/>
    </contour>
    <contour>
      <point x="256" y="610" type="curve" smooth="yes" name="hr06"/>
      <point x="320" y="610"/>
      <point x="362" y="553"/>
      <point x="362" y="492" type="curve" smooth="yes"/>
      <point x="362" y="435"/>
      <point x="328" y="390"/>
      <point x="282" y="357" type="curve"/>
      <point x="219" y="388"/>
      <point x="151" y="430"/>
      <point x="151" y="499" type="curve" smooth="yes"/>
      <point x="151" y="557"/>
      <point x="187" y="610"/>
    </contour>
  </outline>
</glyph>
<glyph name="colon" format="1">
  <advance width="250"/>
  <unicode hex="003A"/>
  <outline>
    <contour>
      <point x="125" y="280" type="curve" smooth="yes" name="hr00"/>
      <point x="159" y="280"/>
      <point x="181" y="303"/>
      <point x="181" y="335" type="curve" smooth="yes"/>
      <point x="181" y="367"/>
      <point x="159" y="394"/>
      <point x="125" y="394" type="curve" smooth="yes"/>
      <point x="93" y="394"/>
      <point x="69" y="369"/>
      <point x="69" y="335" type="curve" smooth="yes"/>
      <point x="69" y="301"/>
      <point x="96" y="280"/>
    </contour>
    <contour>
      <point x="125" y="-14" type="curve" smooth="yes"/>
      <point x="159" y="-14"/>
      <point x="181" y="9"/>
      <point x="181" y="41" type="curve" smooth="yes"/>
      <point x="181" y="73"/>
      <point x="159" y="100"/>
      <point x="125" y="100" type="curve" smooth="yes"/>
      <point x="93" y="100"/>
      <point x="69" y="75"/>
      <point x="69" y="41" type="curve" smooth="yes"/>
      <point x="69" y="7"/>
      <point x="96" y="-14"/>
    </contour>
  </outline>
</glyph>
<glyph name="less" format="1">
  <advance width="500"/>
  <unicode hex="003C"/>
  <outline>
    <contour>
      <point x="56" y="228" type="line" name="hr00"/>
      <point x="56" y="183" type="line"/>
      <point x="445" y="-1" type="line"/>
      <point x="445" y="56" type="line"/>
      <point x="128" y="205" type="line"/>
      <point x="128" y="207" type="line"/>
      <point x="445" y="355" type="line"/>
      <point x="445" y="413" type="line"/>
    </contour>
  </outline>
</glyph>
<glyph name="H" format="1">
  <advance width="806"/>
  <unicode hex="0048"/>
  <outline>
    <contour>
      <point x="546" y="323" type="line" smooth="yes" name="hr00"/>
      <point x="594" y="323"/>
      <point x="596" y="321"/>
      <point x="596" y="291" type="curve" smooth="yes"/>
      <point x="596" y="150" type="line" smooth="yes"/>
      <point x="596" y="45"/>
      <point x="596" y="35"/>
      <point x="535" y="25" type="curve" smooth="yes"/>
      <point x="516" y="22" type="line"/>
      <point x="510" y="16"/>
      <point x="512" y="0"/>
      <point x="518" y="-3" type="curve"/>
      <point x="562" y="-1"/>
      <point x="598" y="0"/>
      <point x="639" y="0" type="curve" smooth="yes"/>
      <point x="678" y="0"/>
      <point x="712" y="-1"/>
      <point x="760" y="-3" type="curve"/>
      <point x="766" y="0"/>
      <point x="768" y="18"/>
      <point x="762" y="22" type="curve"/>
      <point x="738" y="25" type="line" smooth="yes"/>
      <point x="680" y="32"/>
      <point x="678" y="45"/>
      <point x="678" y="150" type="curve" smooth="yes"/>
      <point x="678" y="510" type="line" smooth="yes"/>
      <point x="678" y="615"/>
      <point x="680" y="630"/>
      <point x="738" y="636" type="curve" smooth="yes"/>
      <point x="759" y="638" type="line"/>
      <point x="765" y="642"/>
      <point x="763" y="660"/>
      <point x="757" y="663" type="curve"/>
      <point x="712" y="661"/>
      <point x="678" y="660"/>
      <point x="639" y="660" type="curve" smooth="yes"/>
      <point x="598" y="660"/>
      <point x="564" y="661"/>
      <point x="518" y="663" type="curve"/>
      <point x="512" y="660"/>
      <point x="510" y="642"/>
      <point x="516" y="638" type="curve"/>
      <point x="535" y="636" type="line" smooth="yes"/>
      <point x="594" y="630"/>
      <point x="596" y="615"/>
      <point x="596" y="510" type="curve" smooth="yes"/>
      <point x="596" y="395" type="line" smooth="yes"/>
      <point x="596" y="364"/>
      <point x="594" y="363"/>
      <point x="546" y="363" type="curve" smooth="yes"/>
      <point x="260" y="363" type="line" smooth="yes"/>
      <point x="212" y="363"/>
      <point x="210" y="364"/>
      <point x="210" y="395" type="curve" smooth="yes"/>
      <point x="210" y="510" type="line" smooth="yes"/>
      <point x="210" y="615"/>
      <point x="212" y="630"/>
      <point x="270" y="636" type="curve" smooth="yes"/>
      <point x="289" y="638" type="line"/>
      <point x="295" y="642"/>
      <point x="293" y="660"/>
      <point x="287" y="663" type="curve"/>
      <point x="244" y="661"/>
      <point x="210" y="660"/>
      <point x="171" y="660" type="curve" smooth="yes"/>
      <point x="128" y="660"/>
      <point x="94" y="662"/>
      <point x="45" y="663" type="curve"/>
      <point x="39" y="660"/>
      <point x="37" y="642"/>
      <point x="43" y="638" type="curve"/>
      <point x="69" y="636" type="line" smooth="yes"/>
      <point x="121" y="632"/>
      <point x="128" y="615"/>
      <point x="128" y="510" type="curve" smooth="yes"/>
      <point x="128" y="150" type="line" smooth="yes"/>
      <point x="128" y="45"/>
      <point x="126" y="35"/>
      <point x="70" y="25" type="curve" smooth="yes"/>
      <point x="53" y="22" type="line"/>
      <point x="47" y="16"/>
      <point x="49" y="0"/>
      <point x="55" y="-3" type="curve"/>
      <point x="94" y="-2"/>
      <point x="128" y="0"/>
      <point x="171" y="0" type="curve" smooth="yes"/>
      <point x="210" y="0"/>
      <point x="244" y="-1"/>
      <point x="298" y="-3" type="curve"/>
      <point x="304" y="0"/>
      <point x="306" y="18"/>
      <point x="300" y="22" type="curve"/>
      <point x="271" y="25" type="line" smooth="yes"/>
      <point x="215" y="31"/>
      <point x="210" y="45"/>
      <point x="210" y="150" type="curve" smooth="yes"/>
      <point x="210" y="291" type="line" smooth="yes"/>
      <point x="210" y="321"/>
      <point x="212" y="323"/>
      <point x="260" y="323" type="curve" smooth="yes"/>
    </contour>
  </outline>
</glyph>
<glyph name="J" format="1">
  <advance width="345"/>
  <unicode hex="004A"/>
  <outline>
    <contour>
      <point x="143" y="130" type="line" smooth="yes" name="hr00"/>
      <point x="143" y="76"/>
      <point x="140" y="-74"/>
      <point x="117" y="-121" type="curve" smooth="yes"/>
      <point x="110" y="-135"/>
      <point x="98" y="-147"/>
      <point x="77" y="-147" type="curve" smooth="yes"/>
      <point x="63" y="-147"/>
      <point x="49" y="-144"/>
      <point x="35" y="-140" type="curve" smooth="yes"/>
      <point x="22" y="-136"/>
      <point x="10" y="-134"/>
      <point x="-2" y="-134" type="curve" smooth="yes"/>
      <point x="-23" y="-134"/>
      <point x="-38" y="-163"/>
      <point x="-38" y="-180" type="curve" smooth="yes"/>
      <point x="-38" y="-200"/>
      <point x="-7" y="-201"/>
      <point x="5" y="-201" type="curve" smooth="yes"/>
      <point x="98" y="-201"/>
      <point x="169" y="-137"/>
      <point x="202" y="-57" type="curve" smooth="yes"/>
      <point x="221" y="-11"/>
      <point x="225" y="58"/>
      <point x="225" y="137" type="curve" smooth="yes"/>
      <point x="225" y="508" type="line" smooth="yes"/>
      <point x="225" y="614"/>
      <point x="227" y="628"/>
      <point x="286" y="636" type="curve" smooth="yes"/>
      <point x="301" y="638" type="line"/>
      <point x="307" y="642"/>
      <point x="305" y="660"/>
      <point x="299" y="663" type="curve"/>
      <point x="259" y="661"/>
      <point x="225" y="660"/>
      <point x="185" y="660" type="curve" smooth="yes"/>
      <point x="143" y="660"/>
      <point x="109" y="661"/>
      <point x="51" y="663" type="curve"/>
      <point x="45" y="660"/>
      <point x="43" y="642"/>
      <point x="49" y="638" type="curve"/>
      <point x="74" y="636" type="line" smooth="yes"/>
      <point x="133" y="631"/>
      <point x="143" y="619"/>
      <point x="143" y="508" type="curve" smooth="yes"/>
    </contour>
  </outline>
</glyph>
<glyph name="K" format="1">
  <advance width="675"/>
  <unicode hex="004B"/>
  <outline>
    <contour>
      <point x="128" y="150" type="line" smooth="yes" name="hr00"/>
      <point x="128" y="45"/>
      <point x="126" y="33"/>
      <point x="73" y="25" type="curve" smooth="yes"/>
      <point x="53" y="22" type="line"/>
      <point x="47" y="15"/>
      <point x="49" y="0"/>
      <point x="55" y="-3" type="curve"/>
      <point x="96" y="-1"/>
      <point x="130" y="0"/>
      <point x="171" y="0" type="curve" smooth="yes"/>
      <point x="210" y="0"/>
      <point x="244" y="-1"/>
      <point x="293" y="-3" type="curve"/>
      <point x="299" y="0"/>
      <point x="301" y="18"/>
      <point x="295" y="22" type="curve"/>
      <point x="268" y="25" type="line" smooth="yes"/>
      <point x="212" y="31"/>
      <point x="210" y="45"/>
      <point x="210" y="150" type="curve" smooth="yes"/>
      <point x="210" y="279" type="line" smooth="yes"/>
      <point x="210" y="314"/>
      <point x="212" y="327"/>
      <point x="227" y="327" type="curve" smooth="yes"/>
      <point x="251" y="327"/>
      <point x="267" y="307"/>
      <point x="324" y="243" type="curve" smooth="yes"/>
      <point x="404" y="153" type="line" smooth="yes"/>
      <point x="442" y="110"/>
      <point x="468" y="83"/>
      <point x="487" y="59" type="curve" smooth="yes"/>
      <point x="494" y="50"/>
      <point x="501" y="42"/>
      <point x="501" y="36" type="curve" smooth="yes"/>
      <point x="501" y="31"/>
      <point x="491" y="28"/>
      <point x="477" y="26" type="curve" smooth="yes"/>
      <point x="454" y="22" type="line"/>
      <point x="448" y="16"/>
      <point x="451" y="-1"/>
      <point x="458" y="-3" type="curve"/>
      <point x="504" y="-1"/>
      <point x="539" y="0"/>
      <point x="580" y="0" type="curve" smooth="yes"/>
      <point x="627" y="0"/>
      <point x="666" y="-1"/>
      <point x="692" y="-3" type="curve"/>
      <point x="699" y="0"/>
      <point x="701" y="17"/>
      <point x="694" y="22" type="curve"/>
      <point x="667" y="25" type="line" smooth="yes"/>
      <point x="633" y="29"/>
      <point x="611" y="42"/>
      <point x="587" y="66" type="curve" smooth="yes"/>
      <point x="509" y="148"/>
      <point x="432" y="238"/>
      <point x="337" y="347" type="curve" smooth="yes"/>
      <point x="324" y="363"/>
      <point x="318" y="371"/>
      <point x="318" y="378" type="curve" smooth="yes"/>
      <point x="318" y="386"/>
      <point x="327" y="395"/>
      <point x="341" y="409" type="curve" smooth="yes"/>
      <point x="431" y="494" type="line" smooth="yes"/>
      <point x="487" y="547"/>
      <point x="543" y="594"/>
      <point x="571" y="610" type="curve" smooth="yes"/>
      <point x="599" y="626"/>
      <point x="638" y="636"/>
      <point x="664" y="638" type="curve"/>
      <point x="670" y="644"/>
      <point x="669" y="658"/>
      <point x="662" y="663" type="curve"/>
      <point x="632" y="661"/>
      <point x="598" y="660"/>
      <point x="563" y="660" type="curve" smooth="yes"/>
      <point x="528" y="660"/>
      <point x="488" y="661"/>
      <point x="453" y="663" type="curve"/>
      <point x="445" y="658"/>
      <point x="444" y="645"/>
      <point x="451" y="638" type="curve"/>
      <point x="478" y="632" type="line" smooth="yes"/>
      <point x="491" y="629"/>
      <point x="495" y="626"/>
      <point x="495" y="622" type="curve" smooth="yes"/>
      <point x="495" y="618"/>
      <point x="493" y="613"/>
      <point x="488" y="606" type="curve" smooth="yes"/>
      <point x="478" y="592"/>
      <point x="429" y="541"/>
      <point x="410" y="523" type="curve" smooth="yes"/>
      <point x="302" y="416" type="line" smooth="yes"/>
      <point x="291" y="406"/>
      <point x="265" y="380"/>
      <point x="251" y="368" type="curve" smooth="yes"/>
      <point x="244" y="363"/>
      <point x="232" y="357"/>
      <point x="223" y="357" type="curve" smooth="yes"/>
      <point x="212" y="357"/>
      <point x="210" y="376"/>
      <point x="210" y="395" type="curve" smooth="yes"/>
      <point x="210" y="510" type="line" smooth="yes"/>
      <point x="210" y="615"/>
      <point x="212" y="630"/>
      <point x="270" y="636" type="curve" smooth="yes"/>
      <point x="289" y="638" type="line"/>
      <point x="295" y="642"/>
      <point x="293" y="660"/>
      <point x="287" y="663" type="curve"/>
      <point x="244" y="661"/>
      <point x="210" y="660"/>
      <point x="171" y="660" type="curve" smooth="yes"/>
      <point x="126" y="660"/>
      <point x="94" y="661"/>
      <point x="45" y="663" type="curve"/>
      <point x="39" y="660"/>
      <point x="37" y="642"/>
      <point x="43" y="638" type="curve"/>
      <point x="68" y="636" type="line" smooth="yes"/>
      <point x="126" y="631"/>
      <point x="128" y="615"/>
      <point x="128" y="510" type="curve" smooth="yes"/>
    </contour>
  </outline>
</glyph>
<glyph name="L" format="1">
  <advance width="553"/>
  <unicode hex="004C"/>
  <outline>
    <contour>
      <point x="128" y="150" type="line" smooth="yes" name="hr01"/>
      <point x="128" y="45"/>
      <point x="126" y="31"/>
      <point x="68" y="25" type="curve" smooth="yes" name="hr02"/>
      <point x="38" y="22" type="line"/>
      <point x="32" y="16"/>
      <point x="34" y="0"/>
      <point x="40" y="-3" type="curve" name="hr03"/>
      <point x="96" y="-1"/>
      <point x="128" y="0"/>
      <point x="170" y="0" type="curve" smooth="yes" name="hr04"/>
      <point x="262" y="0" type="line" smooth="yes"/>
      <point x="365" y="0"/>
      <point x="460" y="-1"/>
      <point x="511" y="-3" type="curve"/>
      <point x="525" y="24"/>
      <point x="553" y="126"/>
      <point x="553" y="137" type="curve" smooth="yes"/>
      <point x="553" y="144"/>
      <point x="534" y="148"/>
      <point x="528" y="143" type="curve"/>
      <point x="508" y="92"/>
      <point x="482" y="56"/>
      <point x="462" y="44" type="curve" smooth="yes"/>
      <point x="446" y="35"/>
      <point x="425" y="31"/>
      <point x="340" y="31" type="curve" smooth="yes"/>
      <point x="261" y="31"/>
      <point x="242" y="43"/>
      <point x="231" y="54" type="curve" smooth="yes"/>
      <point x="213" y="73"/>
      <point x="210" y="99"/>
      <point x="210" y="162" type="curve" smooth="yes"/>
      <point x="210" y="510" type="line" smooth="yes"/>
      <point x="210" y="615"/>
      <point x="212" y="631"/>
      <point x="271" y="636" type="curve" smooth="yes"/>
      <point x="295" y="638" type="line"/>
      <point x="301" y="642"/>
      <point x="299" y="660"/>
      <point x="293" y="663" type="curve"/>
      <point x="243" y="661"/>
      <point x="209" y="660"/>
      <point x="170" y="660" type="curve" smooth="yes"/>
      <point x="130" y="660"/>
      <point x="96" y="661"/>
      <point x="40" y="663" type="curve"/>
      <point x="34" y="660"/>
      <point x="32" y="642"/>
      <point x="38" y="638" type="curve"/>
      <point x="63" y="636" type="line" smooth="yes"/>
      <point x="126" y="631"/>
      <point x="128" y="615"/>
      <point x="128" y="510" type="curve" smooth="yes"/>
    </contour>
  </outline>
</glyph>
<glyph name="M" format="1">
  <advance width="912"/>
  <unicode hex="004D"/>
  <outline>
    <contour>
      <point x="275" y="498" type="line" smooth="yes" name="hr01"/>
      <point x="244" y="562"/>
      <point x="219" y="624"/>
      <point x="223" y="663" type="curve"/>
      <point x="190" y="660"/>
      <point x="163" y="660"/>
      <point x="140" y="660" type="curve" smooth="yes"/>
      <point x="115" y="660"/>
      <point x="91" y="661"/>
      <point x="61" y="663" type="curve"/>
      <point x="53" y="659"/>
      <point x="52" y="644"/>
      <point x="57" y="638" type="curve"/>
      <point x="73" y="636" type="line" smooth="yes"/>
      <point x="134" y="628"/>
      <point x="142" y="613"/>
      <point x="140" y="550" type="curve" smooth="yes"/>
      <point x="138" y="495"/>
      <point x="134" y="410"/>
      <point x="129" y="327" type="curve" smooth="yes"/>
      <point x="123" y="228"/>
      <point x="118" y="173"/>
      <point x="112" y="107" type="curve" smooth="yes" name="hr02"/>
      <point x="106" y="37"/>
      <point x="92" y="31"/>
      <point x="50" y="25" type="curve" smooth="yes"/>
      <point x="28" y="22" type="line"/>
      <point x="22" y="17"/>
      <point x="24" y="2"/>
      <point x="30" y="-3" type="curve"/>
      <point x="64" y="-1"/>
      <point x="100" y="0"/>
      <point x="132" y="0" type="curve" smooth="yes"/>
      <point x="170" y="0"/>
      <point x="209" y="-1"/>
      <point x="243" y="-3" type="curve"/>
      <point x="250" y="0"/>
      <point x="251" y="16"/>
      <point x="244" y="22" type="curve"/>
      <point x="206" y="25" type="line" smooth="yes"/>
      <point x="167" y="28"/>
      <point x="161" y="44"/>
      <point x="161" y="118" type="curve" smooth="yes"/>
      <point x="161" y="203"/>
      <point x="165" y="292"/>
      <point x="168" y="353" type="curve" smooth="yes"/>
      <point x="171" y="411"/>
      <point x="174" y="469"/>
      <point x="178" y="531" type="curve" name="hr03"/>
      <point x="180" y="531" type="line"/>
      <point x="202" y="485"/>
      <point x="223" y="433"/>
      <point x="244" y="387" type="curve" smooth="yes"/>
      <point x="334" y="194" type="line" smooth="yes"/>
      <point x="357" y="145"/>
      <point x="405" y="47"/>
      <point x="422" y="-6" type="curve"/>
      <point x="424" y="-9"/>
      <point x="429" y="-10"/>
      <point x="431" y="-10" type="curve" smooth="yes"/>
      <point x="435" y="-10"/>
      <point x="439" y="-9"/>
      <point x="441" y="-6" type="curve"/>
      <point x="459" y="40"/>
      <point x="504" y="134"/>
      <point x="549" y="222" type="curve" smooth="yes"/>
      <point x="638" y="397" type="line" smooth="yes"/>
      <point x="658" y="436"/>
      <point x="696" y="516"/>
      <point x="703" y="527" type="curve"/>
      <point x="705" y="527" type="line"/>
      <point x="708" y="110" type="line" smooth="yes" name="hr04"/>
      <point x="708" y="46"/>
      <point x="708" y="30"/>
      <point x="659" y="25" type="curve" smooth="yes"/>
      <point x="630" y="22" type="line"/>
      <point x="624" y="16"/>
      <point x="625" y="2"/>
      <point x="632" y="-3" type="curve"/>
      <point x="673" y="-1"/>
      <point x="718" y="0"/>
      <point x="753" y="0" type="curve" smooth="yes"/>
      <point x="789" y="0"/>
      <point x="830" y="-1"/>
      <point x="871" y="-3" type="curve"/>
      <point x="878" y="1"/>
      <point x="879" y="16"/>
      <point x="873" y="22" type="curve"/>
      <point x="841" y="25" type="line" smooth="yes"/>
      <point x="794" y="29"/>
      <point x="795" y="56"/>
      <point x="792" y="106" type="curve" smooth="yes"/>
      <point x="784" y="250"/>
      <point x="783" y="435"/>
      <point x="781" y="541" type="curve" smooth="yes"/>
      <point x="780" y="611"/>
      <point x="788" y="630"/>
      <point x="851" y="636" type="curve" smooth="yes"/>
      <point x="872" y="638" type="line"/>
      <point x="877" y="642"/>
      <point x="877" y="659"/>
      <point x="871" y="663" type="curve"/>
      <point x="840" y="661"/>
      <point x="807" y="660"/>
      <point x="782" y="660" type="curve" smooth="yes"/>
      <point x="762" y="660"/>
      <point x="741" y="660"/>
      <point x="707" y="663" type="curve"/>
      <point x="705" y="617"/>
      <point x="676" y="562"/>
      <point x="631" y="471" type="curve" smooth="yes"/>
      <point x="537" y="280" type="line" smooth="yes"/>
      <point x="512" y="229"/>
      <point x="487" y="177"/>
      <point x="460" y="130" type="curve"/>
      <point x="458" y="130" type="line"/>
      <point x="434" y="174"/>
      <point x="412" y="220"/>
      <point x="389" y="267" type="curve" smooth="yes"/>
    </contour>
  </outline>
</glyph>
<glyph name="S" format="1">
  <advance width="489"/>
  <unicode hex="0053"/>
  <outline>
    <contour>
      <point x="437" y="169" type="curve" smooth="yes" name="hr01"/>
      <point x="437" y="264"/>
      <point x="375" y="322"/>
      <point x="312" y="361" type="curve" smooth="yes"/>
      <point x="232" y="411" type="line" smooth="yes"/>
      <point x="195" y="434"/>
      <point x="147" y="476"/>
      <point x="147" y="534" type="curve" smooth="yes"/>
      <point x="147" y="580"/>
      <point x="168" y="645"/>
      <point x="266" y="645" type="curve" smooth="yes"/>
      <point x="362" y="645"/>
      <point x="389" y="580"/>
      <point x="402" y="532" type="curve"/>
      <point x="407" y="526"/>
      <point x="423" y="529"/>
      <point x="427" y="535" type="curve" name="hr02"/>
      <point x="427" y="577"/>
      <point x="418" y="633"/>
      <point x="409" y="657" type="curve"/>
      <point x="401" y="657"/>
      <point x="387" y="659"/>
      <point x="374" y="663" type="curve" smooth="yes"/>
      <point x="348" y="670"/>
      <point x="312" y="676"/>
      <point x="281" y="676" type="curve" smooth="yes" name="hr03"/>
      <point x="151" y="676"/>
      <point x="77" y="599"/>
      <point x="77" y="504" type="curve" smooth="yes"/>
      <point x="77" y="422"/>
      <point x="135" y="365"/>
      <point x="185" y="332" type="curve" smooth="yes"/>
      <point x="280" y="270" type="line" smooth="yes"/>
      <point x="353" y="223"/>
      <point x="362" y="174"/>
      <point x="362" y="130" type="curve" smooth="yes"/>
      <point x="362" y="70"/>
      <point x="321" y="15"/>
      <point x="237" y="15" type="curve" smooth="yes"/>
      <point x="121" y="15"/>
      <point x="80" y="113"/>
      <point x="65" y="164" type="curve"/>
      <point x="61" y="170"/>
      <point x="46" y="168"/>
      <point x="41" y="161" type="curve"/>
      <point x="43" y="114"/>
      <point x="56" y="43"/>
      <point x="68" y="21" type="curve"/>
      <point x="87" y="10"/>
      <point x="140" y="-16"/>
      <point x="224" y="-16" type="curve" smooth="yes"/>
      <point x="354" y="-16"/>
      <point x="437" y="59"/>
    </contour>
  </outline>
</glyph>
<glyph name="X" format="1">
  <advance width="643"/>
  <unicode hex="0058"/>
  <outline>
    <contour>
      <point x="631" y="25" type="line" smooth="yes" name="hr00"/>
      <point x="600" y="28"/>
      <point x="574" y="44"/>
      <point x="540" y="91" type="curve" smooth="yes"/>
      <point x="371" y="329" type="line" smooth="yes"/>
      <point x="359" y="345"/>
      <point x="358" y="352"/>
      <point x="358" y="355" type="curve" smooth="yes"/>
      <point x="358" y="358"/>
      <point x="362" y="365"/>
      <point x="368" y="374" type="curve" smooth="yes"/>
      <point x="416" y="441"/>
      <point x="459" y="501"/>
      <point x="498" y="551" type="curve" smooth="yes"/>
      <point x="539" y="603"/>
      <point x="575" y="633"/>
      <point x="605" y="636" type="curve" smooth="yes"/>
      <point x="629" y="638" type="line"/>
      <point x="635" y="644"/>
      <point x="634" y="658"/>
      <point x="627" y="663" type="curve"/>
      <point x="596" y="661"/>
      <point x="568" y="660"/>
      <point x="531" y="660" type="curve" smooth="yes"/>
      <point x="492" y="660"/>
      <point x="460" y="661"/>
      <point x="425" y="663" type="curve"/>
      <point x="417" y="659"/>
      <point x="417" y="645"/>
      <point x="423" y="638" type="curve"/>
      <point x="449" y="635" type="line" smooth="yes"/>
      <point x="467" y="633"/>
      <point x="482" y="627"/>
      <point x="482" y="622" type="curve" smooth="yes"/>
      <point x="482" y="615"/>
      <point x="476" y="602"/>
      <point x="468" y="589" type="curve" smooth="yes"/>
      <point x="450" y="559"/>
      <point x="360" y="417"/>
      <point x="334" y="385" type="curve"/>
      <point x="298" y="430"/>
      <point x="239" y="520"/>
      <point x="206" y="568" type="curve" smooth="yes"/>
      <point x="186" y="597"/>
      <point x="176" y="614"/>
      <point x="176" y="623" type="curve" smooth="yes"/>
      <point x="176" y="629"/>
      <point x="188" y="635"/>
      <point x="206" y="636" type="curve" smooth="yes"/>
      <point x="234" y="638" type="line"/>
      <point x="240" y="645"/>
      <point x="239" y="660"/>
      <point x="232" y="663" type="curve"/>
      <point x="203" y="661"/>
      <point x="158" y="660"/>
      <point x="119" y="660" type="curve" smooth="yes"/>
      <point x="83" y="660"/>
      <point x="50" y="661"/>
      <point x="3" y="663" type="curve"/>
      <point x="-3" y="660"/>
      <point x="-4" y="644"/>
      <point x="1" y="638" type="curve"/>
      <point x="33" y="631" type="line" smooth="yes"/>
      <point x="68" y="623"/>
      <point x="87" y="603"/>
      <point x="120" y="556" type="curve" smooth="yes"/>
      <point x="270" y="341" type="line" smooth="yes"/>
      <point x="278" y="330"/>
      <point x="282" y="321"/>
      <point x="282" y="318" type="curve" smooth="yes"/>
      <point x="282" y="315"/>
      <point x="280" y="308"/>
      <point x="273" y="298" type="curve" smooth="yes"/>
      <point x="218" y="218"/>
      <point x="149" y="130"/>
      <point x="137" y="114" type="curve" smooth="yes"/>
      <point x="107" y="74"/>
      <point x="72" y="31"/>
      <point x="18" y="25" type="curve" smooth="yes"/>
      <point x="-7" y="22" type="line"/>
      <point x="-14" y="16"/>
      <point x="-13" y="1"/>
      <point x="-4" y="-3" type="curve"/>
      <point x="28" y="-1"/>
      <point x="65" y="0"/>
      <point x="99" y="0" type="curve" smooth="yes"/>
      <point x="133" y="0"/>
      <point x="171" y="-1"/>
      <point x="207" y="-3" type="curve"/>
      <point x="213" y="2"/>
      <point x="215" y="16"/>
      <point x="208" y="22" type="curve"/>
      <point x="181" y="25" type="line" smooth="yes"/>
      <point x="161" y="27"/>
      <point x="152" y="32"/>
      <point x="152" y="38" type="curve" smooth="yes"/>
      <point x="152" y="45"/>
      <point x="157" y="56"/>
      <point x="165" y="70" type="curve" smooth="yes"/>
      <point x="205" y="140"/>
      <point x="279" y="249"/>
      <point x="306" y="283" type="curve"/>
      <point x="350" y="226"/>
      <point x="406" y="143"/>
      <point x="449" y="82" type="curve" smooth="yes"/>
      <point x="469" y="54"/>
      <point x="471" y="44"/>
      <point x="471" y="38" type="curve" smooth="yes"/>
      <point x="471" y="31"/>
      <point x="460" y="27"/>
      <point x="437" y="25" type="curve" smooth="yes"/>
      <point x="408" y="22" type="line"/>
      <point x="403" y="16"/>
      <point x="404" y="3"/>
      <point x="410" y="-3" type="curve"/>
      <point x="446" y="-1"/>
      <point x="494" y="0"/>
      <point x="539" y="0" type="curve" smooth="yes"/>
      <point x="580" y="0"/>
      <point x="619" y="-1"/>
      <point x="665" y="-3" type="curve"/>
      <point x="672" y="2"/>
      <point x="673" y="16"/>
      <point x="666" y="22" type="curve"/>
    </contour>
  </outline>
</glyph>
<glyph name="f" format="1">
  <advance width="290"/>
  <unicode hex="0066"/>
  <outline>
    <contour>
      <point x="293" y="352" type="line" name="hr00"/>
      <point x="304" y="356"/>
      <point x="311" y="384"/>
      <point x="300" y="394" type="curve"/>
      <point x="186" y="394" type="line" smooth="yes"/>
      <point x="169" y="394"/>
      <point x="169" y="395"/>
      <point x="169" y="422" type="curve" smooth="yes"/>
      <point x="169" y="451" type="line" smooth="yes"/>
      <point x="169" y="501"/>
      <point x="173" y="574"/>
      <point x="191" y="620" type="curve" smooth="yes"/>
      <point x="206" y="656"/>
      <point x="231" y="675"/>
      <point x="262" y="675" type="curve" smooth="yes"/>
      <point x="295" y="675"/>
      <point x="323" y="653"/>
      <point x="342" y="631" type="curve" smooth="yes"/>
      <point x="349" y="623"/>
      <point x="355" y="619"/>
      <point x="366" y="619" type="curve" smooth="yes"/>
      <point x="385" y="619"/>
      <point x="404" y="635"/>
      <point x="404" y="655" type="curve" smooth="yes"/>
      <point x="404" y="691"/>
      <point x="359" y="715"/>
      <point x="306" y="715" type="curve" smooth="yes"/>
      <point x="207" y="715"/>
      <point x="151" y="645"/>
      <point x="126" y="588" type="curve" smooth="yes"/>
      <point x="102" y="532"/>
      <point x="95" y="470"/>
      <point x="95" y="412" type="curve" smooth="yes"/>
      <point x="95" y="402"/>
      <point x="88" y="396"/>
      <point x="80" y="392" type="curve" smooth="yes"/>
      <point x="37" y="371" type="line"/>
      <point x="33" y="365"/>
      <point x="34" y="356"/>
      <point x="40" y="352" type="curve"/>
      <point x="75" y="352" type="line" smooth="yes"/>
      <point x="95" y="352"/>
      <point x="95" y="350"/>
      <point x="95" y="323" type="curve" smooth="yes"/>
      <point x="95" y="112" type="line" smooth="yes"/>
      <point x="95" y="40"/>
      <point x="94" y="30"/>
      <point x="57" y="25" type="curve" smooth="yes"/>
      <point x="34" y="22" type="line"/>
      <point x="27" y="17"/>
      <point x="29" y="0"/>
      <point x="36" y="-3" type="curve"/>
      <point x="66" y="-1"/>
      <point x="96" y="0"/>
      <point x="132" y="0" type="curve" smooth="yes"/>
      <point x="167" y="0"/>
      <point x="196" y="-1"/>
      <point x="241" y="-3" type="curve"/>
      <point x="248" y="0"/>
      <point x="250" y="17"/>
      <point x="243" y="22" type="curve"/>
      <point x="207" y="25" type="line" smooth="yes"/>
      <point x="171" y="28"/>
      <point x="169" y="40"/>
      <point x="169" y="112" type="curve" smooth="yes"/>
      <point x="169" y="323" type="line" smooth="yes"/>
      <point x="169" y="350"/>
      <point x="169" y="352"/>
      <point x="186" y="352" type="curve" smooth="yes"/>
    </contour>
  </outline>
</glyph>
<glyph name="h" format="1">
  <advance width="515"/>
  <unicode hex="0068"/>
  <outline>
    <contour>
      <point x="88" y="112" type="line" smooth="yes" name="hr00"/>
      <point x="88" y="40"/>
      <point x="87" y="29"/>
      <point x="50" y="25" type="curve" smooth="yes"/>
      <point x="25" y="22" type="line"/>
      <point x="18" y="17"/>
      <point x="20" y="0"/>
      <point x="27" y="-3" type="curve"/>
      <point x="59" y="-1"/>
      <point x="89" y="0"/>
      <point x="125" y="0" type="curve" smooth="yes"/>
      <point x="160" y="0"/>
      <point x="189" y="-1"/>
      <point x="219" y="-3" type="curve"/>
      <point x="226" y="0"/>
      <point x="228" y="18"/>
      <point x="221" y="22" type="curve"/>
      <point x="200" y="25" type="line" smooth="yes"/>
      <point x="164" y="30"/>
      <point x="162" y="40"/>
      <point x="162" y="112" type="curve" smooth="yes"/>
      <point x="162" y="280" type="line" smooth="yes"/>
      <point x="162" y="315"/>
      <point x="165" y="320"/>
      <point x="183" y="335" type="curve" smooth="yes"/>
      <point x="201" y="350"/>
      <point x="227" y="362"/>
      <point x="261" y="362" type="curve" smooth="yes"/>
      <point x="325" y="362"/>
      <point x="356" y="319"/>
      <point x="356" y="255" type="curve" smooth="yes"/>
      <point x="356" y="112" type="line" smooth="yes"/>
      <point x="356" y="40"/>
      <point x="355" y="31"/>
      <point x="318" y="25" type="curve" smooth="yes"/>
      <point x="298" y="22" type="line"/>
      <point x="291" y="17"/>
      <point x="293" y="0"/>
      <point x="300" y="-3" type="curve"/>
      <point x="327" y="-1"/>
      <point x="357" y="0"/>
      <point x="393" y="0" type="curve" smooth="yes"/>
      <point x="428" y="0"/>
      <point x="457" y="-1"/>
      <point x="493" y="-3" type="curve"/>
      <point x="500" y="0"/>
      <point x="502" y="17"/>
      <point x="495" y="22" type="curve"/>
      <point x="468" y="25" type="line" smooth="yes"/>
      <point x="432" y="29"/>
      <point x="430" y="40"/>
      <point x="430" y="112" type="curve" smooth="yes"/>
      <point x="430" y="279" type="line" smooth="yes"/>
      <point x="430" y="349"/>
      <point x="396" y="408"/>
      <point x="301" y="408" type="curve" smooth="yes"/>
      <point x="250" y="408"/>
      <point x="202" y="384"/>
      <point x="166" y="356" type="curve"/>
      <point x="163" y="358"/>
      <point x="162" y="366"/>
      <point x="162" y="375" type="curve" smooth="yes"/>
      <point x="162" y="585" type="line" smooth="yes"/>
      <point x="162" y="629"/>
      <point x="164" y="679"/>
      <point x="165" y="709" type="curve"/>
      <point x="163" y="713"/>
      <point x="159" y="715"/>
      <point x="155" y="715" type="curve"/>
      <point x="119" y="696"/>
      <point x="72" y="681"/>
      <point x="47" y="673" type="curve"/>
      <point x="42" y="670"/>
      <point x="42" y="656"/>
      <point x="47" y="653" type="curve" smooth="yes"/>
      <point x="57" y="647" type="line" smooth="yes"/>
      <point x="87" y="629"/>
      <point x="88" y="623"/>
      <point x="88" y="564" type="curve" smooth="yes"/>
    </contour>
  </outline>
</glyph>
<glyph name="m" format="1">
  <advance width="787"/>
  <unicode hex="006D"/>
  <outline>
    <contour>
      <point x="628" y="112" type="line" smooth="yes" name="hr00"/>
      <point x="628" y="40"/>
      <point x="627" y="31"/>
      <point x="590" y="25" type="curve" smooth="yes"/>
      <point x="572" y="22" type="line"/>
      <point x="565" y="17"/>
      <point x="567" y="0"/>
      <point x="574" y="-3" type="curve"/>
      <point x="602" y="-1"/>
      <point x="629" y="0"/>
      <point x="665" y="0" type="curve" smooth="yes"/>
      <point x="700" y="0"/>
      <point x="729" y="-1"/>
      <point x="762" y="-3" type="curve"/>
      <point x="769" y="0"/>
      <point x="771" y="17"/>
      <point x="764" y="22" type="curve"/>
      <point x="740" y="25" type="line" smooth="yes"/>
      <point x="704" y="30"/>
      <point x="702" y="40"/>
      <point x="702" y="112" type="curve" smooth="yes"/>
      <point x="702" y="284" type="line" smooth="yes"/>
      <point x="702" y="353"/>
      <point x="663" y="408"/>
      <point x="583" y="408" type="curve" smooth="yes"/>
      <point x="536" y="408"/>
      <point x="487" y="385"/>
      <point x="447" y="357" type="curve" smooth="yes"/>
      <point x="438" y="351"/>
      <point x="431" y="347"/>
      <point x="422" y="349" type="curve"/>
      <point x="394" y="390"/>
      <point x="366" y="408"/>
      <point x="316" y="408" type="curve" smooth="yes"/>
      <point x="268" y="408"/>
      <point x="221" y="384"/>
      <point x="183" y="357" type="curve"/>
      <point x="176" y="357"/>
      <point x="172" y="362"/>
      <point x="172" y="368" type="curve" smooth="yes"/>
      <point x="172" y="377"/>
      <point x="172" y="392"/>
      <point x="174" y="415" type="curve"/>
      <point x="172" y="420"/>
      <point x="167" y="422"/>
      <point x="163" y="422" type="curve"/>
      <point x="143" y="407"/>
      <point x="86" y="381"/>
      <point x="63" y="373" type="curve"/>
      <point x="58" y="370"/>
      <point x="58" y="359"/>
      <point x="62" y="355" type="curve"/>
      <point x="71" y="349" type="line" smooth="yes"/>
      <point x="98" y="331"/>
      <point x="98" y="326"/>
      <point x="98" y="287" type="curve" smooth="yes"/>
      <point x="98" y="112" type="line" smooth="yes"/>
      <point x="98" y="40"/>
      <point x="97" y="30"/>
      <point x="60" y="25" type="curve" smooth="yes"/>
      <point x="36" y="22" type="line"/>
      <point x="29" y="17"/>
      <point x="31" y="0"/>
      <point x="38" y="-3" type="curve"/>
      <point x="69" y="-1"/>
      <point x="99" y="0"/>
      <point x="135" y="0" type="curve" smooth="yes"/>
      <point x="170" y="0"/>
      <point x="199" y="-1"/>
      <point x="226" y="-3" type="curve"/>
      <point x="233" y="0"/>
      <point x="235" y="17"/>
      <point x="228" y="22" type="curve"/>
      <point x="210" y="25" type="line" smooth="yes"/>
      <point x="174" y="31"/>
      <point x="172" y="40"/>
      <point x="172" y="112" type="curve" smooth="yes"/>
      <point x="172" y="267" type="line" smooth="yes"/>
      <point x="172" y="299"/>
      <point x="177" y="312"/>
      <point x="187" y="324" type="curve" smooth="yes"/>
      <point x="202" y="342"/>
      <point x="230" y="360"/>
      <point x="271" y="360" type="curve" smooth="yes"/>
      <point x="333" y="360"/>
      <point x="363" y="324"/>
      <point x="363" y="257" type="curve" smooth="yes"/>
      <point x="363" y="112" type="line" smooth="yes"/>
      <point x="363" y="40"/>
      <point x="362" y="31"/>
      <point x="325" y="25" type="curve" smooth="yes"/>
      <point x="307" y="22" type="line"/>
      <point x="300" y="17"/>
      <point x="302" y="0"/>
      <point x="309" y="-3" type="curve"/>
      <point x="337" y="-1"/>
      <point x="364" y="0"/>
      <point x="400" y="0" type="curve" smooth="yes"/>
      <point x="435" y="0"/>
      <point x="464" y="-1"/>
      <point x="494" y="-3" type="curve"/>
      <point x="501" y="0"/>
      <point x="503" y="17"/>
      <point x="496" y="22" type="curve"/>
      <point x="475" y="25" type="line" smooth="yes"/>
      <point x="439" y="30"/>
      <point x="437" y="40"/>
      <point x="437" y="112" type="curve" smooth="yes"/>
      <point x="437" y="265" type="line" smooth="yes"/>
      <point x="437" y="300"/>
      <point x="440" y="310"/>
      <point x="452" y="325" type="curve" smooth="yes"/>
      <point x="466" y="343"/>
      <point x="497" y="360"/>
      <point x="535" y="360" type="curve" smooth="yes"/>
      <point x="598" y="360"/>
      <point x="628" y="325"/>
      <point x="628" y="257" type="curve" smooth="yes"/>
    </contour>
  </outline>
</glyph>
<glyph name="o" format="1">
  <advance width="486"/>
  <unicode hex="006F"/>
  <outline>
    <contour>
      <point x="248" y="408" type="curve" smooth="yes" name="hr00"/>
      <point x="130" y="408"/>
      <point x="35" y="318"/>
      <point x="35" y="192" type="curve" smooth="yes"/>
      <point x="35" y="67"/>
      <point x="125" y="-14"/>
      <point x="240" y="-14" type="curve" smooth="yes"/>
      <point x="365" y="-14"/>
      <point x="451" y="76"/>
      <point x="451" y="201" type="curve" smooth="yes"/>
      <point x="451" y="324"/>
      <point x="360" y="408"/>
    </contour>
    <contour>
      <point x="365" y="185" type="curve" smooth="yes"/>
      <point x="365" y="108"/>
      <point x="338" y="16"/>
      <point x="250" y="16" type="curve" smooth="yes"/>
      <point x="162" y="16"/>
      <point x="121" y="114"/>
      <point x="121" y="205" type="curve" smooth="yes"/>
      <point x="121" y="315"/>
      <point x="170" y="378"/>
      <point x="236" y="378" type="curve" smooth="yes"/>
      <point x="331" y="378"/>
      <point x="365" y="270"/>
    </contour>
  </outline>
</glyph>
<glyph name="p" format="1">
  <advance width="507"/>
  <unicode hex="0070"/>
  <outline>
    <contour>
      <point x="85" y="-143" type="line" smooth="yes" name="hr01"/>
      <point x="85" y="-215"/>
      <point x="84" y="-225"/>
      <point x="47" y="-230" type="curve" smooth="yes"/>
      <point x="26" y="-233" type="line"/>
      <point x="19" y="-238"/>
      <point x="21" y="-255"/>
      <point x="28" y="-258" type="curve"/>
      <point x="56" y="-256"/>
      <point x="86" y="-255"/>
      <point x="122" y="-255" type="curve" smooth="yes"/>
      <point x="157" y="-255"/>
      <point x="186" y="-256"/>
      <point x="234" y="-258" type="curve"/>
      <point x="241" y="-255"/>
      <point x="243" y="-238"/>
      <point x="236" y="-233" type="curve"/>
      <point x="197" y="-228" type="line" smooth="yes"/>
      <point x="161" y="-223"/>
      <point x="159" y="-214"/>
      <point x="159" y="-143" type="curve" smooth="yes"/>
      <point x="159" y="-38" type="line" smooth="yes" name="hr02"/>
      <point x="159" y="-17"/>
      <point x="164" y="-12"/>
      <point x="173" y="-10" type="curve"/>
      <point x="182" y="-12"/>
      <point x="210" y="-14"/>
      <point x="228" y="-14" type="curve" smooth="yes" name="hr03"/>
      <point x="370" y="-14"/>
      <point x="472" y="86"/>
      <point x="472" y="225" type="curve" smooth="yes"/>
      <point x="472" y="326"/>
      <point x="407" y="408"/>
      <point x="306" y="408" type="curve" smooth="yes"/>
      <point x="242" y="408"/>
      <point x="179" y="367"/>
      <point x="166" y="361" type="curve"/>
      <point x="159" y="361"/>
      <point x="157" y="367"/>
      <point x="157" y="374" type="curve" smooth="yes"/>
      <point x="157" y="387"/>
      <point x="159" y="402"/>
      <point x="161" y="420" type="curve"/>
      <point x="159" y="425"/>
      <point x="155" y="427"/>
      <point x="149" y="427" type="curve"/>
      <point x="123" y="408"/>
      <point x="76" y="384"/>
      <point x="50" y="373" type="curve"/>
      <point x="45" y="370"/>
      <point x="45" y="359"/>
      <point x="49" y="355" type="curve"/>
      <point x="58" y="349" type="line" smooth="yes"/>
      <point x="85" y="331"/>
      <point x="85" y="326"/>
      <point x="85" y="287" type="curve" smooth="yes"/>
    </contour>
    <contour>
      <point x="159" y="273" type="line" smooth="yes"/>
      <point x="159" y="306"/>
      <point x="162" y="321"/>
      <point x="171" y="332" type="curve" smooth="yes"/>
      <point x="182" y="344"/>
      <point x="213" y="360"/>
      <point x="256" y="360" type="curve" smooth="yes"/>
      <point x="346" y="360"/>
      <point x="391" y="279"/>
      <point x="391" y="199" type="curve" smooth="yes"/>
      <point x="391" y="95"/>
      <point x="343" y="19"/>
      <point x="261" y="19" type="curve" smooth="yes"/>
      <point x="240" y="19"/>
      <point x="209" y="26"/>
      <point x="189" y="41" type="curve" smooth="yes"/>
      <point x="169" y="57"/>
      <point x="159" y="69"/>
      <point x="159" y="101" type="curve" smooth="yes"/>
    </contour>
  </outline>
</glyph>
<glyph name="w" format="1">
  <advance width="660"/>
  <unicode hex="0077"/>
  <outline>
    <contour>
      <point x="167" y="71" type="line" smooth="yes" name="hr00"/>
      <point x="175" y="50"/>
      <point x="191" y="9"/>
      <point x="197" y="-12" type="curve"/>
      <point x="200" y="-15"/>
      <point x="205" y="-16"/>
      <point x="209" y="-16" type="curve" smooth="yes"/>
      <point x="214" y="-16"/>
      <point x="218" y="-15"/>
      <point x="221" y="-12" type="curve"/>
      <point x="229" y="11"/>
      <point x="243" y="47"/>
      <point x="261" y="90" type="curve" smooth="yes"/>
      <point x="313" y="215" type="line" smooth="yes"/>
      <point x="320" y="233"/>
      <point x="334" y="264"/>
      <point x="335" y="264" type="curve" smooth="yes"/>
      <point x="336" y="264"/>
      <point x="351" y="231"/>
      <point x="358" y="213" type="curve" smooth="yes"/>
      <point x="406" y="98" type="line" smooth="yes"/>
      <point x="423" y="58"/>
      <point x="441" y="6"/>
      <point x="447" y="-12" type="curve"/>
      <point x="450" y="-15"/>
      <point x="454" y="-16"/>
      <point x="458" y="-16" type="curve" smooth="yes"/>
      <point x="463" y="-16"/>
      <point x="467" y="-15"/>
      <point x="471" y="-12" type="curve"/>
      <point x="479" y="14"/>
      <point x="491" y="43"/>
      <point x="505" y="79" type="curve" smooth="yes"/>
      <point x="524" y="130"/>
      <point x="572" y="250"/>
      <point x="599" y="306" type="curve" smooth="yes"/>
      <point x="620" y="350"/>
      <point x="629" y="364"/>
      <point x="653" y="369" type="curve" smooth="yes"/>
      <point x="673" y="373" type="line"/>
      <point x="679" y="378"/>
      <point x="678" y="393"/>
      <point x="670" y="397" type="curve"/>
      <point x="648" y="395"/>
      <point x="624" y="394"/>
      <point x="605" y="394" type="curve" smooth="yes"/>
      <point x="580" y="394"/>
      <point x="555" y="395"/>
      <point x="526" y="397" type="curve"/>
      <point x="519" y="394"/>
      <point x="517" y="378"/>
      <point x="525" y="373" type="curve"/>
      <point x="550" y="369" type="line" smooth="yes"/>
      <point x="562" y="367"/>
      <point x="568" y="362"/>
      <point x="568" y="356" type="curve" smooth="yes"/>
      <point x="568" y="349"/>
      <point x="566" y="336"/>
      <point x="558" y="313" type="curve" smooth="yes"/>
      <point x="543" y="271"/>
      <point x="503" y="165"/>
      <point x="490" y="136" type="curve" smooth="yes"/>
      <point x="483" y="120"/>
      <point x="478" y="110"/>
      <point x="476" y="108" type="curve"/>
      <point x="473" y="110"/>
      <point x="469" y="121"/>
      <point x="463" y="136" type="curve" smooth="yes"/>
      <point x="452" y="163"/>
      <point x="398" y="290"/>
      <point x="387" y="323" type="curve" smooth="yes"/>
      <point x="375" y="358"/>
      <point x="373" y="361"/>
      <point x="413" y="369" type="curve" smooth="yes"/>
      <point x="434" y="373" type="line"/>
      <point x="440" y="378"/>
      <point x="440" y="394"/>
      <point x="431" y="397" type="curve"/>
      <point x="397" y="395"/>
      <point x="367" y="394"/>
      <point x="336" y="394" type="curve" smooth="yes"/>
      <point x="310" y="394"/>
      <point x="278" y="395"/>
      <point x="253" y="397" type="curve"/>
      <point x="245" y="394"/>
      <point x="243" y="379"/>
      <point x="250" y="373" type="curve"/>
      <point x="266" y="369" type="line" smooth="yes"/>
      <point x="288" y="364"/>
      <point x="303" y="356"/>
      <point x="312" y="334" type="curve" smooth="yes"/>
      <point x="317" y="321"/>
      <point x="316" y="308"/>
      <point x="303" y="276" type="curve" smooth="yes"/>
      <point x="254" y="155" type="line" smooth="yes"/>
      <point x="242" y="126"/>
      <point x="234" y="109"/>
      <point x="231" y="107" type="curve"/>
      <point x="231" y="109"/>
      <point x="222" y="127"/>
      <point x="213" y="150" type="curve" smooth="yes"/>
      <point x="151" y="303" type="line" smooth="yes"/>
      <point x="140" y="330"/>
      <point x="135" y="349"/>
      <point x="135" y="355" type="curve" smooth="yes"/>
      <point x="135" y="361"/>
      <point x="143" y="367"/>
      <point x="157" y="369" type="curve" smooth="yes"/>
      <point x="180" y="373" type="line"/>
      <point x="187" y="378"/>
      <point x="186" y="393"/>
      <point x="178" y="397" type="curve"/>
      <point x="151" y="395"/>
      <point x="122" y="394"/>
      <point x="91" y="394" type="curve" smooth="yes"/>
      <point x="61" y="394"/>
      <point x="33" y="395"/>
      <point x="2" y="397" type="curve"/>
      <point x="-7" y="393"/>
      <point x="-6" y="378"/>
      <point x="-1" y="373" type="curve"/>
      <point x="15" y="369" type="line" smooth="yes"/>
      <point x="40" y="363"/>
      <point x="52" y="353"/>
      <point x="75" y="297" type="curve" smooth="yes"/>
    </contour>
  </outline>
</glyph>
<glyph name="z" format="1">
  <advance width="377"/>
  <unicode hex="007A"/>
  <outline>
    <contour>
      <point x="226" y="0" type="line" smooth="yes" name="hr01"/>
      <point x="272" y="0"/>
      <point x="305" y="-1"/>
      <point x="338" y="-3" type="curve"/>
      <point x="351" y="16"/>
      <point x="366" y="63"/>
      <point x="375" y="112" type="curve"/>
      <point x="372" y="120"/>
      <point x="360" y="122"/>
      <point x="353" y="118" type="curve"/>
      <point x="342" y="93"/>
      <point x="332" y="72"/>
      <point x="321" y="60" type="curve" smooth="yes"/>
      <point x="293" y="30"/>
      <point x="242" y="30"/>
      <point x="203" y="30" type="curve" smooth="yes"/>
      <point x="169" y="30" type="line" smooth="yes"/>
      <point x="131" y="30"/>
      <point x="129" y="34"/>
      <point x="150" y="70" type="curve" smooth="yes"/>
      <point x="271" y="273" type="line" smooth="yes"/>
      <point x="300" y="321"/>
      <point x="324" y="358"/>
      <point x="345" y="387" type="curve" name="hr02"/>
      <point x="346" y="392"/>
      <point x="344" y="395"/>
      <point x="340" y="397" type="curve"/>
      <point x="325" y="394"/>
      <point x="306" y="394"/>
      <point x="279" y="394" type="curve" smooth="yes" name="hr03"/>
      <point x="137" y="394" type="line" smooth="yes"/>
      <point x="80" y="394"/>
      <point x="69" y="395"/>
      <point x="66" y="412" type="curve"/>
      <point x="63" y="414"/>
      <point x="57" y="414"/>
      <point x="54" y="412" type="curve"/>
      <point x="40" y="388"/>
      <point x="23" y="321"/>
      <point x="21" y="295" type="curve"/>
      <point x="24" y="287"/>
      <point x="39" y="285"/>
      <point x="44" y="291" type="curve"/>
      <point x="53" y="313"/>
      <point x="63" y="336"/>
      <point x="80" y="349" type="curve" smooth="yes"/>
      <point x="95" y="361"/>
      <point x="119" y="364"/>
      <point x="149" y="364" type="curve" smooth="yes"/>
      <point x="218" y="364" type="line" smooth="yes"/>
      <point x="236" y="364"/>
      <point x="243" y="362"/>
      <point x="227" y="334" type="curve" smooth="yes"/>
      <point x="121" y="154" type="line" smooth="yes"/>
      <point x="91" y="102"/>
      <point x="45" y="31"/>
      <point x="25" y="7" type="curve"/>
      <point x="25" y="3"/>
      <point x="27" y="-1"/>
      <point x="31" y="-3" type="curve"/>
      <point x="43" y="-1"/>
      <point x="82" y="0"/>
      <point x="136" y="0" type="curve" smooth="yes" name="hr04"/>
    </contour>
  </outline>
</glyph>
<glyph name="bar" format="1">
  <advance width="239"/>
  <unicode hex="007C"/>
  <outline>
    <contour>
      <point x="149" y="750" type="line" name="hr00"/>
      <point x="90" y="750" type="line"/>
      <point x="90" y="-250" type="line"/>
      <point x="149" y="-250" type="line"/>
    </contour>
  </outline>
</glyph>
<glyph name="asciitilde" format="1">
  <advance width="500"/>
  <unicode hex="007E"/>
  <outline>
    <contour>
      <point x="322" y="180" type="line" smooth="yes" name="hr00"/>
      <point x="344" y="180"/>
      <point x="361" y="184"/>
      <point x="378" y="199" type="curve" smooth="yes"/>
      <point x="400" y="219"/>
      <point x="418" y="266"/>
      <point x="424" y="281" type="curve"/>
      <point x="420" y="296"/>
      <point x="404" y="300"/>
      <point x="391" y="295" type="curve"/>
      <point x="366" y="245"/>
      <point x="354" y="230"/>
      <point x="302" y="230" type="curve" smooth="yes"/>
      <point x="178" y="230" type="line" smooth="yes"/>
      <point x="158" y="230"/>
      <point x="138" y="226"/>
      <point x="121" y="209" type="curve" smooth="yes"/>
      <point x="102" y="189"/>
      <point x="82" y="144"/>
      <point x="76" y="129" type="curve"/>
      <point x="80" y="114"/>
      <point x="96" y="110"/>
      <point x="109" y="115" type="curve"/>
      <point x="134" y="165"/>
      <point x="146" y="180"/>
      <point x="198" y="180" type="curve" smooth="yes"/>
    </contour>
  </outline>
</glyph>
<glyph name="exclamdown" format="1">
  <advance width="220"/>
  <unicode hex="00A1"/>
  <outline>
    <contour>
      <point x="110" y="-266" type="curve" smooth="yes" name="hr01"/>
      <point x="142" y="-266"/>
      <point x="159" y="-262"/>
      <point x="159" y="-237" type="curve" smooth="yes"/>
      <point x="159" y="-222"/>
      <point x="157" y="-201"/>
      <point x="152" y="-148" type="curve" smooth="yes"/>
      <point x="123" y="175" type="line"/>
      <point x="118" y="181"/>
      <point x="103" y="181"/>
      <point x="97" y="175" type="curve"/>
      <point x="68" y="-148" type="line" smooth="yes"/>
      <point x="63" y="-201"/>
      <point x="61" y="-222"/>
      <point x="61" y="-237" type="curve" smooth="yes"/>
      <point x="61" y="-262"/>
      <point x="78" y="-266"/>
    </contour>
    <contour>
      <point x="110" y="280" type="curve" smooth="yes" name="hr02"/>
      <point x="144" y="280"/>
      <point x="166" y="303"/>
      <point x="166" y="335" type="curve" smooth="yes"/>
      <point x="166" y="367"/>
      <point x="144" y="394"/>
      <point x="110" y="394" type="curve" smooth="yes"/>
      <point x="78" y="394"/>
      <point x="54" y="369"/>
      <point x="54" y="335" type="curve" smooth="yes"/>
      <point x="54" y="301"/>
      <point x="81" y="280"/>
    </contour>
  </outline>
</glyph>
<glyph name="section" format="1">
  <advance width="506"/>
  <unicode hex="00A7"/>
  <outline>
    <contour>
      <point x="185" y="-124" type="curve" smooth="yes" name="hr00"/>
      <point x="343" y="-124"/>
      <point x="456" y="32"/>
      <point x="456" y="155" type="curve" smooth="yes"/>
      <point x="456" y="243"/>
      <point x="416" y="311"/>
      <point x="333" y="388" type="curve" smooth="yes"/>
      <point x="226" y="486"/>
      <point x="191" y="525"/>
      <point x="191" y="575" type="curve" smooth="yes"/>
      <point x="191" y="612"/>
      <point x="218" y="635"/>
      <point x="250" y="635" type="curve" smooth="yes"/>
      <point x="271" y="635"/>
      <point x="301" y="627"/>
      <point x="332" y="606" type="curve" smooth="yes"/>
      <point x="340" y="600"/>
      <point x="346" y="598"/>
      <point x="360" y="598" type="curve" smooth="yes"/>
      <point x="379" y="598"/>
      <point x="393" y="616"/>
      <point x="393" y="630" type="curve" smooth="yes"/>
      <point x="393" y="648"/>
      <point x="372" y="676"/>
      <point x="316" y="676" type="curve" smooth="yes"/>
      <point x="173" y="676"/>
      <point x="50" y="533"/>
      <point x="50" y="414" type="curve" smooth="yes"/>
      <point x="50" y="310"/>
      <point x="109" y="243"/>
      <point x="180" y="172" type="curve" smooth="yes"/>
      <point x="236" y="116"/>
      <point x="319" y="39"/>
      <point x="319" y="-20" type="curve" smooth="yes"/>
      <point x="319" y="-60"/>
      <point x="280" y="-82"/>
      <point x="250" y="-82" type="curve" smooth="yes"/>
      <point x="226" y="-82"/>
      <point x="201" y="-77"/>
      <point x="165" y="-47" type="curve" smooth="yes"/>
      <point x="158" y="-41"/>
      <point x="152" y="-38"/>
      <point x="140" y="-38" type="curve" smooth="yes"/>
      <point x="118" y="-38"/>
      <point x="105" y="-56"/>
      <point x="105" y="-74" type="curve" smooth="yes"/>
      <point x="105" y="-103"/>
      <point x="138" y="-124"/>
    </contour>
    <contour>
      <point x="225" y="224" type="curve" smooth="yes"/>
      <point x="105" y="344"/>
      <point x="99" y="414"/>
      <point x="99" y="458" type="curve" smooth="yes"/>
      <point x="99" y="508"/>
      <point x="118" y="537"/>
      <point x="151" y="565" type="curve"/>
      <point x="151" y="483"/>
      <point x="178" y="440"/>
      <point x="285" y="338" type="curve" smooth="yes"/>
      <point x="363" y="264"/>
      <point x="407" y="202"/>
      <point x="407" y="111" type="curve" smooth="yes"/>
      <point x="407" y="70"/>
      <point x="399" y="31"/>
      <point x="359" y="-5" type="curve"/>
      <point x="359" y="76"/>
      <point x="324" y="124"/>
    </contour>
  </outline>
</glyph>
<glyph name="dieresis" format="1">
  <advance width="360"/>
  <unicode hex="00A8"/>
  <outline>
    <contour>
      <point x="93" y="512" type="curve" smooth="yes" name="hr00"/>
      <point x="122" y="512"/>
      <point x="143" y="534"/>
      <point x="143" y="565" type="curve" smooth="yes"/>
      <point x="143" y="589"/>
      <point x="122" y="613"/>
      <point x="93" y="613" type="curve" smooth="yes"/>
      <point x="64" y="613"/>
      <point x="43" y="590"/>
      <point x="44" y="561" type="curve" smooth="yes"/>
      <point x="45" y="530"/>
      <point x="65" y="512"/>
    </contour>
    <contour>
      <point x="268" y="512" type="curve" smooth="yes"/>
      <point x="297" y="512"/>
      <point x="316" y="535"/>
      <point x="316" y="566" type="curve" smooth="yes"/>
      <point x="316" y="589"/>
      <point x="297" y="613"/>
      <point x="268" y="613" type="curve" smooth="yes"/>
      <point x="239" y="613"/>
      <point x="217" y="590"/>
      <point x="217" y="562" type="curve" smooth="yes"/>
      <point x="218" y="531"/>
      <point x="240" y="512"/>
    </contour>
  </outline>
</glyph>
<glyph name="ordfeminine" format="1">
  <advance width="332"/>
  <unicode hex="00AA"/>
  <outline>
    <contour>
      <point x="201" y="428" type="line" smooth="yes" name="hr00"/>
      <point x="201" y="416"/>
      <point x="198" y="410"/>
      <point x="179" y="403" type="curve" smooth="yes"/>
      <point x="158" y="395"/>
      <point x="118" y="383"/>
      <point x="72" y="365" type="curve" smooth="yes"/>
      <point x="51" y="356"/>
      <point x="33" y="336"/>
      <point x="33" y="310" type="curve" smooth="yes"/>
      <point x="33" y="273"/>
      <point x="56" y="240"/>
      <point x="109" y="240" type="curve" smooth="yes"/>
      <point x="133" y="240"/>
      <point x="168" y="257"/>
      <point x="179" y="263" type="curve" smooth="yes"/>
      <point x="186" y="267"/>
      <point x="191" y="269"/>
      <point x="195" y="269" type="curve" smooth="yes"/>
      <point x="200" y="269"/>
      <point x="204" y="266"/>
      <point x="210" y="260" type="curve" smooth="yes"/>
      <point x="226" y="245"/>
      <point x="241" y="240"/>
      <point x="256" y="240" type="curve" smooth="yes"/>
      <point x="278" y="240"/>
      <point x="307" y="250"/>
      <point x="328" y="272" type="curve"/>
      <point x="332" y="278"/>
      <point x="328" y="286"/>
      <point x="320" y="286" type="curve"/>
      <point x="311" y="280"/>
      <point x="300" y="276"/>
      <point x="291" y="276" type="curve" smooth="yes"/>
      <point x="262" y="276"/>
      <point x="256" y="300"/>
      <point x="257" y="332" type="curve" smooth="yes"/>
      <point x="262" y="454" type="line" smooth="yes"/>
      <point x="264" y="504"/>
      <point x="247" y="540"/>
      <point x="180" y="540" type="curve" smooth="yes"/>
      <point x="138" y="540"/>
      <point x="91" y="516"/>
      <point x="65" y="495" type="curve" smooth="yes"/>
      <point x="42" y="477"/>
      <point x="35" y="460"/>
      <point x="35" y="449" type="curve" smooth="yes"/>
      <point x="35" y="441"/>
      <point x="41" y="436"/>
      <point x="49" y="436" type="curve" smooth="yes"/>
      <point x="57" y="436"/>
      <point x="84" y="446"/>
      <point x="94" y="453" type="curve" smooth="yes"/>
      <point x="101" y="459"/>
      <point x="102" y="473"/>
      <point x="103" y="479" type="curve" smooth="yes"/>
      <point x="107" y="501"/>
      <point x="127" y="510"/>
      <point x="148" y="510" type="curve" smooth="yes"/>
      <point x="195" y="510"/>
      <point x="201" y="476"/>
      <point x="201" y="440" type="curve" smooth="yes"/>
    </contour>
    <contour>
      <point x="196" y="316" type="line" smooth="yes"/>
      <point x="196" y="306"/>
      <point x="193" y="297"/>
      <point x="188" y="291" type="curve" smooth="yes"/>
      <point x="183" y="286"/>
      <point x="167" y="275"/>
      <point x="144" y="275" type="curve" smooth="yes"/>
      <point x="110" y="275"/>
      <point x="99" y="302"/>
      <point x="99" y="318" type="curve" smooth="yes"/>
      <point x="99" y="356"/>
      <point x="137" y="365"/>
      <point x="163" y="374" type="curve" smooth="yes"/>
      <point x="189" y="383"/>
      <point x="199" y="386"/>
      <point x="198" y="368" type="curve" smooth="yes"/>
    </contour>
  </outline>
</glyph>
<glyph name="guillemotleft" format="1">
  <advance width="378"/>
  <unicode hex="00AB"/>
  <outline>
    <contour>
      <point x="188" y="358" type="line" name="hr00"/>
      <point x="185" y="366"/>
      <point x="178" y="370"/>
      <point x="171" y="371" type="curve"/>
      <point x="132" y="321"/>
      <point x="94" y="271"/>
      <point x="52" y="221" type="curve" smooth="yes"/>
      <point x="42" y="210"/>
      <point x="43" y="201"/>
      <point x="52" y="190" type="curve" smooth="yes"/>
      <point x="94" y="140"/>
      <point x="132" y="89"/>
      <point x="171" y="39" type="curve"/>
      <point x="180" y="41"/>
      <point x="185" y="45"/>
      <point x="188" y="52" type="curve"/>
      <point x="118" y="194" type="line" smooth="yes"/>
      <point x="115" y="201"/>
      <point x="114" y="209"/>
      <point x="118" y="218" type="curve" smooth="yes"/>
    </contour>
    <contour>
      <point x="333" y="358" type="line"/>
      <point x="330" y="366"/>
      <point x="323" y="370"/>
      <point x="316" y="371" type="curve"/>
      <point x="277" y="321"/>
      <point x="239" y="271"/>
      <point x="197" y="221" type="curve" smooth="yes"/>
      <point x="187" y="210"/>
      <point x="188" y="201"/>
      <point x="197" y="190" type="curve" smooth="yes"/>
      <point x="239" y="140"/>
      <point x="277" y="89"/>
      <point x="316" y="39" type="curve"/>
      <point x="325" y="41"/>
      <point x="330" y="45"/>
      <point x="333" y="52" type="curve"/>
      <point x="263" y="194" type="line" smooth="yes"/>
      <point x="260" y="201"/>
      <point x="259" y="209"/>
      <point x="263" y="218" type="curve" smooth="yes"/>
    </contour>
  </outline>
</glyph>
<glyph name="plusminus" format="1">
  <advance width="500"/>
  <unicode hex="00B1"/>
  <outline>
    <contour>
      <point x="443" y="49" type="line" name="hr00"/>
      <point x="58" y="49" type="line"/>
      <point x="58" y="0" type="line"/>
      <point x="443" y="0" type="line"/>
    </contour>
    <contour>
      <point x="280" y="84" type="line"/>
      <point x="280" y="254" type="line"/>
      <point x="443" y="254" type="line"/>
      <point x="443" y="303" type="line"/>
      <point x="280" y="303" type="line"/>
      <point x="280" y="466" type="line"/>
      <point x="221" y="466" type="line"/>
      <point x="221" y="303" type="line"/>
      <point x="58" y="303" type="line"/>
      <point x="58" y="254" type="line"/>
      <point x="221" y="254" type="line"/>
      <point x="221" y="84" type="line"/>
    </contour>
  </outline>
</glyph>
<glyph name="uni00B5" format="1">
  <advance width="512"/>
  <unicode hex="00B5"/>
  <outline>
    <contour>
      <point x="159" y="280" type="line" smooth="yes" name="hr01"/>
      <point x="159" y="329"/>
      <point x="160" y="370"/>
      <point x="162" y="387" type="curve"/>
      <point x="161" y="391"/>
      <point x="158" y="393"/>
      <point x="152" y="394" type="curve"/>
      <point x="95" y="394" type="line" smooth="yes"/>
      <point x="86" y="394"/>
      <point x="85" y="386"/>
      <point x="85" y="378" type="curve" smooth="yes"/>
      <point x="85" y="14" type="line" smooth="yes"/>
      <point x="85" y="-50"/>
      <point x="80" y="-143"/>
      <point x="80" y="-207" type="curve" smooth="yes"/>
      <point x="80" y="-260"/>
      <point x="88" y="-269"/>
      <point x="102" y="-269" type="curve" smooth="yes"/>
      <point x="127" y="-269"/>
      <point x="171" y="-246"/>
      <point x="171" y="-221" type="curve" smooth="yes"/>
      <point x="171" y="-186"/>
      <point x="132" y="-128"/>
      <point x="132" y="-23" type="curve" smooth="yes"/>
      <point x="132" y="-6" type="line" smooth="yes"/>
      <point x="132" y="8"/>
      <point x="135" y="11"/>
      <point x="141" y="10" type="curve"/>
      <point x="150" y="3"/>
      <point x="175" y="-15"/>
      <point x="209" y="-15" type="curve" smooth="yes"/>
      <point x="258" y="-15"/>
      <point x="297" y="4"/>
      <point x="339" y="70" type="curve"/>
      <point x="345" y="70"/>
      <point x="347" y="72"/>
      <point x="348" y="63" type="curve" smooth="yes"/>
      <point x="351" y="19"/>
      <point x="372" y="-16"/>
      <point x="412" y="-16" type="curve" smooth="yes" name="hr02"/>
      <point x="447" y="-16"/>
      <point x="480" y="-5"/>
      <point x="501" y="38" type="curve"/>
      <point x="505" y="44"/>
      <point x="498" y="57"/>
      <point x="492" y="62" type="curve"/>
      <point x="474" y="37"/>
      <point x="457" y="37"/>
      <point x="445" y="37" type="curve" smooth="yes"/>
      <point x="426" y="37"/>
      <point x="422" y="66"/>
      <point x="422" y="97" type="curve" smooth="yes"/>
      <point x="422" y="314" type="line" smooth="yes"/>
      <point x="422" y="351"/>
      <point x="423" y="368"/>
      <point x="423" y="387" type="curve"/>
      <point x="422" y="391"/>
      <point x="419" y="393"/>
      <point x="414" y="394" type="curve"/>
      <point x="358" y="394" type="line" smooth="yes"/>
      <point x="350" y="394"/>
      <point x="348" y="391"/>
      <point x="348" y="381" type="curve" smooth="yes"/>
      <point x="348" y="163" type="line" smooth="yes"/>
      <point x="348" y="135"/>
      <point x="338" y="117"/>
      <point x="328" y="101" type="curve" smooth="yes" name="hr03"/>
      <point x="306" y="65"/>
      <point x="270" y="39"/>
      <point x="232" y="39" type="curve" smooth="yes"/>
      <point x="184" y="39"/>
      <point x="159" y="76"/>
      <point x="159" y="145" type="curve" smooth="yes"/>
    </contour>
  </outline>
</glyph>
<glyph name="threequarters" format="1">
  <advance width="780"/>
  <unicode hex="00BE"/>
  <outline>
    <contour>
      <point x="173" y="-14" type="curve" name="hr01"/>
      <point x="174" y="-29"/>
      <point x="183" y="-40"/>
      <point x="200" y="-40" type="curve"/>
      <point x="345" y="184"/>
      <point x="491" y="407"/>
      <point x="640" y="631" type="curve"/>
      <point x="633" y="647"/>
      <point x="621" y="654"/>
      <point x="609" y="654" type="curve"/>
      <point x="466" y="431"/>
      <point x="320" y="209"/>
    </contour>
    <contour>
      <point x="249" y="359" type="curve" smooth="yes"/>
      <point x="249" y="278"/>
      <point x="175" y="235"/>
      <point x="135" y="235" type="curve" smooth="yes"/>
      <point x="120" y="235"/>
      <point x="110" y="242"/>
      <point x="103" y="253" type="curve" smooth="yes"/>
      <point x="96" y="264"/>
      <point x="85" y="279"/>
      <point x="70" y="279" type="curve" smooth="yes"/>
      <point x="51" y="279"/>
      <point x="37" y="265"/>
      <point x="37" y="247" type="curve" smooth="yes"/>
      <point x="37" y="217"/>
      <point x="75" y="208"/>
      <point x="108" y="208" type="curve" smooth="yes"/>
      <point x="141" y="208"/>
      <point x="199" y="222"/>
      <point x="252" y="261" type="curve" smooth="yes"/>
      <point x="298" y="295"/>
      <point x="321" y="339"/>
      <point x="321" y="384" type="curve" smooth="yes"/>
      <point x="321" y="444"/>
      <point x="274" y="479"/>
      <point x="223" y="479" type="curve" smooth="yes"/>
      <point x="215" y="479"/>
      <point x="210" y="483"/>
      <point x="215" y="489" type="curve"/>
      <point x="273" y="516"/>
      <point x="288" y="540"/>
      <point x="288" y="569" type="curve" smooth="yes" name="hr02"/>
      <point x="288" y="606"/>
      <point x="250" y="640"/>
      <point x="192" y="640" type="curve" smooth="yes"/>
      <point x="136" y="640"/>
      <point x="88" y="609"/>
      <point x="63" y="559" type="curve"/>
      <point x="65" y="552"/>
      <point x="71" y="547"/>
      <point x="80" y="548" type="curve"/>
      <point x="103" y="585"/>
      <point x="133" y="606"/>
      <point x="165" y="606" type="curve" smooth="yes"/>
      <point x="193" y="606"/>
      <point x="218" y="588"/>
      <point x="218" y="553" type="curve" smooth="yes"/>
      <point x="218" y="527"/>
      <point x="203" y="508"/>
      <point x="187" y="497" type="curve" smooth="yes"/>
      <point x="160" y="479"/>
      <point x="105" y="456"/>
      <point x="81" y="446" type="curve"/>
      <point x="77" y="433"/>
      <point x="84" y="424"/>
      <point x="94" y="419" type="curve"/>
      <point x="110" y="434"/>
      <point x="134" y="448"/>
      <point x="166" y="448" type="curve" smooth="yes" name="hr03"/>
      <point x="226" y="448"/>
      <point x="249" y="403"/>
    </contour>
    <contour>
      <point x="495" y="145" type="line" smooth="yes" name="hr05"/>
      <point x="476" y="145"/>
      <point x="467" y="145"/>
      <point x="477" y="157" type="curve" smooth="yes"/>
      <point x="683" y="421" type="line" smooth="yes"/>
      <point x="684" y="423"/>
      <point x="685" y="425"/>
      <point x="685" y="427" type="curve" smooth="yes"/>
      <point x="685" y="431"/>
      <point x="675" y="432"/>
      <point x="663" y="432" type="curve" smooth="yes"/>
      <point x="653" y="432"/>
      <point x="649" y="429"/>
      <point x="642" y="420" type="curve" smooth="yes"/>
      <point x="429" y="146" type="line" smooth="yes"/>
      <point x="422" y="137"/>
      <point x="420" y="133"/>
      <point x="420" y="126" type="curve" smooth="yes"/>
      <point x="420" y="120"/>
      <point x="424" y="116"/>
      <point x="429" y="116" type="curve" smooth="yes"/>
      <point x="584" y="116" type="line" smooth="yes"/>
      <point x="602" y="116"/>
      <point x="603" y="113"/>
      <point x="603" y="98" type="curve" smooth="yes"/>
      <point x="603" y="86" type="line" smooth="yes"/>
      <point x="603" y="32"/>
      <point x="603" y="26"/>
      <point x="562" y="21" type="curve" smooth="yes"/>
      <point x="544" y="19" type="line"/>
      <point x="539" y="13"/>
      <point x="540" y="1"/>
      <point x="546" y="-2" type="curve"/>
      <point x="559" y="-1"/>
      <point x="598" y="0"/>
      <point x="635" y="0" type="curve" smooth="yes"/>
      <point x="677" y="0"/>
      <point x="700" y="-1"/>
      <point x="721" y="-2" type="curve"/>
      <point x="727" y="1"/>
      <point x="727" y="13"/>
      <point x="723" y="19" type="curve"/>
      <point x="705" y="21" type="line" smooth="yes"/>
      <point x="665" y="25"/>
      <point x="666" y="30"/>
      <point x="666" y="86" type="curve" smooth="yes"/>
      <point x="666" y="100" type="line" smooth="yes"/>
      <point x="666" y="114"/>
      <point x="667" y="116"/>
      <point x="685" y="116" type="curve" smooth="yes"/>
      <point x="718" y="116" type="line"/>
      <point x="726" y="122"/>
      <point x="726" y="140"/>
      <point x="718" y="145" type="curve"/>
      <point x="681" y="145" type="line" smooth="yes"/>
      <point x="668" y="145"/>
      <point x="666" y="147"/>
      <point x="666" y="159" type="curve" smooth="yes"/>
      <point x="666" y="274" type="line" smooth="yes"/>
      <point x="666" y="286"/>
      <point x="666" y="293"/>
      <point x="655" y="293" type="curve" smooth="yes"/>
      <point x="640" y="293"/>
      <point x="618" y="287"/>
      <point x="609" y="282" type="curve" smooth="yes"/>
      <point x="604" y="279"/>
      <point x="603" y="274"/>
      <point x="603" y="270" type="curve" smooth="yes"/>
      <point x="603" y="161" type="line" smooth="yes"/>
      <point x="603" y="147"/>
      <point x="601" y="145"/>
      <point x="585" y="145" type="curve" smooth="yes"/>
    </contour>
  </outline>
</glyph>
<glyph name="Agrave" format="1">
  <advance width="623"/>
  <unicode hex="00C0"/>
  <outline>
    <contour>
      <point x="451" y="96" type="line" smooth="yes" name="hr00"/>
      <point x="459" y="72"/>
      <point x="464" y="54"/>
      <point x="464" y="43" type="curve" smooth="yes"/>
      <point x="464" y="33"/>
      <point x="450" y="27"/>
      <point x="429" y="25" type="curve" smooth="yes"/>
      <point x="400" y="22" type="line"/>
      <point x="393" y="17"/>
      <point x="394" y="1"/>
      <point x="402" y="-3" type="curve"/>
      <point x="431" y="-2"/>
      <point x="469" y="0"/>
      <point x="517" y="0" type="curve" smooth="yes"/>
      <point x="562" y="0"/>
      <point x="597" y="-1"/>
      <point x="638" y="-3" type="curve"/>
      <point x="643" y="1"/>
      <point x="645" y="17"/>
      <point x="638" y="22" type="curve"/>
      <point x="611" y="25" type="line" smooth="yes"/>
      <point x="568" y="30"/>
      <point x="555" y="45"/>
      <point x="526" y="131" type="curve" smooth="yes"/>
      <point x="389" y="533" type="line" smooth="yes"/>
      <point x="374" y="577"/>
      <point x="358" y="623"/>
      <point x="345" y="667" type="curve" smooth="yes"/>
      <point x="343" y="674"/>
      <point x="336" y="676"/>
      <point x="330" y="676" type="curve"/>
      <point x="319" y="663"/>
      <point x="302" y="645"/>
      <point x="278" y="638" type="curve"/>
      <point x="281" y="622"/>
      <point x="275" y="603"/>
      <point x="261" y="567" type="curve" smooth="yes"/>
      <point x="159" y="297" type="line" smooth="yes"/>
      <point x="117" y="185"/>
      <point x="89" y="120"/>
      <point x="71" y="74" type="curve" smooth="yes"/>
      <point x="57" y="38"/>
      <point x="35" y="27"/>
      <point x="11" y="25" type="curve" smooth="yes"/>
      <point x="-22" y="22" type="line"/>
      <point x="-28" y="17"/>
      <point x="-26" y="1"/>
      <point x="-20" y="-3" type="curve"/>
      <point x="7" y="-2"/>
      <point x="43" y="0"/>
      <point x="76" y="0" type="curve" smooth="yes"/>
      <point x="123" y="-1"/>
      <point x="154" y="-1"/>
      <point x="180" y="-3" type="curve"/>
      <point x="189" y="1"/>
      <point x="189" y="17"/>
      <point x="182" y="22" type="curve"/>
      <point x="149" y="25" type="line" smooth="yes"/>
      <point x="125" y="27"/>
      <point x="120" y="33"/>
      <point x="120" y="45" type="curve" smooth="yes"/>
      <point x="120" y="56"/>
      <point x="127" y="83"/>
      <point x="142" y="128" type="curve" smooth="yes"/>
      <point x="177" y="233" type="line" smooth="yes"/>
      <point x="184" y="254"/>
      <point x="190" y="257"/>
      <point x="215" y="257" type="curve" smooth="yes"/>
      <point x="366" y="257" type="line" smooth="yes"/>
      <point x="396" y="257"/>
      <point x="400" y="254"/>
      <point x="407" y="232" type="curve" smooth="yes"/>
    </contour>
    <contour>
      <point x="272" y="495" type="line" smooth="yes"/>
      <point x="283" y="525"/>
      <point x="293" y="549"/>
      <point x="296" y="554" type="curve"/>
      <point x="298" y="554" type="line"/>
      <point x="304" y="542"/>
      <point x="313" y="515"/>
      <point x="321" y="491" type="curve" smooth="yes"/>
      <point x="375" y="328" type="line" smooth="yes"/>
      <point x="384" y="301"/>
      <point x="382" y="297"/>
      <point x="353" y="297" type="curve" smooth="yes"/>
      <point x="230" y="297" type="line" smooth="yes"/>
      <point x="202" y="297"/>
      <point x="201" y="298"/>
      <point x="209" y="321" type="curve" smooth="yes"/>
    </contour>
    <contour>
      <point x="359" y="706" type="line"/>
      <point x="366" y="708"/>
      <point x="372" y="719"/>
      <point x="369" y="730" type="curve"/>
      <point x="228" y="845" type="line"/>
      <point x="216" y="853"/>
      <point x="207" y="858"/>
      <point x="201" y="858" type="curve" smooth="yes"/>
      <point x="194" y="858"/>
      <point x="186" y="851"/>
      <point x="175" y="834" type="curve" smooth="yes"/>
      <point x="163" y="816"/>
      <point x="163" y="802"/>
      <point x="167" y="794" type="curve" smooth="yes"/>
      <point x="170" y="789"/>
      <point x="178" y="784"/>
      <point x="192" y="778" type="curve" smooth="yes"/>
    </contour>
  </outline>
</glyph>
<glyph name="Aacute" format="1">
  <advance width="623"/>
  <unicode hex="00C1"/>
  <outline>
    <contour>
      <point x="451" y="96" type="line" smooth="yes" name="hr00"/>
      <point x="459" y="72"/>
      <point x="464" y="54"/>
      <point x="464" y="43" type="curve" smooth="yes"/>
      <point x="464" y="33"/>
      <point x="450" y="27"/>
      <point x="429" y="25" type="curve" smooth="yes"/>
      <point x="400" y="22" type="line"/>
      <point x="393" y="17"/>
      <point x="394" y="1"/>
      <point x="402" y="-3" type="curve"/>
      <point x="431" y="-2"/>
      <point x="469" y="0"/>
      <point x="517" y="0" type="curve" smooth="yes"/>
      <point x="562" y="0"/>
      <point x="597" y="-1"/>
      <point x="638" y="-3" type="curve"/>
      <point x="643" y="1"/>
      <point x="645" y="17"/>
      <point x="638" y="22" type="curve"/>
      <point x="611" y="25" type="line" smooth="yes"/>
      <point x="568" y="30"/>
      <point x="555" y="45"/>
      <point x="526" y="131" type="curve" smooth="yes"/>
      <point x="389" y="533" type="line" smooth="yes"/>
      <point x="374" y="577"/>
      <point x="358" y="623"/>
      <point x="345" y="667" type="curve" smooth="yes"/>
      <point x="343" y="674"/>
      <point x="336" y="676"/>
      <point x="330" y="676" type="curve"/>
      <point x="319" y="663"/>
      <point x="302" y="645"/>
      <point x="278" y="638" type="curve"/>
      <point x="281" y="622"/>
      <point x="275" y="603"/>
      <point x="261" y="567" type="curve" smooth="yes"/>
      <point x="159" y="297" type="line" smooth="yes"/>
      <point x="117" y="185"/>
      <point x="89" y="120"/>
      <point x="71" y="74" type="curve" smooth="yes"/>
      <point x="57" y="38"/>
      <point x="35" y="27"/>
      <point x="11" y="25" type="curve" smooth="yes"/>
      <point x="-22" y="22" type="line"/>
      <point x="-28" y="17"/>
      <point x="-26" y="1"/>
      <point x="-20" y="-3" type="curve"/>
      <point x="7" y="-2"/>
      <point x="43" y="0"/>
      <point x="76" y="0" type="curve" smooth="yes"/>
      <point x="123" y="-1"/>
      <point x="154" y="-1"/>
      <point x="180" y="-3" type="curve"/>
      <point x="189" y="1"/>
      <point x="189" y="17"/>
      <point x="182" y="22" type="curve"/>
      <point x="149" y="25" type="line" smooth="yes"/>
      <point x="125" y="27"/>
      <point x="120" y="33"/>
      <point x="120" y="45" type="curve" smooth="yes"/>
      <point x="120" y="56"/>
      <point x="127" y="83"/>
      <point x="142" y="128" type="curve" smooth="yes"/>
      <point x="177" y="233" type="line" smooth="yes"/>
      <point x="184" y="254"/>
      <point x="190" y="257"/>
      <point x="215" y="257" type="curve" smooth="yes"/>
      <point x="366" y="257" type="line" smooth="yes"/>
      <point x="396" y="257"/>
      <point x="400" y="254"/>
      <point x="407" y="232" type="curve" smooth="yes"/>
    </contour>
    <contour>
      <point x="272" y="495" type="line" smooth="yes"/>
      <point x="283" y="525"/>
      <point x="293" y="549"/>
      <point x="296" y="554" type="curve"/>
      <point x="298" y="554" type="line"/>
      <point x="304" y="542"/>
      <point x="313" y="515"/>
      <point x="321" y="491" type="curve" smooth="yes"/>
      <point x="375" y="328" type="line" smooth="yes"/>
      <point x="384" y="301"/>
      <point x="382" y="297"/>
      <point x="353" y="297" type="curve" smooth="yes"/>
      <point x="230" y="297" type="line" smooth="yes"/>
      <point x="202" y="297"/>
      <point x="201" y="298"/>
      <point x="209" y="321" type="curve" smooth="yes"/>
    </contour>
    <contour>
      <point x="433" y="773" type="line" smooth="yes"/>
      <point x="448" y="779"/>
      <point x="455" y="784"/>
      <point x="459" y="789" type="curve"/>
      <point x="462" y="797"/>
      <point x="462" y="811"/>
      <point x="452" y="830" type="curve" smooth="yes"/>
      <point x="444" y="846"/>
      <point x="431" y="853"/>
      <point x="424" y="853" type="curve" smooth="yes"/>
      <point x="418" y="853"/>
      <point x="409" y="848"/>
      <point x="397" y="840" type="curve"/>
      <point x="256" y="725" type="line"/>
      <point x="253" y="714"/>
      <point x="259" y="703"/>
      <point x="266" y="701" type="curve"/>
    </contour>
  </outline>
</glyph>
<glyph name="AE" format="1">
  <advance width="850"/>
  <unicode hex="00C6"/>
  <outline>
    <contour>
      <point x="363" y="660" type="line" smooth="yes" name="hr01"/>
      <point x="319" y="660"/>
      <point x="293" y="661"/>
      <point x="246" y="663" type="curve" name="hr02"/>
      <point x="238" y="660"/>
      <point x="236" y="644"/>
      <point x="243" y="638" type="curve"/>
      <point x="303" y="629" type="line" smooth="yes" name="hr03"/>
      <point x="317" y="627"/>
      <point x="325" y="625"/>
      <point x="325" y="617" type="curve" smooth="yes"/>
      <point x="325" y="607"/>
      <point x="316" y="588"/>
      <point x="301" y="560" type="curve" smooth="yes"/>
      <point x="246" y="453"/>
      <point x="151" y="269"/>
      <point x="58" y="99" type="curve" smooth="yes"/>
      <point x="27" y="43"/>
      <point x="12" y="31"/>
      <point x="-12" y="27" type="curve" smooth="yes"/>
      <point x="-43" y="22" type="line"/>
      <point x="-52" y="17"/>
      <point x="-50" y="1"/>
      <point x="-42" y="-3" type="curve"/>
      <point x="-3" y="-2"/>
      <point x="23" y="0"/>
      <point x="61" y="0" type="curve" smooth="yes"/>
      <point x="95" y="0"/>
      <point x="131" y="-1"/>
      <point x="171" y="-3" type="curve"/>
      <point x="177" y="1"/>
      <point x="178" y="15"/>
      <point x="172" y="22" type="curve"/>
      <point x="118" y="30" type="line" smooth="yes"/>
      <point x="93" y="34"/>
      <point x="92" y="42"/>
      <point x="103" y="70" type="curve" smooth="yes"/>
      <point x="127" y="131"/>
      <point x="160" y="200"/>
      <point x="204" y="282" type="curve" smooth="yes"/>
      <point x="227" y="324"/>
      <point x="226" y="326"/>
      <point x="269" y="326" type="curve" smooth="yes"/>
      <point x="351" y="326" type="line" smooth="yes"/>
      <point x="394" y="326"/>
      <point x="395" y="326"/>
      <point x="395" y="297" type="curve" smooth="yes"/>
      <point x="395" y="150" type="line" smooth="yes"/>
      <point x="395" y="45"/>
      <point x="390" y="30"/>
      <point x="334" y="25" type="curve" smooth="yes" name="hr04"/>
      <point x="300" y="22" type="line"/>
      <point x="294" y="16"/>
      <point x="296" y="0"/>
      <point x="302" y="-3" type="curve" name="hr05"/>
      <point x="361" y="-1"/>
      <point x="395" y="0"/>
      <point x="435" y="0" type="curve" smooth="yes" name="hr06"/>
      <point x="527" y="0" type="line" smooth="yes"/>
      <point x="617" y="0"/>
      <point x="705" y="-1"/>
      <point x="795" y="-3" type="curve"/>
      <point x="808" y="24"/>
      <point x="833" y="100"/>
      <point x="840" y="136" type="curve"/>
      <point x="836" y="145"/>
      <point x="821" y="148"/>
      <point x="815" y="143" type="curve"/>
      <point x="789" y="91"/>
      <point x="762" y="56"/>
      <point x="744" y="46" type="curve" smooth="yes"/>
      <point x="722" y="34"/>
      <point x="693" y="31"/>
      <point x="617" y="31" type="curve" smooth="yes"/>
      <point x="528" y="31"/>
      <point x="507" y="42"/>
      <point x="495" y="54" type="curve" smooth="yes"/>
      <point x="480" y="71"/>
      <point x="477" y="104"/>
      <point x="477" y="158" type="curve" smooth="yes"/>
      <point x="477" y="299" type="line" smooth="yes"/>
      <point x="477" y="325"/>
      <point x="480" y="326"/>
      <point x="510" y="326" type="curve" smooth="yes"/>
      <point x="568" y="326" type="line" smooth="yes"/>
      <point x="607" y="326"/>
      <point x="631" y="325"/>
      <point x="645" y="321" type="curve" smooth="yes"/>
      <point x="665" y="316"/>
      <point x="672" y="301"/>
      <point x="676" y="283" type="curve" smooth="yes"/>
      <point x="685" y="244" type="line"/>
      <point x="690" y="238"/>
      <point x="707" y="238"/>
      <point x="711" y="245" type="curve"/>
      <point x="711" y="267"/>
      <point x="707" y="305"/>
      <point x="707" y="341" type="curve" smooth="yes"/>
      <point x="707" y="379"/>
      <point x="711" y="418"/>
      <point x="711" y="442" type="curve"/>
      <point x="707" y="449"/>
      <point x="690" y="449"/>
      <point x="685" y="443" type="curve"/>
      <point x="677" y="402" type="line" smooth="yes"/>
      <point x="672" y="377"/>
      <point x="665" y="371"/>
      <point x="653" y="367" type="curve" smooth="yes"/>
      <point x="641" y="363"/>
      <point x="610" y="361"/>
      <point x="568" y="361" type="curve" smooth="yes"/>
      <point x="510" y="361" type="line" smooth="yes"/>
      <point x="480" y="361"/>
      <point x="477" y="361"/>
      <point x="477" y="389" type="curve" smooth="yes"/>
      <point x="477" y="589" type="line" smooth="yes"/>
      <point x="477" y="627"/>
      <point x="477" y="629"/>
      <point x="506" y="629" type="curve" smooth="yes"/>
      <point x="578" y="629" type="line" smooth="yes"/>
      <point x="622" y="629"/>
      <point x="654" y="629"/>
      <point x="675" y="624" type="curve" smooth="yes"/>
      <point x="727" y="612"/>
      <point x="736" y="575"/>
      <point x="751" y="528" type="curve"/>
      <point x="756" y="522"/>
      <point x="772" y="524"/>
      <point x="776" y="531" type="curve"/>
      <point x="772" y="574"/>
      <point x="766" y="646"/>
      <point x="760" y="663" type="curve" name="hr07"/>
      <point x="748" y="660"/>
      <point x="689" y="660"/>
      <point x="625" y="660" type="curve" smooth="yes" name="hr08"/>
    </contour>
    <contour>
      <point x="284" y="361" type="line" smooth="yes"/>
      <point x="245" y="361"/>
      <point x="245" y="362"/>
      <point x="255" y="383" type="curve" smooth="yes"/>
      <point x="270" y="414"/>
      <point x="313" y="502"/>
      <point x="361" y="593" type="curve" smooth="yes" name="hr09"/>
      <point x="367" y="604"/>
      <point x="376" y="620"/>
      <point x="384" y="624" type="curve"/>
      <point x="389" y="624" type="line"/>
      <point x="394" y="620"/>
      <point x="395" y="600"/>
      <point x="395" y="588" type="curve" smooth="yes"/>
      <point x="395" y="393" type="line" smooth="yes"/>
      <point x="395" y="361"/>
      <point x="394" y="361"/>
      <point x="351" y="361" type="curve" smooth="yes"/>
    </contour>
  </outline>
</glyph>
<glyph name="Ccedilla" format="1">
  <advance width="696"/>
  <unicode hex="00C7"/>
  <outline>
    <contour>
      <point x="364" y="-102" type="line" name="hr01"/>
      <point x="364" y="-107" type="line"/>
      <point x="397" y="-120"/>
      <point x="422" y="-145"/>
      <point x="422" y="-169" type="curve" smooth="yes"/>
      <point x="422" y="-191"/>
      <point x="408" y="-198"/>
      <point x="397" y="-198" type="curve" smooth="yes"/>
      <point x="384" y="-198"/>
      <point x="366" y="-171"/>
      <point x="348" y="-171" type="curve" smooth="yes"/>
      <point x="334" y="-171"/>
      <point x="325" y="-185"/>
      <point x="325" y="-195" type="curve" smooth="yes"/>
      <point x="325" y="-214"/>
      <point x="344" y="-228"/>
      <point x="379" y="-228" type="curve" smooth="yes"/>
      <point x="427" y="-228"/>
      <point x="475" y="-193"/>
      <point x="475" y="-146" type="curve" smooth="yes"/>
      <point x="475" y="-119"/>
      <point x="457" y="-97"/>
      <point x="432" y="-80" type="curve" smooth="yes"/>
      <point x="421" y="-72"/>
      <point x="420" y="-65"/>
      <point x="424" y="-58" type="curve" smooth="yes"/>
      <point x="451" y="-15" type="line"/>
      <point x="511" y="-14"/>
      <point x="573" y="0"/>
      <point x="593" y="7" type="curve" smooth="yes"/>
      <point x="604" y="11"/>
      <point x="616" y="15"/>
      <point x="628" y="17" type="curve"/>
      <point x="643" y="36"/>
      <point x="669" y="102"/>
      <point x="676" y="154" type="curve"/>
      <point x="672" y="161"/>
      <point x="657" y="163"/>
      <point x="650" y="158" type="curve"/>
      <point x="627" y="99"/>
      <point x="570" y="15"/>
      <point x="441" y="15" type="curve" smooth="yes"/>
      <point x="277" y="15"/>
      <point x="144" y="131"/>
      <point x="144" y="341" type="curve" smooth="yes"/>
      <point x="144" y="548"/>
      <point x="274" y="645"/>
      <point x="427" y="645" type="curve" smooth="yes"/>
      <point x="572" y="645"/>
      <point x="617" y="567"/>
      <point x="632" y="499" type="curve"/>
      <point x="639" y="493"/>
      <point x="654" y="494"/>
      <point x="659" y="501" type="curve" name="hr02"/>
      <point x="651" y="562"/>
      <point x="646" y="625"/>
      <point x="645" y="648" type="curve"/>
      <point x="636" y="647"/>
      <point x="629" y="649"/>
      <point x="617" y="652" type="curve" smooth="yes"/>
      <point x="570" y="665"/>
      <point x="494" y="676"/>
      <point x="440" y="676" type="curve" smooth="yes" name="hr03"/>
      <point x="336" y="676"/>
      <point x="243" y="648"/>
      <point x="170" y="591" type="curve" smooth="yes"/>
      <point x="94" y="532"/>
      <point x="44" y="437"/>
      <point x="44" y="326" type="curve" smooth="yes"/>
      <point x="44" y="197"/>
      <point x="106" y="105"/>
      <point x="186" y="51" type="curve" smooth="yes"/>
      <point x="255" y="4"/>
      <point x="335" y="-14"/>
      <point x="418" y="-15" type="curve"/>
    </contour>
  </outline>
</glyph>
<glyph name="Iacute" format="1">
  <advance width="338"/>
  <unicode hex="00CD"/>
  <outline>
    <contour>
      <point x="128" y="152" type="line" smooth="yes" name="hr00"/>
      <point x="128" y="46"/>
      <point x="126" y="32"/>
      <point x="67" y="25" type="curve" smooth="yes"/>
      <point x="42" y="22" type="line"/>
      <point x="36" y="16"/>
      <point x="38" y="0"/>
      <point x="44" y="-3" type="curve"/>
      <point x="94" y="-1"/>
      <point x="128" y="0"/>
      <point x="170" y="0" type="curve" smooth="yes"/>
      <point x="210" y="0"/>
      <point x="244" y="-1"/>
      <point x="294" y="-3" type="curve"/>
      <point x="300" y="0"/>
      <point x="302" y="18"/>
      <point x="296" y="22" type="curve"/>
      <point x="271" y="25" type="line" smooth="yes"/>
      <point x="212" y="32"/>
      <point x="210" y="46"/>
      <point x="210" y="152" type="curve" smooth="yes"/>
      <point x="210" y="508" type="line" smooth="yes"/>
      <point x="210" y="614"/>
      <point x="212" y="631"/>
      <point x="271" y="636" type="curve" smooth="yes"/>
      <point x="296" y="638" type="line"/>
      <point x="302" y="642"/>
      <point x="300" y="660"/>
      <point x="294" y="663" type="curve"/>
      <point x="244" y="661"/>
      <point x="210" y="660"/>
      <point x="170" y="660" type="curve" smooth="yes"/>
      <point x="128" y="660"/>
      <point x="94" y="661"/>
      <point x="44" y="663" type="curve"/>
      <point x="38" y="660"/>
      <point x="36" y="642"/>
      <point x="42" y="638" type="curve"/>
      <point x="67" y="636" type="line" smooth="yes"/>
      <point x="126" y="631"/>
      <point x="128" y="614"/>
      <point x="128" y="508" type="curve" smooth="yes"/>
    </contour>
    <contour>
      <point x="300" y="778" type="line" smooth="yes"/>
      <point x="315" y="784"/>
      <point x="322" y="789"/>
      <point x="326" y="794" type="curve"/>
      <point x="329" y="802"/>
      <point x="329" y="816"/>
      <point x="319" y="835" type="curve" smooth="yes"/>
      <point x="311" y="851"/>
      <point x="298" y="858"/>
      <point x="291" y="858" type="curve" smooth="yes"/>
      <point x="285" y="858"/>
      <point x="276" y="853"/>
      <point x="264" y="844" type="curve" smooth="yes"/>
      <point x="123" y="730" type="line"/>
      <point x="120" y="719"/>
      <point x="126" y="708"/>
      <point x="133" y="706" type="curve"/>
    </contour>
  </outline>
</glyph>
<glyph name="Ograve" format="1">
  <advance width="795"/>
  <unicode hex="00D2"/>
  <outline>
    <contour>
      <point x="402" y="-16" type="curve" smooth="yes" name="hr00"/>
      <point x="595" y="-16"/>
      <point x="749" y="131"/>
      <point x="749" y="333" type="curve" smooth="yes"/>
      <point x="749" y="509"/>
      <point x="633" y="676"/>
      <point x="402" y="676" type="curve" smooth="yes"/>
      <point x="196" y="676"/>
      <point x="46" y="523"/>
      <point x="46" y="323" type="curve" smooth="yes"/>
      <point x="46" y="143"/>
      <point x="180" y="-16"/>
    </contour>
    <contour>
      <point x="415" y="15" type="curve" smooth="yes"/>
      <point x="218" y="15"/>
      <point x="146" y="207"/>
      <point x="146" y="355" type="curve" smooth="yes"/>
      <point x="146" y="574"/>
      <point x="281" y="645"/>
      <point x="385" y="645" type="curve" smooth="yes"/>
      <point x="576" y="645"/>
      <point x="649" y="467"/>
      <point x="649" y="302" type="curve" smooth="yes"/>
      <point x="649" y="105"/>
      <point x="535" y="15"/>
    </contour>
    <contour>
      <point x="452" y="706" type="line"/>
      <point x="459" y="708"/>
      <point x="465" y="719"/>
      <point x="462" y="730" type="curve"/>
      <point x="321" y="845" type="line"/>
      <point x="309" y="853"/>
      <point x="300" y="858"/>
      <point x="294" y="858" type="curve" smooth="yes"/>
      <point x="287" y="858"/>
      <point x="277" y="851"/>
      <point x="266" y="835" type="curve" smooth="yes"/>
      <point x="254" y="817"/>
      <point x="256" y="802"/>
      <point x="260" y="794" type="curve" smooth="yes"/>
      <point x="263" y="789"/>
      <point x="271" y="784"/>
      <point x="285" y="778" type="curve" smooth="yes"/>
    </contour>
  </outline>
</glyph>
<glyph name="Ocircumflex" format="1">
  <advance width="795"/>
  <unicode hex="00D4"/>
  <outline>
    <contour>
      <point x="402" y="-16" type="curve" smooth="yes" name="hr00"/>
      <point x="595" y="-16"/>
      <point x="749" y="131"/>
      <point x="749" y="333" type="curve" smooth="yes"/>
      <point x="749" y="509"/>
      <point x="633" y="676"/>
      <point x="402" y="676" type="curve" smooth="yes"/>
      <point x="196" y="676"/>
      <point x="46" y="523"/>
      <point x="46" y="323" type="curve" smooth="yes"/>
      <point x="46" y="143"/>
      <point x="180" y="-16"/>
    </contour>
    <contour>
      <point x="415" y="15" type="curve" smooth="yes"/>
      <point x="218" y="15"/>
      <point x="146" y="207"/>
      <point x="146" y="355" type="curve" smooth="yes"/>
      <point x="146" y="574"/>
      <point x="281" y="645"/>
      <point x="385" y="645" type="curve" smooth="yes"/>
      <point x="576" y="645"/>
      <point x="649" y="467"/>
      <point x="649" y="302" type="curve" smooth="yes"/>
      <point x="649" y="105"/>
      <point x="535" y="15"/>
    </contour>
    <contour>
      <point x="261" y="727" type="line"/>
      <point x="261" y="718"/>
      <point x="265" y="707"/>
      <point x="274" y="707" type="curve"/>
      <point x="387" y="765" type="line" smooth="yes"/>
      <point x="401" y="772"/>
      <point x="405" y="772"/>
      <point x="419" y="765" type="curve" smooth="yes"/>
      <point x="535" y="707" type="line"/>
      <point x="541" y="708"/>
      <point x="547" y="718"/>
      <point x="547" y="727" type="curve"/>
      <point x="425" y="838" type="line" smooth="yes"/>
      <point x="411" y="851"/>
      <point x="398" y="851"/>
      <point x="383" y="838" type="curve" smooth="yes"/>
    </contour>
  </outline>
</glyph>
<glyph name="Otilde" format="1">
  <advance width="795"/>
  <unicode hex="00D5"/>
  <outline>
    <contour>
      <point x="402" y="-16" type="curve" smooth="yes" name="hr00"/>
      <point x="595" y="-16"/>
      <point x="749" y="131"/>
      <point x="749" y="333" type="curve" smooth="yes"/>
      <point x="749" y="509"/>
      <point x="633" y="676"/>
      <point x="402" y="676" type="curve" smooth="yes"/>
      <point x="196" y="676"/>
      <point x="46" y="523"/>
      <point x="46" y="323" type="curve" smooth="yes"/>
      <point x="46" y="143"/>
      <point x="180" y="-16"/>
    </contour>
    <contour>
      <point x="415" y="15" type="curve" smooth="yes"/>
      <point x="218" y="15"/>
      <point x="146" y="207"/>
      <point x="146" y="355" type="curve" smooth="yes"/>
      <point x="146" y="574"/>
      <point x="281" y="645"/>
      <point x="385" y="645" type="curve" smooth="yes"/>
      <point x="576" y="645"/>
      <point x="649" y="467"/>
      <point x="649" y="302" type="curve" smooth="yes"/>
      <point x="649" y="105"/>
      <point x="535" y="15"/>
    </contour>
    <contour>
      <point x="368" y="806" type="line" smooth="yes"/>
      <point x="344" y="806"/>
      <point x="329" y="800"/>
      <point x="313" y="781" type="curve"/>
      <point x="295" y="766"/>
      <point x="276" y="712"/>
      <point x="272" y="694" type="curve"/>
      <point x="276" y="687"/>
      <point x="287" y="686"/>
      <point x="293" y="690" type="curve"/>
      <point x="314" y="729"/>
      <point x="332" y="745"/>
      <point x="380" y="745" type="curve" smooth="yes"/>
      <point x="438" y="745" type="line" smooth="yes"/>
      <point x="461" y="745"/>
      <point x="476" y="747"/>
      <point x="491" y="762" type="curve" smooth="yes"/>
      <point x="505" y="777"/>
      <point x="525" y="814"/>
      <point x="532" y="843" type="curve"/>
      <point x="529" y="851"/>
      <point x="520" y="852"/>
      <point x="514" y="847" type="curve"/>
      <point x="488" y="811"/>
      <point x="476" y="806"/>
      <point x="431" y="806" type="curve" smooth="yes"/>
    </contour>
  </outline>
</glyph>
<glyph name="multiply" format="1">
  <advance width="500"/>
  <unicode hex="00D7"/>
  <outline>
    <contour>
      <point x="436" y="349" type="line" name="hr00"/>
      <point x="399" y="387" type="line"/>
      <point x="250" y="237" type="line"/>
      <point x="102" y="385" type="line"/>
      <point x="65" y="346" type="line"/>
      <point x="212" y="199" type="line"/>
      <point x="65" y="50" type="line"/>
      <point x="102" y="11" type="line"/>
      <point x="250" y="161" type="line"/>
      <point x="399" y="11" type="line"/>
      <point x="436" y="50" type="line"/>
      <point x="288" y="199" type="line"/>
    </contour>
  </outline>
</glyph>
<glyph name="Oslash" format="1">
  <advance width="795"/>
  <unicode hex="00D8"/>
  <outline>
    <contour>
      <point x="690" y="668" type="line" name="hr00"/>
      <point x="690" y="680"/>
      <point x="675" y="692"/>
      <point x="660" y="693" type="curve"/>
      <point x="603" y="621" type="line"/>
      <point x="549" y="656"/>
      <point x="481" y="676"/>
      <point x="402" y="676" type="curve" smooth="yes"/>
      <point x="196" y="676"/>
      <point x="46" y="523"/>
      <point x="46" y="323" type="curve" smooth="yes"/>
      <point x="46" y="222"/>
      <point x="88" y="128"/>
      <point x="164" y="66" type="curve"/>
      <point x="99" y="-15" type="line"/>
      <point x="100" y="-29"/>
      <point x="114" y="-40"/>
      <point x="128" y="-40" type="curve"/>
      <point x="195" y="43" type="line"/>
      <point x="251" y="6"/>
      <point x="322" y="-16"/>
      <point x="402" y="-16" type="curve" smooth="yes"/>
      <point x="595" y="-16"/>
      <point x="749" y="131"/>
      <point x="749" y="330" type="curve" smooth="yes"/>
      <point x="749" y="435"/>
      <point x="711" y="533"/>
      <point x="635" y="598" type="curve"/>
    </contour>
    <contour>
      <point x="586" y="537" type="line"/>
      <point x="630" y="472"/>
      <point x="649" y="385"/>
      <point x="649" y="302" type="curve" smooth="yes"/>
      <point x="649" y="105"/>
      <point x="535" y="15"/>
      <point x="415" y="15" type="curve" smooth="yes"/>
      <point x="337" y="15"/>
      <point x="277" y="46"/>
      <point x="235" y="94" type="curve"/>
    </contour>
    <contour>
      <point x="211" y="125" type="line"/>
      <point x="165" y="192"/>
      <point x="146" y="279"/>
      <point x="146" y="355" type="curve" smooth="yes"/>
      <point x="146" y="574"/>
      <point x="281" y="645"/>
      <point x="385" y="645" type="curve" smooth="yes"/>
      <point x="461" y="645"/>
      <point x="520" y="616"/>
      <point x="562" y="569" type="curve"/>
    </contour>
  </outline>
</glyph>
<glyph name="Udieresis" format="1">
  <advance width="746"/>
  <unicode hex="00DC"/>
  <outline>
    <contour>
      <point x="605" y="294" type="line" smooth="yes" name="hr00"/>
      <point x="605" y="142"/>
      <point x="550" y="28"/>
      <point x="405" y="28" type="curve" smooth="yes"/>
      <point x="252" y="28"/>
      <point x="202" y="134"/>
      <point x="202" y="295" type="curve" smooth="yes"/>
      <point x="202" y="511" type="line" smooth="yes"/>
      <point x="202" y="615"/>
      <point x="204" y="632"/>
      <point x="262" y="637" type="curve" smooth="yes"/>
      <point x="286" y="639" type="line"/>
      <point x="292" y="643"/>
      <point x="290" y="660"/>
      <point x="284" y="663" type="curve"/>
      <point x="235" y="661"/>
      <point x="202" y="660"/>
      <point x="161" y="660" type="curve" smooth="yes"/>
      <point x="121" y="660"/>
      <point x="87" y="661"/>
      <point x="37" y="663" type="curve"/>
      <point x="31" y="660"/>
      <point x="29" y="643"/>
      <point x="35" y="639" type="curve"/>
      <point x="60" y="637" type="line" smooth="yes"/>
      <point x="118" y="632"/>
      <point x="120" y="615"/>
      <point x="120" y="511" type="curve" smooth="yes"/>
      <point x="120" y="275" type="line" smooth="yes"/>
      <point x="120" y="156"/>
      <point x="145" y="83"/>
      <point x="198" y="39" type="curve" smooth="yes"/>
      <point x="247" y="-3"/>
      <point x="316" y="-16"/>
      <point x="385" y="-16" type="curve" smooth="yes"/>
      <point x="459" y="-16"/>
      <point x="533" y="10"/>
      <point x="576" y="57" type="curve" smooth="yes"/>
      <point x="632" y="117"/>
      <point x="646" y="209"/>
      <point x="646" y="296" type="curve" smooth="yes"/>
      <point x="646" y="409" type="line" smooth="yes"/>
      <point x="646" y="465"/>
      <point x="646" y="580"/>
      <point x="660" y="613" type="curve" smooth="yes"/>
      <point x="666" y="626"/>
      <point x="685" y="635"/>
      <point x="710" y="637" type="curve" smooth="yes"/>
      <point x="734" y="639" type="line"/>
      <point x="739" y="645"/>
      <point x="740" y="658"/>
      <point x="732" y="663" type="curve"/>
      <point x="696" y="661"/>
      <point x="669" y="660"/>
      <point x="627" y="660" type="curve" smooth="yes"/>
      <point x="588" y="660"/>
      <point x="551" y="661"/>
      <point x="513" y="663" type="curve"/>
      <point x="507" y="659"/>
      <point x="505" y="646"/>
      <point x="511" y="639" type="curve"/>
      <point x="536" y="637" type="line" smooth="yes"/>
      <point x="561" y="635"/>
      <point x="579" y="628"/>
      <point x="586" y="616" type="curve" smooth="yes"/>
      <point x="603" y="586"/>
      <point x="605" y="471"/>
      <point x="605" y="409" type="curve" smooth="yes"/>
    </contour>
    <contour>
      <point x="300" y="705" type="curve" smooth="yes"/>
      <point x="331" y="705"/>
      <point x="351" y="729"/>
      <point x="351" y="758" type="curve" smooth="yes"/>
      <point x="351" y="784"/>
      <point x="331" y="812"/>
      <point x="300" y="812" type="curve" smooth="yes"/>
      <point x="269" y="812"/>
      <point x="248" y="785"/>
      <point x="251" y="756" type="curve"/>
      <point x="251" y="722"/>
      <point x="269" y="705"/>
    </contour>
    <contour>
      <point x="496" y="705" type="curve" smooth="yes"/>
      <point x="527" y="705"/>
      <point x="544" y="729"/>
      <point x="544" y="758" type="curve" smooth="yes"/>
      <point x="544" y="784"/>
      <point x="527" y="812"/>
      <point x="496" y="812" type="curve" smooth="yes"/>
      <point x="465" y="812"/>
      <point x="444" y="785"/>
      <point x="444" y="756" type="curve" smooth="yes"/>
      <point x="445" y="722"/>
      <point x="466" y="705"/>
    </contour>
  </outline>
</glyph>
<glyph name="Thorn" format="1">
  <advance width="561"/>
  <unicode hex="00DE"/>
  <outline>
    <contour>
      <point x="128" y="150" type="line" smooth="yes" name="hr00"/>
      <point x="128" y="45"/>
      <point x="126" y="33"/>
      <point x="68" y="25" type="curve" smooth="yes"/>
      <point x="46" y="22" type="line"/>
      <point x="40" y="16"/>
      <point x="42" y="0"/>
      <point x="48" y="-3" type="curve"/>
      <point x="94" y="-1"/>
      <point x="129" y="0"/>
      <point x="171" y="0" type="curve" smooth="yes"/>
      <point x="211" y="0"/>
      <point x="245" y="-1"/>
      <point x="305" y="-3" type="curve"/>
      <point x="311" y="0"/>
      <point x="313" y="18"/>
      <point x="307" y="22" type="curve"/>
      <point x="270" y="25" type="line" smooth="yes"/>
      <point x="212" y="30"/>
      <point x="210" y="45"/>
      <point x="210" y="150" type="curve" smooth="yes"/>
      <point x="210" y="455" type="line" smooth="yes"/>
      <point x="210" y="486"/>
      <point x="214" y="490"/>
      <point x="267" y="490" type="curve" smooth="yes"/>
      <point x="373" y="490"/>
      <point x="427" y="431"/>
      <point x="427" y="338" type="curve" smooth="yes"/>
      <point x="427" y="250"/>
      <point x="377" y="200"/>
      <point x="281" y="186" type="curve"/>
      <point x="276" y="183"/>
      <point x="276" y="169"/>
      <point x="282" y="166" type="curve"/>
      <point x="318" y="164"/>
      <point x="380" y="171"/>
      <point x="428" y="195" type="curve" smooth="yes"/>
      <point x="467" y="215"/>
      <point x="518" y="262"/>
      <point x="518" y="342" type="curve" smooth="yes"/>
      <point x="518" y="471"/>
      <point x="417" y="521"/>
      <point x="291" y="521" type="curve" smooth="yes"/>
      <point x="210" y="521" type="line"/>
      <point x="210" y="610"/>
      <point x="215" y="628"/>
      <point x="278" y="636" type="curve" smooth="yes"/>
      <point x="294" y="638" type="line"/>
      <point x="298" y="643"/>
      <point x="298" y="658"/>
      <point x="292" y="663" type="curve"/>
      <point x="246" y="661"/>
      <point x="216" y="660"/>
      <point x="171" y="660" type="curve" smooth="yes"/>
      <point x="129" y="660"/>
      <point x="95" y="661"/>
      <point x="45" y="663" type="curve"/>
      <point x="39" y="660"/>
      <point x="37" y="642"/>
      <point x="43" y="638" type="curve"/>
      <point x="65" y="636" type="line" smooth="yes"/>
      <point x="121" y="631"/>
      <point x="128" y="619"/>
      <point x="128" y="510" type="curve" smooth="yes"/>
    </contour>
  </outline>
</glyph>
<glyph name="germandbls" format="1">
  <advance width="523"/>
  <unicode hex="00DF"/>
  <outline>
    <contour>
      <point x="169" y="411" type="line" smooth="yes" name="hr01"/>
      <point x="169" y="567"/>
      <point x="214" y="680"/>
      <point x="297" y="680" type="curve" smooth="yes"/>
      <point x="364" y="680"/>
      <point x="405" y="628"/>
      <point x="405" y="568" type="curve" smooth="yes" name="hr02"/>
      <point x="405" y="522"/>
      <point x="373" y="481"/>
      <point x="341" y="451" type="curve" smooth="yes"/>
      <point x="300" y="411"/>
      <point x="270" y="381"/>
      <point x="270" y="339" type="curve" smooth="yes"/>
      <point x="270" y="288"/>
      <point x="304" y="247"/>
      <point x="351" y="212" type="curve" smooth="yes"/>
      <point x="392" y="181"/>
      <point x="428" y="143"/>
      <point x="428" y="97" type="curve" smooth="yes" name="hr03"/>
      <point x="428" y="41"/>
      <point x="391" y="16"/>
      <point x="357" y="16" type="curve" smooth="yes"/>
      <point x="332" y="16"/>
      <point x="297" y="52"/>
      <point x="284" y="64" type="curve" smooth="yes"/>
      <point x="278" y="70"/>
      <point x="267" y="68"/>
      <point x="263" y="62" type="curve" smooth="yes"/>
      <point x="251" y="44"/>
      <point x="256" y="18"/>
      <point x="269" y="5" type="curve" smooth="yes"/>
      <point x="281" y="-6"/>
      <point x="306" y="-14"/>
      <point x="347" y="-14" type="curve" smooth="yes"/>
      <point x="420" y="-14"/>
      <point x="496" y="37"/>
      <point x="496" y="121" type="curve" smooth="yes"/>
      <point x="496" y="190"/>
      <point x="451" y="230"/>
      <point x="410" y="262" type="curve" smooth="yes"/>
      <point x="365" y="298"/>
      <point x="335" y="326"/>
      <point x="335" y="366" type="curve" smooth="yes"/>
      <point x="335" y="392"/>
      <point x="352" y="418"/>
      <point x="381" y="445" type="curve" smooth="yes"/>
      <point x="405" y="468" type="line" smooth="yes" name="hr04"/>
      <point x="439" y="501"/>
      <point x="475" y="524"/>
      <point x="475" y="582" type="curve" smooth="yes"/>
      <point x="475" y="645"/>
      <point x="434" y="715"/>
      <point x="325" y="715" type="curve" smooth="yes"/>
      <point x="222" y="715"/>
      <point x="161" y="648"/>
      <point x="130" y="583" type="curve" smooth="yes"/>
      <point x="104" y="529"/>
      <point x="95" y="464"/>
      <point x="95" y="412" type="curve" smooth="yes"/>
      <point x="95" y="402"/>
      <point x="88" y="396"/>
      <point x="80" y="392" type="curve" smooth="yes"/>
      <point x="37" y="371" type="line"/>
      <point x="33" y="365"/>
      <point x="34" y="356"/>
      <point x="40" y="352" type="curve"/>
      <point x="75" y="352" type="line" smooth="yes"/>
      <point x="95" y="352"/>
      <point x="95" y="350"/>
      <point x="95" y="323" type="curve" smooth="yes"/>
      <point x="95" y="112" type="line" smooth="yes"/>
      <point x="95" y="40"/>
      <point x="94" y="30"/>
      <point x="57" y="25" type="curve" smooth="yes"/>
      <point x="34" y="22" type="line"/>
      <point x="27" y="17"/>
      <point x="29" y="0"/>
      <point x="36" y="-3" type="curve"/>
      <point x="66" y="-1"/>
      <point x="96" y="0"/>
      <point x="132" y="0" type="curve" smooth="yes"/>
      <point x="167" y="0"/>
      <point x="186" y="-1"/>
      <point x="219" y="-3" type="curve"/>
      <point x="226" y="0"/>
      <point x="228" y="17"/>
      <point x="221" y="22" type="curve"/>
      <point x="197" y="25" type="line" smooth="yes"/>
      <point x="171" y="28"/>
      <point x="169" y="40"/>
      <point x="169" y="112" type="curve" smooth="yes"/>
    </contour>
  </outline>
</glyph>
<glyph name="aring" format="1">
  <advance width="404"/>
  <unicode hex="00E5"/>
  <outline>
    <contour>
      <point x="118" y="164" type="line" smooth="yes" name="hr01"/>
      <point x="54" y="141"/>
      <point x="35" y="118"/>
      <point x="35" y="79" type="curve" smooth="yes"/>
      <point x="35" y="51"/>
      <point x="47" y="26"/>
      <point x="66" y="9" type="curve" smooth="yes"/>
      <point x="83" y="-6"/>
      <point x="107" y="-14"/>
      <point x="136" y="-14" type="curve" smooth="yes"/>
      <point x="164" y="-14"/>
      <point x="186" y="-1"/>
      <point x="208" y="11" type="curve" smooth="yes"/>
      <point x="228" y="22"/>
      <point x="240" y="31"/>
      <point x="247" y="31" type="curve" smooth="yes"/>
      <point x="253" y="31"/>
      <point x="259" y="23"/>
      <point x="263" y="17" type="curve" smooth="yes"/>
      <point x="280" y="-5"/>
      <point x="304" y="-14"/>
      <point x="328" y="-14" type="curve" smooth="yes"/>
      <point x="377" y="-14"/>
      <point x="412" y="25"/>
      <point x="412" y="30" type="curve" smooth="yes"/>
      <point x="412" y="37"/>
      <point x="409" y="43"/>
      <point x="405" y="43" type="curve" smooth="yes"/>
      <point x="402" y="43"/>
      <point x="397" y="39"/>
      <point x="392" y="36" type="curve" smooth="yes"/>
      <point x="386" y="33"/>
      <point x="377" y="30"/>
      <point x="367" y="30" type="curve" smooth="yes"/>
      <point x="328" y="30"/>
      <point x="319" y="71"/>
      <point x="321" y="117" type="curve" smooth="yes"/>
      <point x="327" y="291" type="line" smooth="yes"/>
      <point x="330" y="366"/>
      <point x="295" y="408"/>
      <point x="223" y="408" type="curve" smooth="yes"/>
      <point x="150" y="408"/>
      <point x="37" y="337"/>
      <point x="37" y="285" type="curve" smooth="yes"/>
      <point x="37" y="276"/>
      <point x="42" y="271"/>
      <point x="51" y="271" type="curve" smooth="yes"/>
      <point x="66" y="271"/>
      <point x="93" y="278"/>
      <point x="108" y="290" type="curve" smooth="yes"/>
      <point x="116" y="296"/>
      <point x="117" y="308"/>
      <point x="118" y="324" type="curve" smooth="yes"/>
      <point x="120" y="355"/>
      <point x="154" y="369"/>
      <point x="182" y="369" type="curve" smooth="yes"/>
      <point x="244" y="369"/>
      <point x="256" y="319"/>
      <point x="255" y="282" type="curve" smooth="yes"/>
      <point x="254" y="236" type="line" smooth="yes"/>
      <point x="254" y="221"/>
      <point x="252" y="212"/>
      <point x="237" y="207" type="curve" smooth="yes"/>
    </contour>
    <contour>
      <point x="112" y="91" type="curve" smooth="yes"/>
      <point x="112" y="130"/>
      <point x="141" y="145"/>
      <point x="200" y="165" type="curve" smooth="yes"/>
      <point x="218" y="171"/>
      <point x="235" y="175"/>
      <point x="241" y="175" type="curve" smooth="yes"/>
      <point x="247" y="175"/>
      <point x="251" y="173"/>
      <point x="251" y="162" type="curve" smooth="yes"/>
      <point x="249" y="103" type="line" smooth="yes"/>
      <point x="248" y="82"/>
      <point x="248" y="68"/>
      <point x="236" y="56" type="curve" smooth="yes"/>
      <point x="226" y="46"/>
      <point x="195" y="31"/>
      <point x="175" y="31" type="curve" smooth="yes"/>
      <point x="124" y="31"/>
      <point x="112" y="74"/>
    </contour>
    <contour>
      <point x="202" y="638" type="curve" smooth="yes" name="hr02"/>
      <point x="152" y="638"/>
      <point x="117" y="599"/>
      <point x="117" y="557" type="curve" smooth="yes"/>
      <point x="117" y="514"/>
      <point x="152" y="476"/>
      <point x="202" y="476" type="curve" smooth="yes"/>
      <point x="252" y="476"/>
      <point x="287" y="514"/>
      <point x="287" y="557" type="curve" smooth="yes"/>
      <point x="287" y="599"/>
      <point x="252" y="638"/>
    </contour>
    <contour>
      <point x="157" y="557" type="curve" smooth="yes"/>
      <point x="157" y="587"/>
      <point x="177" y="609"/>
      <point x="202" y="609" type="curve" smooth="yes"/>
      <point x="228" y="609"/>
      <point x="247" y="587"/>
      <point x="247" y="557" type="curve" smooth="yes"/>
      <point x="247" y="526"/>
      <point x="228" y="504"/>
      <point x="202" y="504" type="curve" smooth="yes"/>
      <point x="177" y="504"/>
      <point x="157" y="526"/>
    </contour>
  </outline>
</glyph>
<glyph name="ccedilla" format="1">
  <advance width="401"/>
  <unicode hex="00E7"/>
  <outline>
    <contour>
      <point x="184" y="-97" type="line" name="hr00"/>
      <point x="184" y="-102" type="line"/>
      <point x="215" y="-114"/>
      <point x="239" y="-138"/>
      <point x="239" y="-161" type="curve" smooth="yes"/>
      <point x="239" y="-182"/>
      <point x="226" y="-189"/>
      <point x="215" y="-189" type="curve" smooth="yes"/>
      <point x="203" y="-189"/>
      <point x="186" y="-163"/>
      <point x="169" y="-163" type="curve" smooth="yes"/>
      <point x="155" y="-163"/>
      <point x="147" y="-176"/>
      <point x="147" y="-186" type="curve" smooth="yes"/>
      <point x="147" y="-204"/>
      <point x="165" y="-217"/>
      <point x="198" y="-217" type="curve" smooth="yes"/>
      <point x="244" y="-217"/>
      <point x="290" y="-184"/>
      <point x="290" y="-139" type="curve" smooth="yes"/>
      <point x="290" y="-113"/>
      <point x="273" y="-92"/>
      <point x="249" y="-76" type="curve" smooth="yes"/>
      <point x="238" y="-69"/>
      <point x="237" y="-62"/>
      <point x="241" y="-55" type="curve" smooth="yes"/>
      <point x="270" y="-8" type="line"/>
      <point x="319" y="0"/>
      <point x="371" y="29"/>
      <point x="398" y="88" type="curve"/>
      <point x="397" y="97"/>
      <point x="388" y="104"/>
      <point x="380" y="102" type="curve"/>
      <point x="357" y="68"/>
      <point x="327" y="42"/>
      <point x="269" y="42" type="curve" smooth="yes"/>
      <point x="162" y="42"/>
      <point x="108" y="135"/>
      <point x="108" y="213" type="curve" smooth="yes"/>
      <point x="108" y="319"/>
      <point x="176" y="374"/>
      <point x="246" y="374" type="curve" smooth="yes"/>
      <point x="287" y="374"/>
      <point x="324" y="348"/>
      <point x="346" y="321" type="curve" smooth="yes"/>
      <point x="350" y="316"/>
      <point x="355" y="314"/>
      <point x="360" y="314" type="curve" smooth="yes"/>
      <point x="372" y="314"/>
      <point x="382" y="333"/>
      <point x="382" y="351" type="curve" smooth="yes"/>
      <point x="382" y="368"/>
      <point x="375" y="384"/>
      <point x="367" y="391" type="curve"/>
      <point x="340" y="403"/>
      <point x="301" y="408"/>
      <point x="278" y="408" type="curve" smooth="yes"/>
      <point x="112" y="408"/>
      <point x="36" y="293"/>
      <point x="36" y="185" type="curve" smooth="yes"/>
      <point x="36" y="120"/>
      <point x="59" y="71"/>
      <point x="94" y="37" type="curve" smooth="yes"/>
      <point x="129" y="3"/>
      <point x="178" y="-14"/>
      <point x="231" y="-14" type="curve" smooth="yes"/>
      <point x="233" y="-14"/>
      <point x="235" y="-14"/>
      <point x="236" y="-13" type="curve" smooth="yes"/>
    </contour>
  </outline>
</glyph>
<glyph name="eacute" format="1">
  <advance width="396"/>
  <unicode hex="00E9"/>
  <outline>
    <contour>
      <point x="315" y="256" type="line" smooth="yes" name="hr00"/>
      <point x="357" y="256"/>
      <point x="371" y="257"/>
      <point x="374" y="263" type="curve" smooth="yes"/>
      <point x="376" y="267"/>
      <point x="378" y="275"/>
      <point x="378" y="289" type="curve" smooth="yes"/>
      <point x="378" y="349"/>
      <point x="322" y="408"/>
      <point x="236" y="408" type="curve" smooth="yes"/>
      <point x="116" y="408"/>
      <point x="35" y="305"/>
      <point x="35" y="182" type="curve" smooth="yes"/>
      <point x="35" y="138"/>
      <point x="47" y="91"/>
      <point x="77" y="52" type="curve" smooth="yes"/>
      <point x="106" y="14"/>
      <point x="157" y="-14"/>
      <point x="222" y="-14" type="curve" smooth="yes"/>
      <point x="274" y="-14"/>
      <point x="346" y="11"/>
      <point x="379" y="79" type="curve"/>
      <point x="378" y="88"/>
      <point x="371" y="94"/>
      <point x="361" y="91" type="curve"/>
      <point x="330" y="52"/>
      <point x="302" y="42"/>
      <point x="269" y="42" type="curve" smooth="yes"/>
      <point x="162" y="42"/>
      <point x="103" y="128"/>
      <point x="103" y="229" type="curve" smooth="yes"/>
      <point x="103" y="254"/>
      <point x="104" y="256"/>
      <point x="130" y="256" type="curve" smooth="yes"/>
    </contour>
    <contour>
      <point x="121" y="286" type="line" smooth="yes"/>
      <point x="114" y="286"/>
      <point x="114" y="289"/>
      <point x="114" y="291" type="curve" smooth="yes"/>
      <point x="115" y="324"/>
      <point x="166" y="378"/>
      <point x="225" y="378" type="curve" smooth="yes"/>
      <point x="283" y="378"/>
      <point x="302" y="343"/>
      <point x="302" y="315" type="curve" smooth="yes"/>
      <point x="302" y="302"/>
      <point x="299" y="298"/>
      <point x="296" y="296" type="curve" smooth="yes"/>
      <point x="288" y="290"/>
      <point x="266" y="286"/>
      <point x="192" y="286" type="curve" smooth="yes"/>
    </contour>
    <contour>
      <point x="320" y="584" type="line" smooth="yes"/>
      <point x="330" y="594"/>
      <point x="336" y="605"/>
      <point x="336" y="611" type="curve" smooth="yes"/>
      <point x="336" y="619"/>
      <point x="329" y="629"/>
      <point x="319" y="637" type="curve" smooth="yes"/>
      <point x="307" y="647"/>
      <point x="295" y="652"/>
      <point x="288" y="652" type="curve" smooth="yes"/>
      <point x="278" y="652"/>
      <point x="270" y="639"/>
      <point x="264" y="628" type="curve" smooth="yes"/>
      <point x="178" y="465" type="line"/>
      <point x="179" y="458"/>
      <point x="188" y="453"/>
      <point x="195" y="454" type="curve"/>
    </contour>
  </outline>
</glyph>
<glyph name="eth" format="1">
  <advance width="484"/>
  <unicode hex="00F0"/>
  <outline>
    <contour>
      <point x="121" y="204" type="curve" smooth="yes" name="hr00"/>
      <point x="121" y="307"/>
      <point x="175" y="378"/>
      <point x="250" y="378" type="curve" smooth="yes"/>
      <point x="289" y="378"/>
      <point x="329" y="368"/>
      <point x="346" y="336" type="curve" smooth="yes"/>
      <point x="360" y="310"/>
      <point x="369" y="271"/>
      <point x="369" y="206" type="curve" smooth="yes"/>
      <point x="369" y="114"/>
      <point x="338" y="16"/>
      <point x="246" y="16" type="curve" smooth="yes"/>
      <point x="159" y="16"/>
      <point x="121" y="118"/>
    </contour>
    <contour>
      <point x="436" y="632" type="line"/>
      <point x="441" y="646"/>
      <point x="434" y="661"/>
      <point x="420" y="664" type="curve"/>
      <point x="308" y="606" type="line"/>
      <point x="246" y="666"/>
      <point x="156" y="711"/>
      <point x="70" y="715" type="curve"/>
      <point x="63" y="710"/>
      <point x="62" y="699"/>
      <point x="67" y="692" type="curve"/>
      <point x="140" y="685"/>
      <point x="210" y="631"/>
      <point x="256" y="579" type="curve"/>
      <point x="132" y="514" type="line"/>
      <point x="128" y="499"/>
      <point x="134" y="486"/>
      <point x="146" y="481" type="curve"/>
      <point x="277" y="549" type="line"/>
      <point x="315" y="501"/>
      <point x="341" y="437"/>
      <point x="351" y="387" type="curve"/>
      <point x="317" y="406"/>
      <point x="277" y="408"/>
      <point x="254" y="408" type="curve" smooth="yes"/>
      <point x="137" y="408"/>
      <point x="35" y="311"/>
      <point x="35" y="190" type="curve" smooth="yes"/>
      <point x="35" y="61"/>
      <point x="122" y="-14"/>
      <point x="234" y="-14" type="curve" smooth="yes"/>
      <point x="373" y="-14"/>
      <point x="449" y="89"/>
      <point x="449" y="255" type="curve" smooth="yes"/>
      <point x="449" y="364"/>
      <point x="415" y="490"/>
      <point x="332" y="578" type="curve"/>
    </contour>
  </outline>
</glyph>
<glyph name="odieresis" format="1">
  <advance width="486"/>
  <unicode hex="00F6"/>
  <outline>
    <contour>
      <point x="248" y="408" type="curve" smooth="yes" name="hr01"/>
      <point x="130" y="408"/>
      <point x="35" y="318"/>
      <point x="35" y="192" type="curve" smooth="yes"/>
      <point x="35" y="67"/>
      <point x="125" y="-14"/>
      <point x="240" y="-14" type="curve" smooth="yes"/>
      <point x="365" y="-14"/>
      <point x="451" y="76"/>
      <point x="451" y="201" type="curve" smooth="yes"/>
      <point x="451" y="324"/>
      <point x="360" y="408"/>
    </contour>
    <contour>
      <point x="365" y="185" type="curve" smooth="yes"/>
      <point x="365" y="108"/>
      <point x="338" y="16"/>
      <point x="250" y="16" type="curve" smooth="yes"/>
      <point x="162" y="16"/>
      <point x="121" y="114"/>
      <point x="121" y="205" type="curve" smooth="yes"/>
      <point x="121" y="315"/>
      <point x="170" y="378"/>
      <point x="236" y="378" type="curve" smooth="yes"/>
      <point x="331" y="378"/>
      <point x="365" y="270"/>
    </contour>
    <contour>
      <point x="150" y="502" type="curve" smooth="yes" name="hr02"/>
      <point x="179" y="502"/>
      <point x="200" y="524"/>
      <point x="200" y="555" type="curve" smooth="yes"/>
      <point x="200" y="579"/>
      <point x="179" y="603"/>
      <point x="150" y="603" type="curve" smooth="yes"/>
      <point x="121" y="603"/>
      <point x="100" y="580"/>
      <point x="101" y="551" type="curve" smooth="yes"/>
      <point x="102" y="520"/>
      <point x="122" y="502"/>
    </contour>
    <contour>
      <point x="325" y="502" type="curve" smooth="yes"/>
      <point x="354" y="502"/>
      <point x="373" y="525"/>
      <point x="373" y="556" type="curve" smooth="yes"/>
      <point x="373" y="579"/>
      <point x="354" y="603"/>
      <point x="325" y="603" type="curve" smooth="yes"/>
      <point x="296" y="603"/>
      <point x="274" y="580"/>
      <point x="274" y="552" type="curve" smooth="yes"/>
      <point x="275" y="521"/>
      <point x="297" y="502"/>
    </contour>
  </outline>
</glyph>
<glyph name="oslash" format="1">
  <advance width="486"/>
  <unicode hex="00F8"/>
  <outline>
    <contour>
      <point x="144" y="88" type="line" name="hr00"/>
      <point x="126" y="121"/>
      <point x="118" y="164"/>
      <point x="118" y="205" type="curve" smooth="yes"/>
      <point x="118" y="315"/>
      <point x="167" y="378"/>
      <point x="236" y="378" type="curve" smooth="yes"/>
      <point x="271" y="378"/>
      <point x="298" y="364"/>
      <point x="319" y="341" type="curve"/>
    </contour>
    <contour>
      <point x="340" y="312" type="line"/>
      <point x="360" y="274"/>
      <point x="368" y="227"/>
      <point x="368" y="185" type="curve" smooth="yes"/>
      <point x="368" y="108"/>
      <point x="341" y="16"/>
      <point x="250" y="16" type="curve" smooth="yes"/>
      <point x="213" y="16"/>
      <point x="185" y="32"/>
      <point x="163" y="58" type="curve"/>
    </contour>
    <contour>
      <point x="410" y="413" type="line"/>
      <point x="409" y="424"/>
      <point x="394" y="433"/>
      <point x="382" y="432" type="curve"/>
      <point x="348" y="383" type="line"/>
      <point x="319" y="399"/>
      <point x="285" y="408"/>
      <point x="248" y="408" type="curve" smooth="yes"/>
      <point x="130" y="408"/>
      <point x="35" y="318"/>
      <point x="35" y="192" type="curve" smooth="yes"/>
      <point x="35" y="123"/>
      <point x="62" y="68"/>
      <point x="106" y="33" type="curve"/>
      <point x="70" y="-19" type="line"/>
      <point x="72" y="-32"/>
      <point x="83" y="-42"/>
      <point x="96" y="-41" type="curve"/>
      <point x="133" y="14" type="line"/>
      <point x="164" y="-5"/>
      <point x="200" y="-14"/>
      <point x="240" y="-14" type="curve" smooth="yes"/>
      <point x="365" y="-14"/>
      <point x="451" y="76"/>
      <point x="451" y="201" type="curve" smooth="yes"/>
      <point x="451" y="271"/>
      <point x="422" y="328"/>
      <point x="376" y="364" type="curve"/>
    </contour>
  </outline>
</glyph>
<glyph name="thorn" format="1">
  <advance width="499"/>
  <unicode hex="00FE"/>
  <outline>
    <contour>
      <point x="151" y="-38" type="line" smooth="yes" name="hr01"/>
      <point x="151" y="-17"/>
      <point x="156" y="-12"/>
      <point x="165" y="-10" type="curve"/>
      <point x="174" y="-12"/>
      <point x="202" y="-14"/>
      <point x="223" y="-14" type="curve" smooth="yes" name="hr02"/>
      <point x="362" y="-14"/>
      <point x="464" y="86"/>
      <point x="464" y="228" type="curve" smooth="yes"/>
      <point x="464" y="326"/>
      <point x="399" y="408"/>
      <point x="298" y="408" type="curve" smooth="yes"/>
      <point x="234" y="408"/>
      <point x="171" y="367"/>
      <point x="158" y="361" type="curve"/>
      <point x="154" y="361"/>
      <point x="151" y="367"/>
      <point x="151" y="374" type="curve" smooth="yes"/>
      <point x="151" y="565" type="line" smooth="yes"/>
      <point x="151" y="609"/>
      <point x="153" y="654"/>
      <point x="155" y="689" type="curve"/>
      <point x="153" y="693"/>
      <point x="149" y="695"/>
      <point x="145" y="695" type="curve"/>
      <point x="107" y="675"/>
      <point x="59" y="662"/>
      <point x="36" y="653" type="curve"/>
      <point x="31" y="650"/>
      <point x="31" y="636"/>
      <point x="36" y="633" type="curve" smooth="yes"/>
      <point x="46" y="627" type="line" smooth="yes"/>
      <point x="76" y="609"/>
      <point x="77" y="603"/>
      <point x="77" y="544" type="curve" smooth="yes"/>
      <point x="77" y="-143" type="line" smooth="yes"/>
      <point x="77" y="-215"/>
      <point x="76" y="-225"/>
      <point x="39" y="-230" type="curve" smooth="yes"/>
      <point x="18" y="-233" type="line"/>
      <point x="11" y="-238"/>
      <point x="13" y="-255"/>
      <point x="20" y="-258" type="curve"/>
      <point x="48" y="-256"/>
      <point x="78" y="-255"/>
      <point x="114" y="-255" type="curve" smooth="yes"/>
      <point x="149" y="-255"/>
      <point x="178" y="-256"/>
      <point x="226" y="-258" type="curve"/>
      <point x="233" y="-255"/>
      <point x="235" y="-238"/>
      <point x="228" y="-233" type="curve"/>
      <point x="189" y="-228" type="line" smooth="yes"/>
      <point x="153" y="-223"/>
      <point x="151" y="-215"/>
      <point x="151" y="-143" type="curve" smooth="yes"/>
    </contour>
    <contour>
      <point x="151" y="273" type="line" smooth="yes"/>
      <point x="151" y="306"/>
      <point x="154" y="321"/>
      <point x="163" y="332" type="curve" smooth="yes"/>
      <point x="174" y="344"/>
      <point x="205" y="360"/>
      <point x="248" y="360" type="curve" smooth="yes"/>
      <point x="338" y="360"/>
      <point x="383" y="279"/>
      <point x="383" y="192" type="curve" smooth="yes"/>
      <point x="383" y="95"/>
      <point x="335" y="19"/>
      <point x="257" y="19" type="curve" smooth="yes"/>
      <point x="231" y="19"/>
      <point x="202" y="27"/>
      <point x="182" y="43" type="curve" smooth="yes"/>
      <point x="161" y="59"/>
      <point x="151" y="71"/>
      <point x="151" y="101" type="curve" smooth="yes"/>
    </contour>
  </outline>
</glyph>
<glyph name="abreve" format="1">
  <advance width="404"/>
  <unicode hex="0103"/>
  <outline>
    <contour>
      <point x="118" y="164" type="line" smooth="yes" name="hr01"/>
      <point x="54" y="141"/>
      <point x="35" y="118"/>
      <point x="35" y="79" type="curve" smooth="yes"/>
      <point x="35" y="51"/>
      <point x="47" y="26"/>
      <point x="66" y="9" type="curve" smooth="yes"/>
      <point x="83" y="-6"/>
      <point x="107" y="-14"/>
      <point x="136" y="-14" type="curve" smooth="yes"/>
      <point x="164" y="-14"/>
      <point x="186" y="-1"/>
      <point x="208" y="11" type="curve" smooth="yes"/>
      <point x="228" y="22"/>
      <point x="240" y="31"/>
      <point x="247" y="31" type="curve" smooth="yes"/>
      <point x="253" y="31"/>
      <point x="259" y="23"/>
      <point x="263" y="17" type="curve" smooth="yes"/>
      <point x="280" y="-5"/>
      <point x="304" y="-14"/>
      <point x="328" y="-14" type="curve" smooth="yes"/>
      <point x="377" y="-14"/>
      <point x="412" y="25"/>
      <point x="412" y="30" type="curve" smooth="yes"/>
      <point x="412" y="37"/>
      <point x="409" y="43"/>
      <point x="405" y="43" type="curve" smooth="yes"/>
      <point x="402" y="43"/>
      <point x="397" y="39"/>
      <point x="392" y="36" type="curve" smooth="yes"/>
      <point x="386" y="33"/>
      <point x="377" y="30"/>
      <point x="367" y="30" type="curve" smooth="yes"/>
      <point x="328" y="30"/>
      <point x="319" y="71"/>
      <point x="321" y="117" type="curve" smooth="yes"/>
      <point x="327" y="291" type="line" smooth="yes"/>
      <point x="330" y="366"/>
      <point x="295" y="408"/>
      <point x="223" y="408" type="curve" smooth="yes"/>
      <point x="150" y="408"/>
      <point x="37" y="337"/>
      <point x="37" y="285" type="curve" smooth="yes"/>
      <point x="37" y="276"/>
      <point x="42" y="271"/>
      <point x="51" y="271" type="curve" smooth="yes"/>
      <point x="66" y="271"/>
      <point x="93" y="278"/>
      <point x="108" y="290" type="curve" smooth="yes"/>
      <point x="116" y="296"/>
      <point x="117" y="308"/>
      <point x="118" y="324" type="curve" smooth="yes"/>
      <point x="120" y="355"/>
      <point x="154" y="369"/>
      <point x="182" y="369" type="curve" smooth="yes"/>
      <point x="244" y="369"/>
      <point x="256" y="319"/>
      <point x="255" y="282" type="curve" smooth="yes"/>
      <point x="254" y="236" type="line" smooth="yes"/>
      <point x="254" y="221"/>
      <point x="252" y="212"/>
      <point x="237" y="207" type="curve" smooth="yes"/>
    </contour>
    <contour>
      <point x="112" y="91" type="curve" smooth="yes"/>
      <point x="112" y="130"/>
      <point x="141" y="145"/>
      <point x="200" y="165" type="curve" smooth="yes"/>
      <point x="218" y="171"/>
      <point x="235" y="175"/>
      <point x="241" y="175" type="curve" smooth="yes"/>
      <point x="247" y="175"/>
      <point x="251" y="173"/>
      <point x="251" y="162" type="curve" smooth="yes"/>
      <point x="249" y="103" type="line" smooth="yes"/>
      <point x="248" y="82"/>
      <point x="248" y="68"/>
      <point x="236" y="56" type="curve" smooth="yes"/>
      <point x="226" y="46"/>
      <point x="195" y="31"/>
      <point x="175" y="31" type="curve" smooth="yes"/>
      <point x="124" y="31"/>
      <point x="112" y="74"/>
    </contour>
    <contour>
      <point x="200" y="496" type="curve" smooth="yes" name="hr02"/>
      <point x="269" y="496"/>
      <point x="309" y="538"/>
      <point x="305" y="627" type="curve"/>
      <point x="299" y="631"/>
      <point x="287" y="631"/>
      <point x="283" y="627" type="curve"/>
      <point x="270" y="574"/>
      <point x="232" y="553"/>
      <point x="200" y="553" type="curve" smooth="yes"/>
      <point x="168" y="553"/>
      <point x="130" y="574"/>
      <point x="118" y="627" type="curve"/>
      <point x="113" y="631"/>
      <point x="101" y="631"/>
      <point x="96" y="627" type="curve"/>
      <point x="91" y="538"/>
      <point x="131" y="496"/>
    </contour>
  </outline>
</glyph>
<glyph name="Ccaron" format="1">
  <advance width="696"/>
  <unicode hex="010C"/>
  <outline>
    <contour>
      <point x="44" y="326" type="curve" smooth="yes" name="hr01"/>
      <point x="44" y="197"/>
      <point x="106" y="106"/>
      <point x="186" y="51" type="curve" smooth="yes"/>
      <point x="259" y="2"/>
      <point x="345" y="-16"/>
      <point x="435" y="-16" type="curve" smooth="yes"/>
      <point x="499" y="-16"/>
      <point x="571" y="-1"/>
      <point x="593" y="7" type="curve" smooth="yes"/>
      <point x="604" y="11"/>
      <point x="616" y="15"/>
      <point x="628" y="17" type="curve"/>
      <point x="643" y="36"/>
      <point x="669" y="102"/>
      <point x="676" y="154" type="curve"/>
      <point x="672" y="161"/>
      <point x="657" y="163"/>
      <point x="650" y="158" type="curve"/>
      <point x="627" y="99"/>
      <point x="570" y="15"/>
      <point x="441" y="15" type="curve" smooth="yes"/>
      <point x="277" y="15"/>
      <point x="144" y="131"/>
      <point x="144" y="341" type="curve" smooth="yes"/>
      <point x="144" y="548"/>
      <point x="274" y="645"/>
      <point x="427" y="645" type="curve" smooth="yes"/>
      <point x="572" y="645"/>
      <point x="617" y="567"/>
      <point x="632" y="499" type="curve"/>
      <point x="639" y="493"/>
      <point x="654" y="494"/>
      <point x="659" y="501" type="curve" name="hr02"/>
      <point x="651" y="562"/>
      <point x="646" y="625"/>
      <point x="645" y="648" type="curve"/>
      <point x="636" y="647"/>
      <point x="629" y="649"/>
      <point x="617" y="652" type="curve" smooth="yes"/>
      <point x="570" y="665"/>
      <point x="494" y="676"/>
      <point x="440" y="676" type="curve" smooth="yes" name="hr03"/>
      <point x="336" y="676"/>
      <point x="243" y="648"/>
      <point x="170" y="591" type="curve" smooth="yes"/>
      <point x="94" y="532"/>
      <point x="44" y="437"/>
    </contour>
    <contour>
      <point x="398" y="713" type="line" smooth="yes" name="hr04"/>
      <point x="412" y="701"/>
      <point x="425" y="701"/>
      <point x="439" y="713" type="curve" smooth="yes"/>
      <point x="561" y="821" type="line"/>
      <point x="561" y="829"/>
      <point x="557" y="839"/>
      <point x="550" y="840" type="curve"/>
      <point x="435" y="785" type="line" smooth="yes"/>
      <point x="420" y="778"/>
      <point x="416" y="777"/>
      <point x="403" y="785" type="curve"/>
      <point x="289" y="840" type="line"/>
      <point x="281" y="840"/>
      <point x="274" y="829"/>
      <point x="274" y="821" type="curve"/>
    </contour>
  </outline>
</glyph>
<glyph name="ccaron" format="1">
  <advance width="400"/>
  <unicode hex="010D"/>
  <outline>
    <contour>
      <point x="278" y="408" type="curve" smooth="yes" name="hr00"/>
      <point x="112" y="408"/>
      <point x="36" y="293"/>
      <point x="36" y="185" type="curve" smooth="yes"/>
      <point x="36" y="120"/>
      <point x="59" y="71"/>
      <point x="94" y="37" type="curve" smooth="yes"/>
      <point x="129" y="3"/>
      <point x="178" y="-14"/>
      <point x="231" y="-14" type="curve" smooth="yes"/>
      <point x="289" y="-14"/>
      <point x="364" y="14"/>
      <point x="398" y="88" type="curve"/>
      <point x="397" y="97"/>
      <point x="388" y="104"/>
      <point x="380" y="102" type="curve"/>
      <point x="357" y="68"/>
      <point x="327" y="42"/>
      <point x="269" y="42" type="curve" smooth="yes"/>
      <point x="162" y="42"/>
      <point x="108" y="135"/>
      <point x="108" y="213" type="curve" smooth="yes"/>
      <point x="108" y="319"/>
      <point x="176" y="374"/>
      <point x="246" y="374" type="curve" smooth="yes"/>
      <point x="287" y="374"/>
      <point x="324" y="348"/>
      <point x="346" y="321" type="curve" smooth="yes"/>
      <point x="350" y="316"/>
      <point x="355" y="314"/>
      <point x="360" y="314" type="curve" smooth="yes"/>
      <point x="372" y="314"/>
      <point x="382" y="333"/>
      <point x="382" y="351" type="curve" smooth="yes"/>
      <point x="382" y="368"/>
      <point x="375" y="384"/>
      <point x="367" y="391" type="curve"/>
      <point x="340" y="403"/>
      <point x="301" y="408"/>
    </contour>
    <contour>
      <point x="153" y="665" type="line"/>
      <point x="148" y="665"/>
      <point x="134" y="662"/>
      <point x="133" y="652" type="curve"/>
      <point x="225" y="475" type="line" smooth="yes"/>
      <point x="235" y="456"/>
      <point x="248" y="455"/>
      <point x="258" y="475" type="curve" smooth="yes"/>
      <point x="348" y="652" type="line"/>
      <point x="347" y="662"/>
      <point x="336" y="666"/>
      <point x="330" y="665" type="curve"/>
      <point x="255" y="572" type="line" smooth="yes"/>
      <point x="245" y="560"/>
      <point x="238" y="559"/>
      <point x="228" y="572" type="curve" smooth="yes"/>
    </contour>
  </outline>
</glyph>
<glyph name="Dcaron" format="1">
  <advance width="780"/>
  <unicode hex="010E"/>
  <outline>
    <contour>
      <point x="128" y="150" type="line" smooth="yes" name="hr01"/>
      <point x="128" y="45"/>
      <point x="126" y="33"/>
      <point x="68" y="25" type="curve" smooth="yes" name="hr02"/>
      <point x="45" y="22" type="line"/>
      <point x="39" y="16"/>
      <point x="41" y="0"/>
      <point x="47" y="-3" type="curve" name="hr03"/>
      <point x="94" y="-1"/>
      <point x="130" y="0"/>
      <point x="172" y="0" type="curve" smooth="yes" name="hr04"/>
      <point x="207" y="0"/>
      <point x="271" y="-8"/>
      <point x="335" y="-8" type="curve" smooth="yes" name="hr05"/>
      <point x="412" y="-8"/>
      <point x="494" y="5"/>
      <point x="559" y="40" type="curve" smooth="yes"/>
      <point x="673" y="102"/>
      <point x="734" y="211"/>
      <point x="734" y="338" type="curve" smooth="yes"/>
      <point x="734" y="470"/>
      <point x="666" y="584"/>
      <point x="531" y="633" type="curve" smooth="yes"/>
      <point x="466" y="657"/>
      <point x="395" y="663"/>
      <point x="311" y="663" type="curve" smooth="yes"/>
      <point x="226" y="663"/>
      <point x="145" y="660"/>
      <point x="60" y="655" type="curve"/>
      <point x="50" y="651"/>
      <point x="51" y="635"/>
      <point x="59" y="630" type="curve"/>
      <point x="81" y="627" type="line" smooth="yes"/>
      <point x="123" y="621"/>
      <point x="128" y="600"/>
      <point x="128" y="530" type="curve" smooth="yes"/>
    </contour>
    <contour>
      <point x="210" y="542" type="line" smooth="yes"/>
      <point x="210" y="587"/>
      <point x="212" y="612"/>
      <point x="220" y="618" type="curve" smooth="yes"/>
      <point x="228" y="624"/>
      <point x="260" y="632"/>
      <point x="319" y="632" type="curve" smooth="yes"/>
      <point x="581" y="632"/>
      <point x="634" y="446"/>
      <point x="634" y="336" type="curve" smooth="yes"/>
      <point x="634" y="150"/>
      <point x="547" y="23"/>
      <point x="353" y="23" type="curve" smooth="yes"/>
      <point x="290" y="23"/>
      <point x="252" y="33"/>
      <point x="230" y="64" type="curve" smooth="yes"/>
      <point x="213" y="88"/>
      <point x="210" y="120"/>
      <point x="210" y="173" type="curve" smooth="yes"/>
    </contour>
    <contour>
      <point x="325" y="713" type="line" smooth="yes"/>
      <point x="339" y="701"/>
      <point x="352" y="701"/>
      <point x="366" y="713" type="curve" smooth="yes"/>
      <point x="488" y="821" type="line"/>
      <point x="488" y="829"/>
      <point x="484" y="839"/>
      <point x="477" y="840" type="curve"/>
      <point x="362" y="785" type="line" smooth="yes"/>
      <point x="347" y="778"/>
      <point x="343" y="777"/>
      <point x="330" y="785" type="curve"/>
      <point x="216" y="840" type="line"/>
      <point x="208" y="840"/>
      <point x="201" y="829"/>
      <point x="201" y="821" type="curve"/>
    </contour>
  </outline>
</glyph>
<glyph name="edotaccent" format="1">
  <advance width="396"/>
  <unicode hex="0117"/>
  <outline>
    <contour>
      <point x="315" y="256" type="line" smooth="yes" name="hr01"/>
      <point x="357" y="256"/>
      <point x="371" y="257"/>
      <point x="374" y="263" type="curve" smooth="yes"/>
      <point x="376" y="267"/>
      <point x="378" y="275"/>
      <point x="378" y="289" type="curve" smooth="yes"/>
      <point x="378" y="349"/>
      <point x="322" y="408"/>
      <point x="236" y="408" type="curve" smooth="yes"/>
      <point x="116" y="408"/>
      <point x="35" y="305"/>
      <point x="35" y="182" type="curve" smooth="yes"/>
      <point x="35" y="138"/>
      <point x="47" y="91"/>
      <point x="77" y="52" type="curve" smooth="yes"/>
      <point x="106" y="14"/>
      <point x="157" y="-14"/>
      <point x="222" y="-14" type="curve" smooth="yes"/>
      <point x="274" y="-14"/>
      <point x="346" y="11"/>
      <point x="379" y="79" type="curve"/>
      <point x="378" y="88"/>
      <point x="371" y="94"/>
      <point x="361" y="91" type="curve"/>
      <point x="330" y="52"/>
      <point x="302" y="42"/>
      <point x="269" y="42" type="curve" smooth="yes"/>
      <point x="162" y="42"/>
      <point x="103" y="128"/>
      <point x="103" y="229" type="curve" smooth="yes"/>
      <point x="103" y="254"/>
      <point x="104" y="256"/>
      <point x="130" y="256" type="curve" smooth="yes"/>
    </contour>
    <contour>
      <point x="121" y="286" type="line" smooth="yes"/>
      <point x="114" y="286"/>
      <point x="114" y="289"/>
      <point x="114" y="291" type="curve" smooth="yes"/>
      <point x="115" y="324"/>
      <point x="166" y="378"/>
      <point x="225" y="378" type="curve" smooth="yes"/>
      <point x="283" y="378"/>
      <point x="302" y="343"/>
      <point x="302" y="315" type="curve" smooth="yes"/>
      <point x="302" y="302"/>
      <point x="299" y="298"/>
      <point x="296" y="296" type="curve" smooth="yes"/>
      <point x="288" y="290"/>
      <point x="266" y="286"/>
      <point x="192" y="286" type="curve" smooth="yes"/>
    </contour>
    <contour>
      <point x="232" y="604" type="curve" smooth="yes" name="hr02"/>
      <point x="202" y="604"/>
      <point x="179" y="584"/>
      <point x="179" y="551" type="curve" smooth="yes"/>
      <point x="179" y="524"/>
      <point x="198" y="502"/>
      <point x="229" y="502" type="curve" smooth="yes"/>
      <point x="257" y="502"/>
      <point x="280" y="517"/>
      <point x="280" y="552" type="curve" smooth="yes"/>
      <point x="280" y="580"/>
      <point x="262" y="604"/>
    </contour>
  </outline>
</glyph>
<glyph name="lacute" format="1">
  <advance width="247"/>
  <unicode hex="013A"/>
  <outline>
    <contour>
      <point x="162" y="585" type="line" smooth="yes" name="hr00"/>
      <point x="162" y="629"/>
      <point x="164" y="679"/>
      <point x="165" y="709" type="curve"/>
      <point x="163" y="713"/>
      <point x="159" y="715"/>
      <point x="155" y="715" type="curve"/>
      <point x="119" y="696"/>
      <point x="72" y="681"/>
      <point x="47" y="673" type="curve"/>
      <point x="42" y="670"/>
      <point x="42" y="656"/>
      <point x="47" y="653" type="curve" smooth="yes"/>
      <point x="57" y="647" type="line" smooth="yes"/>
      <point x="87" y="629"/>
      <point x="88" y="623"/>
      <point x="88" y="564" type="curve" smooth="yes"/>
      <point x="88" y="112" type="line" smooth="yes"/>
      <point x="88" y="40"/>
      <point x="87" y="30"/>
      <point x="50" y="25" type="curve" smooth="yes"/>
      <point x="27" y="22" type="line"/>
      <point x="20" y="17"/>
      <point x="22" y="0"/>
      <point x="29" y="-3" type="curve"/>
      <point x="59" y="-1"/>
      <point x="89" y="0"/>
      <point x="125" y="0" type="curve" smooth="yes"/>
      <point x="160" y="0"/>
      <point x="189" y="-1"/>
      <point x="222" y="-3" type="curve"/>
      <point x="229" y="0"/>
      <point x="231" y="17"/>
      <point x="224" y="22" type="curve"/>
      <point x="200" y="25" type="line" smooth="yes"/>
      <point x="164" y="30"/>
      <point x="162" y="40"/>
      <point x="162" y="112" type="curve" smooth="yes"/>
    </contour>
    <contour>
      <point x="235" y="794" type="line" smooth="yes"/>
      <point x="249" y="800"/>
      <point x="256" y="804"/>
      <point x="259" y="809" type="curve" smooth="yes"/>
      <point x="262" y="816"/>
      <point x="262" y="830"/>
      <point x="253" y="848" type="curve" smooth="yes"/>
      <point x="245" y="863"/>
      <point x="233" y="870"/>
      <point x="227" y="870" type="curve" smooth="yes"/>
      <point x="221" y="870"/>
      <point x="212" y="866"/>
      <point x="201" y="857" type="curve" smooth="yes"/>
      <point x="68" y="749" type="line"/>
      <point x="65" y="738"/>
      <point x="71" y="728"/>
      <point x="77" y="726" type="curve"/>
    </contour>
  </outline>
</glyph>
<glyph name="uni013C" format="1">
  <advance width="247"/>
  <unicode hex="013C"/>
  <outline>
    <contour>
      <point x="162" y="585" type="line" smooth="yes" name="hr01"/>
      <point x="162" y="629"/>
      <point x="164" y="679"/>
      <point x="165" y="709" type="curve"/>
      <point x="163" y="713"/>
      <point x="159" y="715"/>
      <point x="155" y="715" type="curve"/>
      <point x="119" y="696"/>
      <point x="72" y="681"/>
      <point x="47" y="673" type="curve"/>
      <point x="42" y="670"/>
      <point x="42" y="656"/>
      <point x="47" y="653" type="curve" smooth="yes"/>
      <point x="57" y="647" type="line" smooth="yes"/>
      <point x="87" y="629"/>
      <point x="88" y="623"/>
      <point x="88" y="564" type="curve" smooth="yes"/>
      <point x="88" y="112" type="line" smooth="yes"/>
      <point x="88" y="40"/>
      <point x="87" y="30"/>
      <point x="50" y="25" type="curve" smooth="yes"/>
      <point x="27" y="22" type="line"/>
      <point x="20" y="17"/>
      <point x="22" y="0"/>
      <point x="29" y="-3" type="curve"/>
      <point x="59" y="-1"/>
      <point x="89" y="0"/>
      <point x="125" y="0" type="curve" smooth="yes"/>
      <point x="160" y="0"/>
      <point x="189" y="-1"/>
      <point x="222" y="-3" type="curve"/>
      <point x="229" y="0"/>
      <point x="231" y="17"/>
      <point x="224" y="22" type="curve"/>
      <point x="200" y="25" type="line" smooth="yes"/>
      <point x="164" y="30"/>
      <point x="162" y="40"/>
      <point x="162" y="112" type="curve" smooth="yes"/>
    </contour>
    <contour>
      <point x="111" y="-53" type="curve" smooth="yes" name="hr02"/>
      <point x="81" y="-53"/>
      <point x="65" y="-72"/>
      <point x="65" y="-91" type="curve" smooth="yes"/>
      <point x="65" y="-101"/>
      <point x="69" y="-110"/>
      <point x="81" y="-116" type="curve" smooth="yes"/>
      <point x="89" y="-120"/>
      <point x="123" y="-132"/>
      <point x="123" y="-163" type="curve" smooth="yes"/>
      <point x="123" y="-202"/>
      <point x="85" y="-225"/>
      <point x="58" y="-233" type="curve"/>
      <point x="54" y="-237"/>
      <point x="55" y="-260"/>
      <point x="64" y="-264" type="curve"/>
      <point x="129" y="-246"/>
      <point x="189" y="-207"/>
      <point x="189" y="-136" type="curve" smooth="yes"/>
      <point x="189" y="-80"/>
      <point x="143" y="-53"/>
    </contour>
  </outline>
</glyph>
<glyph name="lcaron" format="1">
  <advance width="247"/>
  <unicode hex="013E"/>
  <outline>
    <contour>
      <point x="162" y="585" type="line" smooth="yes" name="hr00"/>
      <point x="162" y="629"/>
      <point x="164" y="679"/>
      <point x="165" y="709" type="curve"/>
      <point x="163" y="713"/>
      <point x="159" y="715"/>
      <point x="155" y="715" type="curve"/>
      <point x="119" y="696"/>
      <point x="72" y="681"/>
      <point x="47" y="673" type="curve"/>
      <point x="42" y="670"/>
      <point x="42" y="656"/>
      <point x="47" y="653" type="curve" smooth="yes"/>
      <point x="57" y="647" type="line" smooth="yes"/>
      <point x="87" y="629"/>
      <point x="88" y="623"/>
      <point x="88" y="564" type="curve" smooth="yes"/>
      <point x="88" y="112" type="line" smooth="yes"/>
      <point x="88" y="40"/>
      <point x="87" y="30"/>
      <point x="50" y="25" type="curve" smooth="yes"/>
      <point x="27" y="22" type="line"/>
      <point x="20" y="17"/>
      <point x="22" y="0"/>
      <point x="29" y="-3" type="curve"/>
      <point x="59" y="-1"/>
      <point x="89" y="0"/>
      <point x="125" y="0" type="curve" smooth="yes"/>
      <point x="160" y="0"/>
      <point x="189" y="-1"/>
      <point x="222" y="-3" type="curve"/>
      <point x="229" y="0"/>
      <point x="231" y="17"/>
      <point x="224" y="22" type="curve"/>
      <point x="200" y="25" type="line" smooth="yes"/>
      <point x="164" y="30"/>
      <point x="162" y="40"/>
      <point x="162" y="112" type="curve" smooth="yes"/>
    </contour>
    <contour>
      <point x="282" y="715" type="curve" smooth="yes"/>
      <point x="252" y="715"/>
      <point x="221" y="682"/>
      <point x="221" y="669" type="curve" smooth="yes"/>
      <point x="221" y="661"/>
      <point x="226" y="652"/>
      <point x="230" y="646" type="curve" smooth="yes"/>
      <point x="237" y="637"/>
      <point x="245" y="617"/>
      <point x="245" y="609" type="curve" smooth="yes"/>
      <point x="245" y="577"/>
      <point x="225" y="535"/>
      <point x="212" y="513" type="curve" smooth="yes"/>
      <point x="207" y="504"/>
      <point x="216" y="492"/>
      <point x="228" y="496" type="curve"/>
      <point x="264" y="523"/>
      <point x="304" y="595"/>
      <point x="304" y="663" type="curve" smooth="yes"/>
      <point x="304" y="707"/>
      <point x="291" y="715"/>
    </contour>
  </outline>
</glyph>
<glyph name="ncaron" format="1">
  <advance width="525"/>
  <unicode hex="0148"/>
  <outline>
    <contour>
      <point x="98" y="112" type="line" smooth="yes" name="hr00"/>
      <point x="98" y="40"/>
      <point x="97" y="30"/>
      <point x="60" y="25" type="curve" smooth="yes"/>
      <point x="39" y="22" type="line"/>
      <point x="32" y="17"/>
      <point x="34" y="0"/>
      <point x="41" y="-3" type="curve"/>
      <point x="69" y="-1"/>
      <point x="99" y="0"/>
      <point x="135" y="0" type="curve" smooth="yes"/>
      <point x="170" y="0"/>
      <point x="199" y="-1"/>
      <point x="226" y="-3" type="curve"/>
      <point x="233" y="0"/>
      <point x="235" y="17"/>
      <point x="228" y="22" type="curve"/>
      <point x="210" y="25" type="line" smooth="yes"/>
      <point x="174" y="31"/>
      <point x="172" y="40"/>
      <point x="172" y="112" type="curve" smooth="yes"/>
      <point x="172" y="265" type="line" smooth="yes"/>
      <point x="172" y="294"/>
      <point x="174" y="308"/>
      <point x="187" y="325" type="curve" smooth="yes"/>
      <point x="201" y="344"/>
      <point x="234" y="360"/>
      <point x="272" y="360" type="curve" smooth="yes"/>
      <point x="340" y="360"/>
      <point x="366" y="318"/>
      <point x="366" y="261" type="curve" smooth="yes"/>
      <point x="366" y="112" type="line" smooth="yes"/>
      <point x="366" y="40"/>
      <point x="365" y="31"/>
      <point x="328" y="25" type="curve" smooth="yes"/>
      <point x="309" y="22" type="line"/>
      <point x="302" y="17"/>
      <point x="304" y="0"/>
      <point x="311" y="-3" type="curve"/>
      <point x="338" y="-1"/>
      <point x="368" y="0"/>
      <point x="404" y="0" type="curve" smooth="yes"/>
      <point x="439" y="0"/>
      <point x="468" y="-1"/>
      <point x="498" y="-3" type="curve"/>
      <point x="505" y="0"/>
      <point x="507" y="17"/>
      <point x="500" y="22" type="curve"/>
      <point x="478" y="25" type="line" smooth="yes"/>
      <point x="442" y="30"/>
      <point x="440" y="40"/>
      <point x="440" y="112" type="curve" smooth="yes"/>
      <point x="440" y="284" type="line" smooth="yes"/>
      <point x="440" y="351"/>
      <point x="406" y="408"/>
      <point x="323" y="408" type="curve" smooth="yes"/>
      <point x="272" y="408"/>
      <point x="225" y="383"/>
      <point x="183" y="357" type="curve"/>
      <point x="176" y="357"/>
      <point x="172" y="362"/>
      <point x="172" y="368" type="curve" smooth="yes"/>
      <point x="172" y="377"/>
      <point x="172" y="392"/>
      <point x="174" y="415" type="curve"/>
      <point x="172" y="420"/>
      <point x="167" y="422"/>
      <point x="163" y="422" type="curve"/>
      <point x="143" y="407"/>
      <point x="86" y="381"/>
      <point x="63" y="373" type="curve"/>
      <point x="58" y="370"/>
      <point x="58" y="359"/>
      <point x="62" y="355" type="curve"/>
      <point x="71" y="349" type="line" smooth="yes"/>
      <point x="98" y="331"/>
      <point x="98" y="326"/>
      <point x="98" y="287" type="curve" smooth="yes"/>
    </contour>
    <contour>
      <point x="178" y="657" type="line"/>
      <point x="173" y="657"/>
      <point x="159" y="654"/>
      <point x="158" y="644" type="curve"/>
      <point x="250" y="475" type="line" smooth="yes"/>
      <point x="260" y="457"/>
      <point x="273" y="456"/>
      <point x="283" y="475" type="curve" smooth="yes"/>
      <point x="373" y="644" type="line"/>
      <point x="372" y="654"/>
      <point x="361" y="658"/>
      <point x="355" y="657" type="curve"/>
      <point x="280" y="564" type="line"/>
      <point x="265" y="549"/>
      <point x="265" y="550"/>
      <point x="253" y="564" type="curve" smooth="yes"/>
    </contour>
  </outline>
</glyph>
<glyph name="Omacron" format="1">
  <advance width="795"/>
  <unicode hex="014C"/>
  <outline>
    <contour>
      <point x="402" y="-16" type="curve" smooth="yes" name="hr00"/>
      <point x="595" y="-16"/>
      <point x="749" y="131"/>
      <point x="749" y="333" type="curve" smooth="yes"/>
      <point x="749" y="509"/>
      <point x="633" y="676"/>
      <point x="402" y="676" type="curve" smooth="yes"/>
      <point x="196" y="676"/>
      <point x="46" y="523"/>
      <point x="46" y="323" type="curve" smooth="yes"/>
      <point x="46" y="143"/>
      <point x="180" y="-16"/>
    </contour>
    <contour>
      <point x="415" y="15" type="curve" smooth="yes"/>
      <point x="218" y="15"/>
      <point x="146" y="207"/>
      <point x="146" y="355" type="curve" smooth="yes"/>
      <point x="146" y="574"/>
      <point x="281" y="645"/>
      <point x="385" y="645" type="curve" smooth="yes"/>
      <point x="576" y="645"/>
      <point x="649" y="467"/>
      <point x="649" y="302" type="curve" smooth="yes"/>
      <point x="649" y="105"/>
      <point x="535" y="15"/>
    </contour>
    <contour>
      <point x="518" y="737" type="line"/>
      <point x="530" y="750"/>
      <point x="530" y="781"/>
      <point x="518" y="794" type="curve"/>
      <point x="287" y="794" type="line"/>
      <point x="276" y="781"/>
      <point x="276" y="750"/>
      <point x="287" y="737" type="curve"/>
    </contour>
  </outline>
</glyph>
<glyph name="OE" format="1">
  <advance width="1012"/>
  <unicode hex="0152"/>
  <outline>
    <contour>
      <point x="619" y="660" type="line" smooth="yes" name="hr01"/>
      <point x="560" y="660"/>
      <point x="500" y="663"/>
      <point x="440" y="663" type="curve" smooth="yes" name="hr02"/>
      <point x="202" y="663"/>
      <point x="46" y="521"/>
      <point x="46" y="325" type="curve" smooth="yes"/>
      <point x="46" y="126"/>
      <point x="198" y="-6"/>
      <point x="431" y="-6" type="curve" smooth="yes"/>
      <point x="496" y="-6"/>
      <point x="557" y="0"/>
      <point x="628" y="0" type="curve" smooth="yes" name="hr03"/>
      <point x="689" y="0" type="line" smooth="yes"/>
      <point x="779" y="0"/>
      <point x="867" y="-1"/>
      <point x="957" y="-3" type="curve"/>
      <point x="970" y="24"/>
      <point x="995" y="100"/>
      <point x="1002" y="136" type="curve"/>
      <point x="998" y="145"/>
      <point x="984" y="148"/>
      <point x="977" y="143" type="curve"/>
      <point x="951" y="91"/>
      <point x="925" y="56"/>
      <point x="906" y="46" type="curve" smooth="yes"/>
      <point x="884" y="34"/>
      <point x="856" y="31"/>
      <point x="779" y="31" type="curve" smooth="yes"/>
      <point x="690" y="31"/>
      <point x="669" y="42"/>
      <point x="658" y="54" type="curve" smooth="yes"/>
      <point x="642" y="71"/>
      <point x="639" y="104"/>
      <point x="639" y="158" type="curve" smooth="yes"/>
      <point x="639" y="299" type="line" smooth="yes"/>
      <point x="639" y="325"/>
      <point x="642" y="326"/>
      <point x="671" y="326" type="curve" smooth="yes"/>
      <point x="729" y="326" type="line" smooth="yes"/>
      <point x="768" y="326"/>
      <point x="793" y="325"/>
      <point x="806" y="321" type="curve" smooth="yes"/>
      <point x="826" y="315"/>
      <point x="833" y="300"/>
      <point x="837" y="283" type="curve" smooth="yes"/>
      <point x="847" y="243" type="line"/>
      <point x="852" y="237"/>
      <point x="868" y="237"/>
      <point x="872" y="244" type="curve"/>
      <point x="872" y="267"/>
      <point x="868" y="304"/>
      <point x="868" y="341" type="curve" smooth="yes"/>
      <point x="868" y="378"/>
      <point x="872" y="418"/>
      <point x="872" y="441" type="curve"/>
      <point x="868" y="448"/>
      <point x="852" y="448"/>
      <point x="847" y="442" type="curve"/>
      <point x="838" y="402" type="line" smooth="yes"/>
      <point x="832" y="376"/>
      <point x="826" y="370"/>
      <point x="814" y="366" type="curve" smooth="yes"/>
      <point x="802" y="363"/>
      <point x="771" y="361"/>
      <point x="729" y="361" type="curve" smooth="yes"/>
      <point x="671" y="361" type="line" smooth="yes"/>
      <point x="642" y="361"/>
      <point x="639" y="361"/>
      <point x="639" y="388" type="curve" smooth="yes"/>
      <point x="639" y="589" type="line" smooth="yes"/>
      <point x="639" y="627"/>
      <point x="639" y="629"/>
      <point x="668" y="629" type="curve" smooth="yes"/>
      <point x="740" y="629" type="line" smooth="yes"/>
      <point x="785" y="629"/>
      <point x="816" y="629"/>
      <point x="837" y="624" type="curve" smooth="yes"/>
      <point x="889" y="612"/>
      <point x="898" y="575"/>
      <point x="913" y="528" type="curve"/>
      <point x="919" y="522"/>
      <point x="934" y="524"/>
      <point x="938" y="531" type="curve"/>
      <point x="934" y="574"/>
      <point x="928" y="646"/>
      <point x="923" y="663" type="curve" name="hr04"/>
      <point x="910" y="660"/>
      <point x="852" y="660"/>
      <point x="788" y="660" type="curve" smooth="yes" name="hr05"/>
    </contour>
    <contour>
      <point x="557" y="123" type="line" smooth="yes"/>
      <point x="557" y="76"/>
      <point x="552" y="54"/>
      <point x="527" y="40" type="curve"/>
      <point x="507" y="31"/>
      <point x="474" y="25"/>
      <point x="440" y="25" type="curve" smooth="yes"/>
      <point x="193" y="25"/>
      <point x="146" y="226"/>
      <point x="146" y="329" type="curve" smooth="yes"/>
      <point x="146" y="491"/>
      <point x="220" y="632"/>
      <point x="435" y="632" type="curve" smooth="yes" name="hr06"/>
      <point x="478" y="632"/>
      <point x="504" y="629"/>
      <point x="531" y="620" type="curve" smooth="yes"/>
      <point x="547" y="614"/>
      <point x="557" y="597"/>
      <point x="557" y="548" type="curve" smooth="yes"/>
    </contour>
  </outline>
</glyph>
<glyph name="uni015E" format="1">
  <advance width="489"/>
  <unicode hex="015E"/>
  <outline>
    <contour>
      <point x="177" y="-102" type="line" name="hr01"/>
      <point x="177" y="-107" type="line"/>
      <point x="210" y="-120"/>
      <point x="235" y="-145"/>
      <point x="235" y="-169" type="curve" smooth="yes"/>
      <point x="235" y="-191"/>
      <point x="221" y="-198"/>
      <point x="210" y="-198" type="curve" smooth="yes"/>
      <point x="197" y="-198"/>
      <point x="179" y="-171"/>
      <point x="161" y="-171" type="curve" smooth="yes"/>
      <point x="147" y="-171"/>
      <point x="138" y="-185"/>
      <point x="138" y="-195" type="curve" smooth="yes"/>
      <point x="138" y="-214"/>
      <point x="157" y="-228"/>
      <point x="192" y="-228" type="curve" smooth="yes"/>
      <point x="240" y="-228"/>
      <point x="288" y="-193"/>
      <point x="288" y="-146" type="curve" smooth="yes"/>
      <point x="288" y="-119"/>
      <point x="270" y="-97"/>
      <point x="242" y="-77" type="curve" smooth="yes"/>
      <point x="234" y="-72"/>
      <point x="233" y="-65"/>
      <point x="237" y="-58" type="curve" smooth="yes"/>
      <point x="266" y="-12" type="line"/>
      <point x="372" y="1"/>
      <point x="437" y="72"/>
      <point x="437" y="169" type="curve" smooth="yes"/>
      <point x="437" y="264"/>
      <point x="375" y="322"/>
      <point x="312" y="361" type="curve" smooth="yes"/>
      <point x="232" y="411" type="line" smooth="yes"/>
      <point x="195" y="434"/>
      <point x="147" y="476"/>
      <point x="147" y="534" type="curve" smooth="yes"/>
      <point x="147" y="580"/>
      <point x="168" y="645"/>
      <point x="266" y="645" type="curve" smooth="yes"/>
      <point x="362" y="645"/>
      <point x="389" y="580"/>
      <point x="402" y="532" type="curve"/>
      <point x="407" y="526"/>
      <point x="423" y="529"/>
      <point x="427" y="535" type="curve" name="hr02"/>
      <point x="427" y="577"/>
      <point x="418" y="633"/>
      <point x="409" y="657" type="curve"/>
      <point x="401" y="657"/>
      <point x="387" y="659"/>
      <point x="374" y="663" type="curve" smooth="yes"/>
      <point x="348" y="670"/>
      <point x="312" y="676"/>
      <point x="281" y="676" type="curve" smooth="yes" name="hr03"/>
      <point x="151" y="676"/>
      <point x="77" y="599"/>
      <point x="77" y="504" type="curve" smooth="yes"/>
      <point x="77" y="422"/>
      <point x="135" y="365"/>
      <point x="185" y="332" type="curve" smooth="yes"/>
      <point x="280" y="270" type="line" smooth="yes"/>
      <point x="353" y="223"/>
      <point x="362" y="174"/>
      <point x="362" y="130" type="curve" smooth="yes"/>
      <point x="362" y="70"/>
      <point x="321" y="15"/>
      <point x="237" y="15" type="curve" smooth="yes"/>
      <point x="121" y="15"/>
      <point x="80" y="113"/>
      <point x="65" y="164" type="curve"/>
      <point x="61" y="170"/>
      <point x="46" y="168"/>
      <point x="41" y="161" type="curve"/>
      <point x="43" y="114"/>
      <point x="56" y="43"/>
      <point x="68" y="21" type="curve"/>
      <point x="87" y="10"/>
      <point x="140" y="-16"/>
      <point x="224" y="-16" type="curve" smooth="yes"/>
      <point x="226" y="-16"/>
      <point x="228" y="-16"/>
      <point x="230" y="-15" type="curve"/>
    </contour>
  </outline>
</glyph>
<glyph name="uni0162" format="1">
  <advance width="660"/>
  <unicode hex="0162"/>
  <outline>
    <contour>
      <point x="368" y="595" type="line" smooth="yes" name="hr01"/>
      <point x="368" y="628"/>
      <point x="367" y="629"/>
      <point x="397" y="629" type="curve" smooth="yes"/>
      <point x="468" y="629" type="line" smooth="yes"/>
      <point x="523" y="629"/>
      <point x="561" y="621"/>
      <point x="584" y="604" type="curve" smooth="yes"/>
      <point x="599" y="593"/>
      <point x="606" y="556"/>
      <point x="609" y="531" type="curve" name="hr02"/>
      <point x="614" y="525"/>
      <point x="631" y="525"/>
      <point x="635" y="533" type="curve"/>
      <point x="632" y="563"/>
      <point x="639" y="644"/>
      <point x="650" y="685" type="curve" name="hr03"/>
      <point x="648" y="689"/>
      <point x="637" y="690"/>
      <point x="632" y="688" type="curve"/>
      <point x="617" y="662"/>
      <point x="608" y="660"/>
      <point x="554" y="660" type="curve" smooth="yes"/>
      <point x="149" y="660" type="line" smooth="yes"/>
      <point x="103" y="660"/>
      <point x="70" y="659"/>
      <point x="64" y="691" type="curve"/>
      <point x="61" y="694"/>
      <point x="48" y="693"/>
      <point x="45" y="691" type="curve"/>
      <point x="38" y="651"/>
      <point x="23" y="587"/>
      <point x="7" y="542" type="curve"/>
      <point x="11" y="534"/>
      <point x="25" y="529"/>
      <point x="33" y="535" type="curve"/>
      <point x="44" y="560"/>
      <point x="54" y="582"/>
      <point x="78" y="604" type="curve" smooth="yes"/>
      <point x="103" y="627"/>
      <point x="158" y="629"/>
      <point x="201" y="629" type="curve" smooth="yes"/>
      <point x="256" y="629" type="line" smooth="yes"/>
      <point x="286" y="629"/>
      <point x="286" y="628"/>
      <point x="286" y="597" type="curve" smooth="yes"/>
      <point x="286" y="150" type="line" smooth="yes"/>
      <point x="286" y="45"/>
      <point x="281" y="30"/>
      <point x="224" y="25" type="curve" smooth="yes"/>
      <point x="188" y="22" type="line"/>
      <point x="180" y="17"/>
      <point x="182" y="0"/>
      <point x="188" y="-3" type="curve" name="hr04"/>
      <point x="249" y="-1"/>
      <point x="284" y="0"/>
      <point x="322" y="0" type="curve" name="hr05"/>
      <point x="259" y="-102" type="line"/>
      <point x="259" y="-107" type="line"/>
      <point x="292" y="-120"/>
      <point x="317" y="-145"/>
      <point x="317" y="-169" type="curve" smooth="yes"/>
      <point x="317" y="-191"/>
      <point x="303" y="-198"/>
      <point x="292" y="-198" type="curve" smooth="yes"/>
      <point x="279" y="-198"/>
      <point x="261" y="-171"/>
      <point x="243" y="-171" type="curve" smooth="yes"/>
      <point x="229" y="-171"/>
      <point x="220" y="-185"/>
      <point x="220" y="-195" type="curve" smooth="yes"/>
      <point x="220" y="-214"/>
      <point x="239" y="-228"/>
      <point x="274" y="-228" type="curve" smooth="yes"/>
      <point x="322" y="-228"/>
      <point x="370" y="-193"/>
      <point x="370" y="-146" type="curve" smooth="yes"/>
      <point x="370" y="-119"/>
      <point x="352" y="-97"/>
      <point x="327" y="-80" type="curve" smooth="yes"/>
      <point x="316" y="-72"/>
      <point x="315" y="-65"/>
      <point x="319" y="-58" type="curve" smooth="yes" name="hr06"/>
      <point x="355" y="0" type="line"/>
      <point x="384" y="0"/>
      <point x="414" y="-1"/>
      <point x="458" y="-3" type="curve" name="hr07"/>
      <point x="464" y="0"/>
      <point x="466" y="18"/>
      <point x="460" y="22" type="curve"/>
      <point x="428" y="25" type="line" smooth="yes" name="hr08"/>
      <point x="370" y="30"/>
      <point x="368" y="45"/>
      <point x="368" y="150" type="curve" smooth="yes"/>
    </contour>
  </outline>
</glyph>
<glyph name="tcaron" format="1">
  <advance width="307"/>
  <unicode hex="0165"/>
  <outline>
    <contour>
      <point x="293" y="352" type="line" name="hr00"/>
      <point x="302" y="358"/>
      <point x="304" y="385"/>
      <point x="292" y="394" type="curve"/>
      <point x="181" y="394" type="line" smooth="yes"/>
      <point x="164" y="394"/>
      <point x="163" y="395"/>
      <point x="163" y="413" type="curve" smooth="yes"/>
      <point x="163" y="458" type="line"/>
      <point x="159" y="465"/>
      <point x="147" y="465"/>
      <point x="142" y="463" type="curve"/>
      <point x="132" y="443"/>
      <point x="113" y="416"/>
      <point x="100" y="404" type="curve" smooth="yes"/>
      <point x="90" y="395"/>
      <point x="65" y="382"/>
      <point x="36" y="373" type="curve"/>
      <point x="32" y="367"/>
      <point x="33" y="356"/>
      <point x="39" y="352" type="curve"/>
      <point x="67" y="352" type="line" smooth="yes"/>
      <point x="87" y="352"/>
      <point x="88" y="350"/>
      <point x="88" y="323" type="curve" smooth="yes"/>
      <point x="88" y="94" type="line" smooth="yes"/>
      <point x="88" y="34"/>
      <point x="106" y="-14"/>
      <point x="192" y="-14" type="curve" smooth="yes"/>
      <point x="243" y="-14"/>
      <point x="279" y="11"/>
      <point x="297" y="32" type="curve"/>
      <point x="299" y="38"/>
      <point x="295" y="49"/>
      <point x="287" y="49" type="curve" smooth="yes"/>
      <point x="284" y="49"/>
      <point x="271" y="38"/>
      <point x="262" y="35" type="curve" smooth="yes"/>
      <point x="254" y="32"/>
      <point x="245" y="30"/>
      <point x="235" y="30" type="curve" smooth="yes"/>
      <point x="169" y="30"/>
      <point x="162" y="83"/>
      <point x="162" y="141" type="curve" smooth="yes"/>
      <point x="162" y="328" type="line" smooth="yes"/>
      <point x="162" y="349"/>
      <point x="163" y="352"/>
      <point x="180" y="352" type="curve" smooth="yes"/>
    </contour>
    <contour>
      <point x="293" y="715" type="curve" smooth="yes"/>
      <point x="263" y="715"/>
      <point x="232" y="682"/>
      <point x="232" y="669" type="curve" smooth="yes"/>
      <point x="232" y="661"/>
      <point x="237" y="652"/>
      <point x="241" y="646" type="curve" smooth="yes"/>
      <point x="248" y="637"/>
      <point x="256" y="617"/>
      <point x="256" y="609" type="curve" smooth="yes"/>
      <point x="256" y="577"/>
      <point x="236" y="535"/>
      <point x="223" y="513" type="curve" smooth="yes"/>
      <point x="218" y="504"/>
      <point x="227" y="492"/>
      <point x="239" y="496" type="curve"/>
      <point x="275" y="523"/>
      <point x="315" y="595"/>
      <point x="315" y="663" type="curve" smooth="yes"/>
      <point x="315" y="707"/>
      <point x="302" y="715"/>
    </contour>
  </outline>
</glyph>
<glyph name="florin" format="1">
  <advance width="500"/>
  <unicode hex="0192"/>
  <outline>
    <contour>
      <point x="117" y="427" type="line" name="hr00"/>
      <point x="110" y="421"/>
      <point x="110" y="399"/>
      <point x="117" y="394" type="curve"/>
      <point x="202" y="394" type="line"/>
      <point x="181" y="264"/>
      <point x="158" y="136"/>
      <point x="147" y="67" type="curve" smooth="yes"/>
      <point x="127" y="-55"/>
      <point x="105" y="-76"/>
      <point x="86" y="-76" type="curve" smooth="yes"/>
      <point x="68" y="-76"/>
      <point x="40" y="-58"/>
      <point x="21" y="-41" type="curve"/>
      <point x="15" y="-34"/>
      <point x="4" y="-26"/>
      <point x="-4" y="-26" type="curve" smooth="yes"/>
      <point x="-10" y="-26"/>
      <point x="-21" y="-37"/>
      <point x="-21" y="-58" type="curve" smooth="yes"/>
      <point x="-21" y="-92"/>
      <point x="1" y="-122"/>
      <point x="44" y="-122" type="curve" smooth="yes"/>
      <point x="87" y="-122"/>
      <point x="116" y="-103"/>
      <point x="139" y="-82" type="curve" smooth="yes"/>
      <point x="180" y="-45"/>
      <point x="217" y="27"/>
      <point x="251" y="237" type="curve" smooth="yes"/>
      <point x="260" y="290"/>
      <point x="269" y="341"/>
      <point x="279" y="394" type="curve"/>
      <point x="400" y="394" type="line"/>
      <point x="410" y="401"/>
      <point x="408" y="421"/>
      <point x="400" y="427" type="curve"/>
      <point x="287" y="427" type="line"/>
      <point x="306" y="545"/>
      <point x="332" y="655"/>
      <point x="376" y="655" type="curve" smooth="yes"/>
      <point x="399" y="655"/>
      <point x="415" y="637"/>
      <point x="427" y="618" type="curve" smooth="yes"/>
      <point x="435" y="606"/>
      <point x="442" y="600"/>
      <point x="451" y="600" type="curve" smooth="yes"/>
      <point x="460" y="600"/>
      <point x="487" y="617"/>
      <point x="487" y="646" type="curve" smooth="yes"/>
      <point x="487" y="668"/>
      <point x="466" y="697"/>
      <point x="416" y="697" type="curve" smooth="yes"/>
      <point x="338" y="697"/>
      <point x="276" y="619"/>
      <point x="250" y="565" type="curve" smooth="yes"/>
      <point x="232" y="527"/>
      <point x="220" y="482"/>
      <point x="209" y="427" type="curve"/>
    </contour>
  </outline>
</glyph>
<glyph name="uni0218" format="1">
  <advance width="489"/>
  <unicode hex="0218"/>
  <outline>
    <contour>
      <point x="437" y="169" type="curve" smooth="yes" name="hr01"/>
      <point x="437" y="264"/>
      <point x="375" y="322"/>
      <point x="312" y="361" type="curve" smooth="yes"/>
      <point x="232" y="411" type="line" smooth="yes"/>
      <point x="195" y="434"/>
      <point x="147" y="476"/>
      <point x="147" y="534" type="curve" smooth="yes"/>
      <point x="147" y="580"/>
      <point x="168" y="645"/>
      <point x="266" y="645" type="curve" smooth="yes"/>
      <point x="362" y="645"/>
      <point x="389" y="580"/>
      <point x="402" y="532" type="curve"/>
      <point x="407" y="526"/>
      <point x="423" y="529"/>
      <point x="427" y="535" type="curve" name="hr02"/>
      <point x="427" y="577"/>
      <point x="418" y="633"/>
      <point x="409" y="657" type="curve"/>
      <point x="401" y="657"/>
      <point x="387" y="659"/>
      <point x="374" y="663" type="curve" smooth="yes"/>
      <point x="348" y="670"/>
      <point x="312" y="676"/>
      <point x="281" y="676" type="curve" smooth="yes" name="hr03"/>
      <point x="151" y="676"/>
      <point x="77" y="599"/>
      <point x="77" y="504" type="curve" smooth="yes"/>
      <point x="77" y="422"/>
      <point x="135" y="365"/>
      <point x="185" y="332" type="curve" smooth="yes"/>
      <point x="280" y="270" type="line" smooth="yes"/>
      <point x="353" y="223"/>
      <point x="362" y="174"/>
      <point x="362" y="130" type="curve" smooth="yes"/>
      <point x="362" y="70"/>
      <point x="321" y="15"/>
      <point x="237" y="15" type="curve" smooth="yes"/>
      <point x="121" y="15"/>
      <point x="80" y="113"/>
      <point x="65" y="164" type="curve"/>
      <point x="61" y="170"/>
      <point x="46" y="168"/>
      <point x="41" y="161" type="curve"/>
      <point x="43" y="114"/>
      <point x="56" y="43"/>
      <point x="68" y="21" type="curve"/>
      <point x="87" y="10"/>
      <point x="140" y="-16"/>
      <point x="224" y="-16" type="curve" smooth="yes"/>
      <point x="354" y="-16"/>
      <point x="437" y="59"/>
    </contour>
    <contour>
      <point x="232" y="-58" type="curve" smooth="yes"/>
      <point x="202" y="-58"/>
      <point x="185" y="-77"/>
      <point x="185" y="-96" type="curve" smooth="yes"/>
      <point x="185" y="-106"/>
      <point x="190" y="-115"/>
      <point x="202" y="-121" type="curve" smooth="yes"/>
      <point x="210" y="-125"/>
      <point x="248" y="-137"/>
      <point x="248" y="-168" type="curve" smooth="yes"/>
      <point x="248" y="-207"/>
      <point x="205" y="-230"/>
      <point x="179" y="-238" type="curve"/>
      <point x="174" y="-242"/>
      <point x="180" y="-265"/>
      <point x="189" y="-269" type="curve"/>
      <point x="249" y="-251"/>
      <point x="305" y="-212"/>
      <point x="305" y="-141" type="curve" smooth="yes"/>
      <point x="305" y="-85"/>
      <point x="263" y="-58"/>
    </contour>
  </outline>
</glyph>
<glyph name="breve" format="1">
  <advance width="360"/>
  <unicode hex="02D8"/>
  <outline>
    <contour>
      <point x="180" y="501" type="curve" smooth="yes" name="hr00"/>
      <point x="249" y="501"/>
      <point x="289" y="543"/>
      <point x="285" y="632" type="curve"/>
      <point x="279" y="636"/>
      <point x="267" y="636"/>
      <point x="263" y="632" type="curve"/>
      <point x="250" y="579"/>
      <point x="212" y="558"/>
      <point x="180" y="558" type="curve" smooth="yes"/>
      <point x="148" y="558"/>
      <point x="110" y="579"/>
      <point x="98" y="632" type="curve"/>
      <point x="93" y="636"/>
      <point x="81" y="636"/>
      <point x="76" y="632" type="curve"/>
      <point x="71" y="543"/>
      <point x="111" y="501"/>
    </contour>
  </outline>
</glyph>
<glyph name="ogonek" format="1">
  <advance width="360"/>
  <unicode hex="02DB"/>
  <outline>
    <contour>
      <point x="220" y="5" type="line" name="hr00"/>
      <point x="136" y="-51"/>
      <point x="109" y="-96"/>
      <point x="109" y="-136" type="curve" smooth="yes"/>
      <point x="109" y="-179"/>
      <point x="141" y="-209"/>
      <point x="191" y="-209" type="curve" smooth="yes"/>
      <point x="221" y="-209"/>
      <point x="257" y="-195"/>
      <point x="282" y="-164" type="curve"/>
      <point x="282" y="-155"/>
      <point x="279" y="-150"/>
      <point x="274" y="-147" type="curve"/>
      <point x="252" y="-162"/>
      <point x="237" y="-162"/>
      <point x="225" y="-162" type="curve" smooth="yes"/>
      <point x="188" y="-162"/>
      <point x="179" y="-130"/>
      <point x="179" y="-111" type="curve" smooth="yes"/>
      <point x="179" y="-84"/>
      <point x="189" y="-44"/>
      <point x="243" y="5" type="curve"/>
    </contour>
  </outline>
</glyph>
